  0
SECTION
  2
HEADER
  9
$ACADVER
  1
AC1009
  9
$INSUNITS
 70
     5
  0
ENDSEC
  0
SECTION
  2
TABLES
  0
TABLE
  2
LAYER
 70
     8
  0
LAYER
  2
0
 62
     7
 70
0
  6
CONTINUOUS
  0
LAYER
  2
1
 62
     1
 70
0
  6
CONTINUOUS
  0
LAYER
  2
2
 62
     2
 70
0
  6
CONTINUOUS
  0
LAYER
  2
3
 62
     3
 70
0
  6
CONTINUOUS
  0
LAYER
  2
4
 62
     4
 70
0
  6
CONTINUOUS
  0
LAYER
  2
5
 62
     5
 70
0
  6
CONTINUOUS
  0
LAYER
  2
6
 62
     6
 70
0
  6
CONTINUOUS
  0
LAYER
  2
7
 62
     7
 70
0
  6
CONTINUOUS
  0
ENDTAB
  0
TABLE
  2
STYLE
 70
     1
  0
STYLE
 70
     0
  2
STANDARD
  3
TXT
 40
0.00
 41
1.00
 42
1.00
 50
0.00
 71
     0
  0
ENDTAB
  0
ENDSEC
  0
SECTION
  2
BLOCKS
  0
BLOCK
  8
0
  2
EPAD
 70
0
 10
0.0
 20
0.0
  0
POLYLINE
  8
0
 66
1
 70
1
 40
0.5
 41
0.5
  0
VERTEX
  8
0
 10
-0.25
 20
0.0
 42
1.0
  0
VERTEX
  8
0
 10
0.25
 20
0.0
 42
1.0
  0
SEQEND
  8
0
  0
ENDBLK
  8
0
  0
BLOCK
  8
0
  2
RPAD
 70
0
 10
0.0
 20
0.0
  0
TRACE
  8
0
 10
-0.5
 20
-0.5
 11
-0.5
 21
0.5
 12
0.5
 22
-0.5
 13
0.5
 23
0.5
  0
ENDBLK
  8
0
  0
ENDSEC
0
SECTION
2
ENTITIES
0
POLYLINE
8
0
66
1
70
1
40
0
41
0
0
VERTEX
8
0
10
-1.810300
20
4.594980
0
VERTEX
8
0
10
-1.810300
20
4.493020
0
VERTEX
8
0
10
-1.848220
20
4.455100
0
VERTEX
8
0
10
-2.051780
20
4.455100
0
VERTEX
8
0
10
-2.089700
20
4.493020
0
VERTEX
8
0
10
-2.089700
20
4.594980
0
VERTEX
8
0
10
-2.051780
20
4.632900
0
VERTEX
8
0
10
-1.848220
20
4.632900
0
VERTEX
8
0
10
-1.810300
20
4.594980
0
SEQEND
8
0
0
POLYLINE
8
0
66
1
70
1
40
0
41
0
0
VERTEX
8
0
10
-1.810300
20
4.340980
0
VERTEX
8
0
10
-1.810300
20
4.239020
0
VERTEX
8
0
10
-1.848220
20
4.201100
0
VERTEX
8
0
10
-2.051780
20
4.201100
0
VERTEX
8
0
10
-2.089700
20
4.239020
0
VERTEX
8
0
10
-2.089700
20
4.340980
0
VERTEX
8
0
10
-2.051780
20
4.378900
0
VERTEX
8
0
10
-1.848220
20
4.378900
0
VERTEX
8
0
10
-1.810300
20
4.340980
0
SEQEND
8
0
0
POLYLINE
8
0
66
1
70
1
40
0
41
0
0
VERTEX
8
0
10
-1.810300
20
4.086980
0
VERTEX
8
0
10
-1.810300
20
3.985020
0
VERTEX
8
0
10
-1.848220
20
3.947100
0
VERTEX
8
0
10
-2.051780
20
3.947100
0
VERTEX
8
0
10
-2.089700
20
3.985020
0
VERTEX
8
0
10
-2.089700
20
4.086980
0
VERTEX
8
0
10
-2.051780
20
4.124900
0
VERTEX
8
0
10
-1.848220
20
4.124900
0
VERTEX
8
0
10
-1.810300
20
4.086980
0
SEQEND
8
0
0
POLYLINE
8
0
66
1
70
1
40
0
41
0
0
VERTEX
8
0
10
-1.810300
20
3.832980
0
VERTEX
8
0
10
-1.810300
20
3.731020
0
VERTEX
8
0
10
-1.848220
20
3.693100
0
VERTEX
8
0
10
-2.051780
20
3.693100
0
VERTEX
8
0
10
-2.089700
20
3.731020
0
VERTEX
8
0
10
-2.089700
20
3.832980
0
VERTEX
8
0
10
-2.051780
20
3.870900
0
VERTEX
8
0
10
-1.848220
20
3.870900
0
VERTEX
8
0
10
-1.810300
20
3.832980
0
SEQEND
8
0
0
POLYLINE
8
0
66
1
70
1
40
0
41
0
0
VERTEX
8
0
10
-1.810300
20
3.578980
0
VERTEX
8
0
10
-1.810300
20
3.477020
0
VERTEX
8
0
10
-1.848220
20
3.439100
0
VERTEX
8
0
10
-2.051780
20
3.439100
0
VERTEX
8
0
10
-2.089700
20
3.477020
0
VERTEX
8
0
10
-2.089700
20
3.578980
0
VERTEX
8
0
10
-2.051780
20
3.616900
0
VERTEX
8
0
10
-1.848220
20
3.616900
0
VERTEX
8
0
10
-1.810300
20
3.578980
0
SEQEND
8
0
0
POLYLINE
8
0
66
1
70
1
40
0
41
0
0
VERTEX
8
0
10
-1.810300
20
3.324980
0
VERTEX
8
0
10
-1.810300
20
3.223020
0
VERTEX
8
0
10
-1.848220
20
3.185100
0
VERTEX
8
0
10
-2.051780
20
3.185100
0
VERTEX
8
0
10
-2.089700
20
3.223020
0
VERTEX
8
0
10
-2.089700
20
3.324980
0
VERTEX
8
0
10
-2.051780
20
3.362900
0
VERTEX
8
0
10
-1.848220
20
3.362900
0
VERTEX
8
0
10
-1.810300
20
3.324980
0
SEQEND
8
0
0
POLYLINE
8
0
66
1
70
1
40
0
41
0
0
VERTEX
8
0
10
-1.810300
20
3.070980
0
VERTEX
8
0
10
-1.810300
20
2.969020
0
VERTEX
8
0
10
-1.848220
20
2.931100
0
VERTEX
8
0
10
-2.051780
20
2.931100
0
VERTEX
8
0
10
-2.089700
20
2.969020
0
VERTEX
8
0
10
-2.089700
20
3.070980
0
VERTEX
8
0
10
-2.051780
20
3.108900
0
VERTEX
8
0
10
-1.848220
20
3.108900
0
VERTEX
8
0
10
-1.810300
20
3.070980
0
SEQEND
8
0
0
POLYLINE
8
0
66
1
70
1
40
0
41
0
0
VERTEX
8
0
10
-1.810300
20
2.816980
0
VERTEX
8
0
10
-1.810300
20
2.715020
0
VERTEX
8
0
10
-1.848220
20
2.677100
0
VERTEX
8
0
10
-2.051780
20
2.677100
0
VERTEX
8
0
10
-2.089700
20
2.715020
0
VERTEX
8
0
10
-2.089700
20
2.816980
0
VERTEX
8
0
10
-2.051780
20
2.854900
0
VERTEX
8
0
10
-1.848220
20
2.854900
0
VERTEX
8
0
10
-1.810300
20
2.816980
0
SEQEND
8
0
0
POLYLINE
8
0
66
1
70
1
40
0
41
0
0
VERTEX
8
0
10
-0.026300
20
4.588980
0
VERTEX
8
0
10
-0.026300
20
4.487020
0
VERTEX
8
0
10
-0.064220
20
4.449100
0
VERTEX
8
0
10
-0.267780
20
4.449100
0
VERTEX
8
0
10
-0.305700
20
4.487020
0
VERTEX
8
0
10
-0.305700
20
4.588980
0
VERTEX
8
0
10
-0.267780
20
4.626900
0
VERTEX
8
0
10
-0.064220
20
4.626900
0
VERTEX
8
0
10
-0.026300
20
4.588980
0
SEQEND
8
0
0
POLYLINE
8
0
66
1
70
1
40
0
41
0
0
VERTEX
8
0
10
-0.026300
20
4.334980
0
VERTEX
8
0
10
-0.026300
20
4.233020
0
VERTEX
8
0
10
-0.064220
20
4.195100
0
VERTEX
8
0
10
-0.267780
20
4.195100
0
VERTEX
8
0
10
-0.305700
20
4.233020
0
VERTEX
8
0
10
-0.305700
20
4.334980
0
VERTEX
8
0
10
-0.267780
20
4.372900
0
VERTEX
8
0
10
-0.064220
20
4.372900
0
VERTEX
8
0
10
-0.026300
20
4.334980
0
SEQEND
8
0
0
POLYLINE
8
0
66
1
70
1
40
0
41
0
0
VERTEX
8
0
10
-0.026300
20
4.080980
0
VERTEX
8
0
10
-0.026300
20
3.979020
0
VERTEX
8
0
10
-0.064220
20
3.941100
0
VERTEX
8
0
10
-0.267780
20
3.941100
0
VERTEX
8
0
10
-0.305700
20
3.979020
0
VERTEX
8
0
10
-0.305700
20
4.080980
0
VERTEX
8
0
10
-0.267780
20
4.118900
0
VERTEX
8
0
10
-0.064220
20
4.118900
0
VERTEX
8
0
10
-0.026300
20
4.080980
0
SEQEND
8
0
0
POLYLINE
8
0
66
1
70
1
40
0
41
0
0
VERTEX
8
0
10
-0.026300
20
3.826980
0
VERTEX
8
0
10
-0.026300
20
3.725020
0
VERTEX
8
0
10
-0.064220
20
3.687100
0
VERTEX
8
0
10
-0.267780
20
3.687100
0
VERTEX
8
0
10
-0.305700
20
3.725020
0
VERTEX
8
0
10
-0.305700
20
3.826980
0
VERTEX
8
0
10
-0.267780
20
3.864900
0
VERTEX
8
0
10
-0.064220
20
3.864900
0
VERTEX
8
0
10
-0.026300
20
3.826980
0
SEQEND
8
0
0
POLYLINE
8
0
66
1
70
1
40
0
41
0
0
VERTEX
8
0
10
-0.026300
20
3.572980
0
VERTEX
8
0
10
-0.026300
20
3.471020
0
VERTEX
8
0
10
-0.064220
20
3.433100
0
VERTEX
8
0
10
-0.267780
20
3.433100
0
VERTEX
8
0
10
-0.305700
20
3.471020
0
VERTEX
8
0
10
-0.305700
20
3.572980
0
VERTEX
8
0
10
-0.267780
20
3.610900
0
VERTEX
8
0
10
-0.064220
20
3.610900
0
VERTEX
8
0
10
-0.026300
20
3.572980
0
SEQEND
8
0
0
POLYLINE
8
0
66
1
70
1
40
0
41
0
0
VERTEX
8
0
10
-0.026300
20
3.318980
0
VERTEX
8
0
10
-0.026300
20
3.217020
0
VERTEX
8
0
10
-0.064220
20
3.179100
0
VERTEX
8
0
10
-0.267780
20
3.179100
0
VERTEX
8
0
10
-0.305700
20
3.217020
0
VERTEX
8
0
10
-0.305700
20
3.318980
0
VERTEX
8
0
10
-0.267780
20
3.356900
0
VERTEX
8
0
10
-0.064220
20
3.356900
0
VERTEX
8
0
10
-0.026300
20
3.318980
0
SEQEND
8
0
0
POLYLINE
8
0
66
1
70
1
40
0
41
0
0
VERTEX
8
0
10
-0.026300
20
3.064980
0
VERTEX
8
0
10
-0.026300
20
2.963020
0
VERTEX
8
0
10
-0.064220
20
2.925100
0
VERTEX
8
0
10
-0.267780
20
2.925100
0
VERTEX
8
0
10
-0.305700
20
2.963020
0
VERTEX
8
0
10
-0.305700
20
3.064980
0
VERTEX
8
0
10
-0.267780
20
3.102900
0
VERTEX
8
0
10
-0.064220
20
3.102900
0
VERTEX
8
0
10
-0.026300
20
3.064980
0
SEQEND
8
0
0
POLYLINE
8
0
66
1
70
1
40
0
41
0
0
VERTEX
8
0
10
-0.026300
20
2.810980
0
VERTEX
8
0
10
-0.026300
20
2.709020
0
VERTEX
8
0
10
-0.064220
20
2.671100
0
VERTEX
8
0
10
-0.267780
20
2.671100
0
VERTEX
8
0
10
-0.305700
20
2.709020
0
VERTEX
8
0
10
-0.305700
20
2.810980
0
VERTEX
8
0
10
-0.267780
20
2.848900
0
VERTEX
8
0
10
-0.064220
20
2.848900
0
VERTEX
8
0
10
-0.026300
20
2.810980
0
SEQEND
8
0
0
POLYLINE
8
0
66
1
70
1
40
0
41
0
0
VERTEX
8
0
10
1.137300
20
4.740000
0
VERTEX
8
0
10
1.137300
20
4.760000
0
VERTEX
8
0
10
1.138946
20
4.776909
0
VERTEX
8
0
10
1.143680
20
4.792547
0
VERTEX
8
0
10
1.151201
20
4.806609
0
VERTEX
8
0
10
1.161206
20
4.818794
0
VERTEX
8
0
10
1.173391
20
4.828799
0
VERTEX
8
0
10
1.187453
20
4.836320
0
VERTEX
8
0
10
1.203091
20
4.841054
0
VERTEX
8
0
10
1.220000
20
4.842700
0
VERTEX
8
0
10
1.280000
20
4.842700
0
VERTEX
8
0
10
1.296909
20
4.841054
0
VERTEX
8
0
10
1.312547
20
4.836320
0
VERTEX
8
0
10
1.326609
20
4.828799
0
VERTEX
8
0
10
1.338794
20
4.818794
0
VERTEX
8
0
10
1.348799
20
4.806609
0
VERTEX
8
0
10
1.356320
20
4.792547
0
VERTEX
8
0
10
1.361054
20
4.776909
0
VERTEX
8
0
10
1.362700
20
4.760000
0
VERTEX
8
0
10
1.362700
20
4.740000
0
VERTEX
8
0
10
1.361054
20
4.723091
0
VERTEX
8
0
10
1.356320
20
4.707453
0
VERTEX
8
0
10
1.348799
20
4.693391
0
VERTEX
8
0
10
1.338794
20
4.681206
0
VERTEX
8
0
10
1.326609
20
4.671201
0
VERTEX
8
0
10
1.312547
20
4.663680
0
VERTEX
8
0
10
1.296909
20
4.658946
0
VERTEX
8
0
10
1.280000
20
4.657300
0
VERTEX
8
0
10
1.220000
20
4.657300
0
VERTEX
8
0
10
1.203091
20
4.658946
0
VERTEX
8
0
10
1.187453
20
4.663680
0
VERTEX
8
0
10
1.173391
20
4.671201
0
VERTEX
8
0
10
1.161206
20
4.681206
0
VERTEX
8
0
10
1.151201
20
4.693391
0
VERTEX
8
0
10
1.143680
20
4.707453
0
VERTEX
8
0
10
1.138946
20
4.723091
0
VERTEX
8
0
10
1.137300
20
4.740000
0
SEQEND
8
0
0
POLYLINE
8
0
66
1
70
1
40
0
41
0
0
VERTEX
8
0
10
1.137300
20
4.994000
0
VERTEX
8
0
10
1.137300
20
5.014000
0
VERTEX
8
0
10
1.138946
20
5.030909
0
VERTEX
8
0
10
1.143680
20
5.046547
0
VERTEX
8
0
10
1.151201
20
5.060609
0
VERTEX
8
0
10
1.161206
20
5.072794
0
VERTEX
8
0
10
1.173391
20
5.082799
0
VERTEX
8
0
10
1.187453
20
5.090320
0
VERTEX
8
0
10
1.203091
20
5.095054
0
VERTEX
8
0
10
1.220000
20
5.096700
0
VERTEX
8
0
10
1.280000
20
5.096700
0
VERTEX
8
0
10
1.296909
20
5.095054
0
VERTEX
8
0
10
1.312547
20
5.090320
0
VERTEX
8
0
10
1.326609
20
5.082799
0
VERTEX
8
0
10
1.338794
20
5.072794
0
VERTEX
8
0
10
1.348799
20
5.060609
0
VERTEX
8
0
10
1.356320
20
5.046547
0
VERTEX
8
0
10
1.361054
20
5.030909
0
VERTEX
8
0
10
1.362700
20
5.014000
0
VERTEX
8
0
10
1.362700
20
4.994000
0
VERTEX
8
0
10
1.361054
20
4.977091
0
VERTEX
8
0
10
1.356320
20
4.961453
0
VERTEX
8
0
10
1.348799
20
4.947391
0
VERTEX
8
0
10
1.338794
20
4.935206
0
VERTEX
8
0
10
1.326609
20
4.925201
0
VERTEX
8
0
10
1.312547
20
4.917680
0
VERTEX
8
0
10
1.296909
20
4.912946
0
VERTEX
8
0
10
1.280000
20
4.911300
0
VERTEX
8
0
10
1.220000
20
4.911300
0
VERTEX
8
0
10
1.203091
20
4.912946
0
VERTEX
8
0
10
1.187453
20
4.917680
0
VERTEX
8
0
10
1.173391
20
4.925201
0
VERTEX
8
0
10
1.161206
20
4.935206
0
VERTEX
8
0
10
1.151201
20
4.947391
0
VERTEX
8
0
10
1.143680
20
4.961453
0
VERTEX
8
0
10
1.138946
20
4.977091
0
VERTEX
8
0
10
1.137300
20
4.994000
0
SEQEND
8
0
0
POLYLINE
8
0
66
1
70
1
40
0
41
0
0
VERTEX
8
0
10
1.137300
20
5.248000
0
VERTEX
8
0
10
1.137300
20
5.268000
0
VERTEX
8
0
10
1.138946
20
5.284909
0
VERTEX
8
0
10
1.143680
20
5.300547
0
VERTEX
8
0
10
1.151201
20
5.314609
0
VERTEX
8
0
10
1.161206
20
5.326794
0
VERTEX
8
0
10
1.173391
20
5.336799
0
VERTEX
8
0
10
1.187453
20
5.344320
0
VERTEX
8
0
10
1.203091
20
5.349054
0
VERTEX
8
0
10
1.220000
20
5.350700
0
VERTEX
8
0
10
1.280000
20
5.350700
0
VERTEX
8
0
10
1.296909
20
5.349054
0
VERTEX
8
0
10
1.312547
20
5.344320
0
VERTEX
8
0
10
1.326609
20
5.336799
0
VERTEX
8
0
10
1.338794
20
5.326794
0
VERTEX
8
0
10
1.348799
20
5.314609
0
VERTEX
8
0
10
1.356320
20
5.300547
0
VERTEX
8
0
10
1.361054
20
5.284909
0
VERTEX
8
0
10
1.362700
20
5.268000
0
VERTEX
8
0
10
1.362700
20
5.248000
0
VERTEX
8
0
10
1.361054
20
5.231091
0
VERTEX
8
0
10
1.356320
20
5.215453
0
VERTEX
8
0
10
1.348799
20
5.201391
0
VERTEX
8
0
10
1.338794
20
5.189206
0
VERTEX
8
0
10
1.326609
20
5.179201
0
VERTEX
8
0
10
1.312547
20
5.171680
0
VERTEX
8
0
10
1.296909
20
5.166946
0
VERTEX
8
0
10
1.280000
20
5.165300
0
VERTEX
8
0
10
1.220000
20
5.165300
0
VERTEX
8
0
10
1.203091
20
5.166946
0
VERTEX
8
0
10
1.187453
20
5.171680
0
VERTEX
8
0
10
1.173391
20
5.179201
0
VERTEX
8
0
10
1.161206
20
5.189206
0
VERTEX
8
0
10
1.151201
20
5.201391
0
VERTEX
8
0
10
1.143680
20
5.215453
0
VERTEX
8
0
10
1.138946
20
5.231091
0
VERTEX
8
0
10
1.137300
20
5.248000
0
SEQEND
8
0
0
POLYLINE
8
0
66
1
70
1
40
0
41
0
0
VERTEX
8
0
10
1.137300
20
5.502000
0
VERTEX
8
0
10
1.137300
20
5.522000
0
VERTEX
8
0
10
1.138946
20
5.538909
0
VERTEX
8
0
10
1.143680
20
5.554547
0
VERTEX
8
0
10
1.151201
20
5.568609
0
VERTEX
8
0
10
1.161206
20
5.580794
0
VERTEX
8
0
10
1.173391
20
5.590799
0
VERTEX
8
0
10
1.187453
20
5.598320
0
VERTEX
8
0
10
1.203091
20
5.603054
0
VERTEX
8
0
10
1.220000
20
5.604700
0
VERTEX
8
0
10
1.280000
20
5.604700
0
VERTEX
8
0
10
1.296909
20
5.603054
0
VERTEX
8
0
10
1.312547
20
5.598320
0
VERTEX
8
0
10
1.326609
20
5.590799
0
VERTEX
8
0
10
1.338794
20
5.580794
0
VERTEX
8
0
10
1.348799
20
5.568609
0
VERTEX
8
0
10
1.356320
20
5.554547
0
VERTEX
8
0
10
1.361054
20
5.538909
0
VERTEX
8
0
10
1.362700
20
5.522000
0
VERTEX
8
0
10
1.362700
20
5.502000
0
VERTEX
8
0
10
1.361054
20
5.485091
0
VERTEX
8
0
10
1.356320
20
5.469453
0
VERTEX
8
0
10
1.348799
20
5.455391
0
VERTEX
8
0
10
1.338794
20
5.443206
0
VERTEX
8
0
10
1.326609
20
5.433201
0
VERTEX
8
0
10
1.312547
20
5.425680
0
VERTEX
8
0
10
1.296909
20
5.420946
0
VERTEX
8
0
10
1.280000
20
5.419300
0
VERTEX
8
0
10
1.220000
20
5.419300
0
VERTEX
8
0
10
1.203091
20
5.420946
0
VERTEX
8
0
10
1.187453
20
5.425680
0
VERTEX
8
0
10
1.173391
20
5.433201
0
VERTEX
8
0
10
1.161206
20
5.443206
0
VERTEX
8
0
10
1.151201
20
5.455391
0
VERTEX
8
0
10
1.143680
20
5.469453
0
VERTEX
8
0
10
1.138946
20
5.485091
0
VERTEX
8
0
10
1.137300
20
5.502000
0
SEQEND
8
0
0
POLYLINE
8
0
66
1
70
1
40
0
41
0
0
VERTEX
8
0
10
1.137300
20
5.756000
0
VERTEX
8
0
10
1.137300
20
5.776000
0
VERTEX
8
0
10
1.138946
20
5.792909
0
VERTEX
8
0
10
1.143680
20
5.808547
0
VERTEX
8
0
10
1.151201
20
5.822609
0
VERTEX
8
0
10
1.161206
20
5.834794
0
VERTEX
8
0
10
1.173391
20
5.844799
0
VERTEX
8
0
10
1.187453
20
5.852320
0
VERTEX
8
0
10
1.203091
20
5.857054
0
VERTEX
8
0
10
1.220000
20
5.858700
0
VERTEX
8
0
10
1.280000
20
5.858700
0
VERTEX
8
0
10
1.296909
20
5.857054
0
VERTEX
8
0
10
1.312547
20
5.852320
0
VERTEX
8
0
10
1.326609
20
5.844799
0
VERTEX
8
0
10
1.338794
20
5.834794
0
VERTEX
8
0
10
1.348799
20
5.822609
0
VERTEX
8
0
10
1.356320
20
5.808547
0
VERTEX
8
0
10
1.361054
20
5.792909
0
VERTEX
8
0
10
1.362700
20
5.776000
0
VERTEX
8
0
10
1.362700
20
5.756000
0
VERTEX
8
0
10
1.361054
20
5.739091
0
VERTEX
8
0
10
1.356320
20
5.723453
0
VERTEX
8
0
10
1.348799
20
5.709391
0
VERTEX
8
0
10
1.338794
20
5.697206
0
VERTEX
8
0
10
1.326609
20
5.687201
0
VERTEX
8
0
10
1.312547
20
5.679680
0
VERTEX
8
0
10
1.296909
20
5.674946
0
VERTEX
8
0
10
1.280000
20
5.673300
0
VERTEX
8
0
10
1.220000
20
5.673300
0
VERTEX
8
0
10
1.203091
20
5.674946
0
VERTEX
8
0
10
1.187453
20
5.679680
0
VERTEX
8
0
10
1.173391
20
5.687201
0
VERTEX
8
0
10
1.161206
20
5.697206
0
VERTEX
8
0
10
1.151201
20
5.709391
0
VERTEX
8
0
10
1.143680
20
5.723453
0
VERTEX
8
0
10
1.138946
20
5.739091
0
VERTEX
8
0
10
1.137300
20
5.756000
0
SEQEND
8
0
0
POLYLINE
8
0
66
1
70
1
40
0
41
0
0
VERTEX
8
0
10
1.137300
20
6.010000
0
VERTEX
8
0
10
1.137300
20
6.030000
0
VERTEX
8
0
10
1.138946
20
6.046909
0
VERTEX
8
0
10
1.143680
20
6.062547
0
VERTEX
8
0
10
1.151201
20
6.076609
0
VERTEX
8
0
10
1.161206
20
6.088794
0
VERTEX
8
0
10
1.173391
20
6.098799
0
VERTEX
8
0
10
1.187453
20
6.106320
0
VERTEX
8
0
10
1.203091
20
6.111054
0
VERTEX
8
0
10
1.220000
20
6.112700
0
VERTEX
8
0
10
1.280000
20
6.112700
0
VERTEX
8
0
10
1.296909
20
6.111054
0
VERTEX
8
0
10
1.312547
20
6.106320
0
VERTEX
8
0
10
1.326609
20
6.098799
0
VERTEX
8
0
10
1.338794
20
6.088794
0
VERTEX
8
0
10
1.348799
20
6.076609
0
VERTEX
8
0
10
1.356320
20
6.062547
0
VERTEX
8
0
10
1.361054
20
6.046909
0
VERTEX
8
0
10
1.362700
20
6.030000
0
VERTEX
8
0
10
1.362700
20
6.010000
0
VERTEX
8
0
10
1.361054
20
5.993091
0
VERTEX
8
0
10
1.356320
20
5.977453
0
VERTEX
8
0
10
1.348799
20
5.963391
0
VERTEX
8
0
10
1.338794
20
5.951206
0
VERTEX
8
0
10
1.326609
20
5.941201
0
VERTEX
8
0
10
1.312547
20
5.933680
0
VERTEX
8
0
10
1.296909
20
5.928946
0
VERTEX
8
0
10
1.280000
20
5.927300
0
VERTEX
8
0
10
1.220000
20
5.927300
0
VERTEX
8
0
10
1.203091
20
5.928946
0
VERTEX
8
0
10
1.187453
20
5.933680
0
VERTEX
8
0
10
1.173391
20
5.941201
0
VERTEX
8
0
10
1.161206
20
5.951206
0
VERTEX
8
0
10
1.151201
20
5.963391
0
VERTEX
8
0
10
1.143680
20
5.977453
0
VERTEX
8
0
10
1.138946
20
5.993091
0
VERTEX
8
0
10
1.137300
20
6.010000
0
SEQEND
8
0
0
POLYLINE
8
0
66
1
70
1
40
0
41
0
0
VERTEX
8
0
10
1.137300
20
6.264000
0
VERTEX
8
0
10
1.137300
20
6.284000
0
VERTEX
8
0
10
1.138946
20
6.300909
0
VERTEX
8
0
10
1.143680
20
6.316547
0
VERTEX
8
0
10
1.151201
20
6.330609
0
VERTEX
8
0
10
1.161206
20
6.342794
0
VERTEX
8
0
10
1.173391
20
6.352799
0
VERTEX
8
0
10
1.187453
20
6.360320
0
VERTEX
8
0
10
1.203091
20
6.365054
0
VERTEX
8
0
10
1.220000
20
6.366700
0
VERTEX
8
0
10
1.280000
20
6.366700
0
VERTEX
8
0
10
1.296909
20
6.365054
0
VERTEX
8
0
10
1.312547
20
6.360320
0
VERTEX
8
0
10
1.326609
20
6.352799
0
VERTEX
8
0
10
1.338794
20
6.342794
0
VERTEX
8
0
10
1.348799
20
6.330609
0
VERTEX
8
0
10
1.356320
20
6.316547
0
VERTEX
8
0
10
1.361054
20
6.300909
0
VERTEX
8
0
10
1.362700
20
6.284000
0
VERTEX
8
0
10
1.362700
20
6.264000
0
VERTEX
8
0
10
1.361054
20
6.247091
0
VERTEX
8
0
10
1.356320
20
6.231453
0
VERTEX
8
0
10
1.348799
20
6.217391
0
VERTEX
8
0
10
1.338794
20
6.205206
0
VERTEX
8
0
10
1.326609
20
6.195201
0
VERTEX
8
0
10
1.312547
20
6.187680
0
VERTEX
8
0
10
1.296909
20
6.182946
0
VERTEX
8
0
10
1.280000
20
6.181300
0
VERTEX
8
0
10
1.220000
20
6.181300
0
VERTEX
8
0
10
1.203091
20
6.182946
0
VERTEX
8
0
10
1.187453
20
6.187680
0
VERTEX
8
0
10
1.173391
20
6.195201
0
VERTEX
8
0
10
1.161206
20
6.205206
0
VERTEX
8
0
10
1.151201
20
6.217391
0
VERTEX
8
0
10
1.143680
20
6.231453
0
VERTEX
8
0
10
1.138946
20
6.247091
0
VERTEX
8
0
10
1.137300
20
6.264000
0
SEQEND
8
0
0
POLYLINE
8
0
66
1
70
1
40
0
41
0
0
VERTEX
8
0
10
1.137300
20
6.764000
0
VERTEX
8
0
10
1.137300
20
6.784000
0
VERTEX
8
0
10
1.138946
20
6.800909
0
VERTEX
8
0
10
1.143680
20
6.816547
0
VERTEX
8
0
10
1.151201
20
6.830609
0
VERTEX
8
0
10
1.161206
20
6.842794
0
VERTEX
8
0
10
1.173391
20
6.852799
0
VERTEX
8
0
10
1.187453
20
6.860320
0
VERTEX
8
0
10
1.203091
20
6.865054
0
VERTEX
8
0
10
1.220000
20
6.866700
0
VERTEX
8
0
10
1.280000
20
6.866700
0
VERTEX
8
0
10
1.296909
20
6.865054
0
VERTEX
8
0
10
1.312547
20
6.860320
0
VERTEX
8
0
10
1.326609
20
6.852799
0
VERTEX
8
0
10
1.338794
20
6.842794
0
VERTEX
8
0
10
1.348799
20
6.830609
0
VERTEX
8
0
10
1.356320
20
6.816547
0
VERTEX
8
0
10
1.361054
20
6.800909
0
VERTEX
8
0
10
1.362700
20
6.784000
0
VERTEX
8
0
10
1.362700
20
6.764000
0
VERTEX
8
0
10
1.361054
20
6.747091
0
VERTEX
8
0
10
1.356320
20
6.731453
0
VERTEX
8
0
10
1.348799
20
6.717391
0
VERTEX
8
0
10
1.338794
20
6.705206
0
VERTEX
8
0
10
1.326609
20
6.695201
0
VERTEX
8
0
10
1.312547
20
6.687680
0
VERTEX
8
0
10
1.296909
20
6.682946
0
VERTEX
8
0
10
1.280000
20
6.681300
0
VERTEX
8
0
10
1.220000
20
6.681300
0
VERTEX
8
0
10
1.203091
20
6.682946
0
VERTEX
8
0
10
1.187453
20
6.687680
0
VERTEX
8
0
10
1.173391
20
6.695201
0
VERTEX
8
0
10
1.161206
20
6.705206
0
VERTEX
8
0
10
1.151201
20
6.717391
0
VERTEX
8
0
10
1.143680
20
6.731453
0
VERTEX
8
0
10
1.138946
20
6.747091
0
VERTEX
8
0
10
1.137300
20
6.764000
0
SEQEND
8
0
0
POLYLINE
8
0
66
1
70
1
40
0
41
0
0
VERTEX
8
0
10
1.137300
20
7.018000
0
VERTEX
8
0
10
1.137300
20
7.038000
0
VERTEX
8
0
10
1.138946
20
7.054909
0
VERTEX
8
0
10
1.143680
20
7.070547
0
VERTEX
8
0
10
1.151201
20
7.084609
0
VERTEX
8
0
10
1.161206
20
7.096794
0
VERTEX
8
0
10
1.173391
20
7.106799
0
VERTEX
8
0
10
1.187453
20
7.114320
0
VERTEX
8
0
10
1.203091
20
7.119054
0
VERTEX
8
0
10
1.220000
20
7.120700
0
VERTEX
8
0
10
1.280000
20
7.120700
0
VERTEX
8
0
10
1.296909
20
7.119054
0
VERTEX
8
0
10
1.312547
20
7.114320
0
VERTEX
8
0
10
1.326609
20
7.106799
0
VERTEX
8
0
10
1.338794
20
7.096794
0
VERTEX
8
0
10
1.348799
20
7.084609
0
VERTEX
8
0
10
1.356320
20
7.070547
0
VERTEX
8
0
10
1.361054
20
7.054909
0
VERTEX
8
0
10
1.362700
20
7.038000
0
VERTEX
8
0
10
1.362700
20
7.018000
0
VERTEX
8
0
10
1.361054
20
7.001091
0
VERTEX
8
0
10
1.356320
20
6.985453
0
VERTEX
8
0
10
1.348799
20
6.971391
0
VERTEX
8
0
10
1.338794
20
6.959206
0
VERTEX
8
0
10
1.326609
20
6.949201
0
VERTEX
8
0
10
1.312547
20
6.941680
0
VERTEX
8
0
10
1.296909
20
6.936946
0
VERTEX
8
0
10
1.280000
20
6.935300
0
VERTEX
8
0
10
1.220000
20
6.935300
0
VERTEX
8
0
10
1.203091
20
6.936946
0
VERTEX
8
0
10
1.187453
20
6.941680
0
VERTEX
8
0
10
1.173391
20
6.949201
0
VERTEX
8
0
10
1.161206
20
6.959206
0
VERTEX
8
0
10
1.151201
20
6.971391
0
VERTEX
8
0
10
1.143680
20
6.985453
0
VERTEX
8
0
10
1.138946
20
7.001091
0
VERTEX
8
0
10
1.137300
20
7.018000
0
SEQEND
8
0
0
POLYLINE
8
0
66
1
70
1
40
0
41
0
0
VERTEX
8
0
10
1.137300
20
7.272000
0
VERTEX
8
0
10
1.137300
20
7.292000
0
VERTEX
8
0
10
1.138946
20
7.308909
0
VERTEX
8
0
10
1.143680
20
7.324547
0
VERTEX
8
0
10
1.151201
20
7.338609
0
VERTEX
8
0
10
1.161206
20
7.350794
0
VERTEX
8
0
10
1.173391
20
7.360799
0
VERTEX
8
0
10
1.187453
20
7.368320
0
VERTEX
8
0
10
1.203091
20
7.373054
0
VERTEX
8
0
10
1.220000
20
7.374700
0
VERTEX
8
0
10
1.280000
20
7.374700
0
VERTEX
8
0
10
1.296909
20
7.373054
0
VERTEX
8
0
10
1.312547
20
7.368320
0
VERTEX
8
0
10
1.326609
20
7.360799
0
VERTEX
8
0
10
1.338794
20
7.350794
0
VERTEX
8
0
10
1.348799
20
7.338609
0
VERTEX
8
0
10
1.356320
20
7.324547
0
VERTEX
8
0
10
1.361054
20
7.308909
0
VERTEX
8
0
10
1.362700
20
7.292000
0
VERTEX
8
0
10
1.362700
20
7.272000
0
VERTEX
8
0
10
1.361054
20
7.255091
0
VERTEX
8
0
10
1.356320
20
7.239453
0
VERTEX
8
0
10
1.348799
20
7.225391
0
VERTEX
8
0
10
1.338794
20
7.213206
0
VERTEX
8
0
10
1.326609
20
7.203201
0
VERTEX
8
0
10
1.312547
20
7.195680
0
VERTEX
8
0
10
1.296909
20
7.190946
0
VERTEX
8
0
10
1.280000
20
7.189300
0
VERTEX
8
0
10
1.220000
20
7.189300
0
VERTEX
8
0
10
1.203091
20
7.190946
0
VERTEX
8
0
10
1.187453
20
7.195680
0
VERTEX
8
0
10
1.173391
20
7.203201
0
VERTEX
8
0
10
1.161206
20
7.213206
0
VERTEX
8
0
10
1.151201
20
7.225391
0
VERTEX
8
0
10
1.143680
20
7.239453
0
VERTEX
8
0
10
1.138946
20
7.255091
0
VERTEX
8
0
10
1.137300
20
7.272000
0
SEQEND
8
0
0
POLYLINE
8
0
66
1
70
1
40
0
41
0
0
VERTEX
8
0
10
1.137300
20
7.526000
0
VERTEX
8
0
10
1.137300
20
7.546000
0
VERTEX
8
0
10
1.138946
20
7.562909
0
VERTEX
8
0
10
1.143680
20
7.578547
0
VERTEX
8
0
10
1.151201
20
7.592609
0
VERTEX
8
0
10
1.161206
20
7.604794
0
VERTEX
8
0
10
1.173391
20
7.614799
0
VERTEX
8
0
10
1.187453
20
7.622320
0
VERTEX
8
0
10
1.203091
20
7.627054
0
VERTEX
8
0
10
1.220000
20
7.628700
0
VERTEX
8
0
10
1.280000
20
7.628700
0
VERTEX
8
0
10
1.296909
20
7.627054
0
VERTEX
8
0
10
1.312547
20
7.622320
0
VERTEX
8
0
10
1.326609
20
7.614799
0
VERTEX
8
0
10
1.338794
20
7.604794
0
VERTEX
8
0
10
1.348799
20
7.592609
0
VERTEX
8
0
10
1.356320
20
7.578547
0
VERTEX
8
0
10
1.361054
20
7.562909
0
VERTEX
8
0
10
1.362700
20
7.546000
0
VERTEX
8
0
10
1.362700
20
7.526000
0
VERTEX
8
0
10
1.361054
20
7.509091
0
VERTEX
8
0
10
1.356320
20
7.493453
0
VERTEX
8
0
10
1.348799
20
7.479391
0
VERTEX
8
0
10
1.338794
20
7.467206
0
VERTEX
8
0
10
1.326609
20
7.457201
0
VERTEX
8
0
10
1.312547
20
7.449680
0
VERTEX
8
0
10
1.296909
20
7.444946
0
VERTEX
8
0
10
1.280000
20
7.443300
0
VERTEX
8
0
10
1.220000
20
7.443300
0
VERTEX
8
0
10
1.203091
20
7.444946
0
VERTEX
8
0
10
1.187453
20
7.449680
0
VERTEX
8
0
10
1.173391
20
7.457201
0
VERTEX
8
0
10
1.161206
20
7.467206
0
VERTEX
8
0
10
1.151201
20
7.479391
0
VERTEX
8
0
10
1.143680
20
7.493453
0
VERTEX
8
0
10
1.138946
20
7.509091
0
VERTEX
8
0
10
1.137300
20
7.526000
0
SEQEND
8
0
0
POLYLINE
8
0
66
1
70
1
40
0
41
0
0
VERTEX
8
0
10
1.137300
20
7.780000
0
VERTEX
8
0
10
1.137300
20
7.800000
0
VERTEX
8
0
10
1.138946
20
7.816909
0
VERTEX
8
0
10
1.143680
20
7.832547
0
VERTEX
8
0
10
1.151201
20
7.846609
0
VERTEX
8
0
10
1.161206
20
7.858794
0
VERTEX
8
0
10
1.173391
20
7.868799
0
VERTEX
8
0
10
1.187453
20
7.876320
0
VERTEX
8
0
10
1.203091
20
7.881054
0
VERTEX
8
0
10
1.220000
20
7.882700
0
VERTEX
8
0
10
1.280000
20
7.882700
0
VERTEX
8
0
10
1.296909
20
7.881054
0
VERTEX
8
0
10
1.312547
20
7.876320
0
VERTEX
8
0
10
1.326609
20
7.868799
0
VERTEX
8
0
10
1.338794
20
7.858794
0
VERTEX
8
0
10
1.348799
20
7.846609
0
VERTEX
8
0
10
1.356320
20
7.832547
0
VERTEX
8
0
10
1.361054
20
7.816909
0
VERTEX
8
0
10
1.362700
20
7.800000
0
VERTEX
8
0
10
1.362700
20
7.780000
0
VERTEX
8
0
10
1.361054
20
7.763091
0
VERTEX
8
0
10
1.356320
20
7.747453
0
VERTEX
8
0
10
1.348799
20
7.733391
0
VERTEX
8
0
10
1.338794
20
7.721206
0
VERTEX
8
0
10
1.326609
20
7.711201
0
VERTEX
8
0
10
1.312547
20
7.703680
0
VERTEX
8
0
10
1.296909
20
7.698946
0
VERTEX
8
0
10
1.280000
20
7.697300
0
VERTEX
8
0
10
1.220000
20
7.697300
0
VERTEX
8
0
10
1.203091
20
7.698946
0
VERTEX
8
0
10
1.187453
20
7.703680
0
VERTEX
8
0
10
1.173391
20
7.711201
0
VERTEX
8
0
10
1.161206
20
7.721206
0
VERTEX
8
0
10
1.151201
20
7.733391
0
VERTEX
8
0
10
1.143680
20
7.747453
0
VERTEX
8
0
10
1.138946
20
7.763091
0
VERTEX
8
0
10
1.137300
20
7.780000
0
SEQEND
8
0
0
POLYLINE
8
0
66
1
70
1
40
0
41
0
0
VERTEX
8
0
10
1.137300
20
8.034000
0
VERTEX
8
0
10
1.137300
20
8.054000
0
VERTEX
8
0
10
1.138946
20
8.070909
0
VERTEX
8
0
10
1.143680
20
8.086547
0
VERTEX
8
0
10
1.151201
20
8.100609
0
VERTEX
8
0
10
1.161206
20
8.112794
0
VERTEX
8
0
10
1.173391
20
8.122799
0
VERTEX
8
0
10
1.187453
20
8.130320
0
VERTEX
8
0
10
1.203091
20
8.135054
0
VERTEX
8
0
10
1.220000
20
8.136700
0
VERTEX
8
0
10
1.280000
20
8.136700
0
VERTEX
8
0
10
1.296909
20
8.135054
0
VERTEX
8
0
10
1.312547
20
8.130320
0
VERTEX
8
0
10
1.326609
20
8.122799
0
VERTEX
8
0
10
1.338794
20
8.112794
0
VERTEX
8
0
10
1.348799
20
8.100609
0
VERTEX
8
0
10
1.356320
20
8.086547
0
VERTEX
8
0
10
1.361054
20
8.070909
0
VERTEX
8
0
10
1.362700
20
8.054000
0
VERTEX
8
0
10
1.362700
20
8.034000
0
VERTEX
8
0
10
1.361054
20
8.017091
0
VERTEX
8
0
10
1.356320
20
8.001453
0
VERTEX
8
0
10
1.348799
20
7.987391
0
VERTEX
8
0
10
1.338794
20
7.975206
0
VERTEX
8
0
10
1.326609
20
7.965201
0
VERTEX
8
0
10
1.312547
20
7.957680
0
VERTEX
8
0
10
1.296909
20
7.952946
0
VERTEX
8
0
10
1.280000
20
7.951300
0
VERTEX
8
0
10
1.220000
20
7.951300
0
VERTEX
8
0
10
1.203091
20
7.952946
0
VERTEX
8
0
10
1.187453
20
7.957680
0
VERTEX
8
0
10
1.173391
20
7.965201
0
VERTEX
8
0
10
1.161206
20
7.975206
0
VERTEX
8
0
10
1.151201
20
7.987391
0
VERTEX
8
0
10
1.143680
20
8.001453
0
VERTEX
8
0
10
1.138946
20
8.017091
0
VERTEX
8
0
10
1.137300
20
8.034000
0
SEQEND
8
0
0
POLYLINE
8
0
66
1
70
1
40
0
41
0
0
VERTEX
8
0
10
-3.722700
20
8.034000
0
VERTEX
8
0
10
-3.722700
20
8.054000
0
VERTEX
8
0
10
-3.721054
20
8.070909
0
VERTEX
8
0
10
-3.716320
20
8.086547
0
VERTEX
8
0
10
-3.708799
20
8.100609
0
VERTEX
8
0
10
-3.698794
20
8.112794
0
VERTEX
8
0
10
-3.686609
20
8.122799
0
VERTEX
8
0
10
-3.672547
20
8.130320
0
VERTEX
8
0
10
-3.656909
20
8.135054
0
VERTEX
8
0
10
-3.640000
20
8.136700
0
VERTEX
8
0
10
-3.580000
20
8.136700
0
VERTEX
8
0
10
-3.563091
20
8.135054
0
VERTEX
8
0
10
-3.547453
20
8.130320
0
VERTEX
8
0
10
-3.533391
20
8.122799
0
VERTEX
8
0
10
-3.521206
20
8.112794
0
VERTEX
8
0
10
-3.511201
20
8.100609
0
VERTEX
8
0
10
-3.503680
20
8.086547
0
VERTEX
8
0
10
-3.498946
20
8.070909
0
VERTEX
8
0
10
-3.497300
20
8.054000
0
VERTEX
8
0
10
-3.497300
20
8.034000
0
VERTEX
8
0
10
-3.498946
20
8.017091
0
VERTEX
8
0
10
-3.503680
20
8.001453
0
VERTEX
8
0
10
-3.511201
20
7.987391
0
VERTEX
8
0
10
-3.521206
20
7.975206
0
VERTEX
8
0
10
-3.533391
20
7.965201
0
VERTEX
8
0
10
-3.547453
20
7.957680
0
VERTEX
8
0
10
-3.563091
20
7.952946
0
VERTEX
8
0
10
-3.580000
20
7.951300
0
VERTEX
8
0
10
-3.640000
20
7.951300
0
VERTEX
8
0
10
-3.656909
20
7.952946
0
VERTEX
8
0
10
-3.672547
20
7.957680
0
VERTEX
8
0
10
-3.686609
20
7.965201
0
VERTEX
8
0
10
-3.698794
20
7.975206
0
VERTEX
8
0
10
-3.708799
20
7.987391
0
VERTEX
8
0
10
-3.716320
20
8.001453
0
VERTEX
8
0
10
-3.721054
20
8.017091
0
VERTEX
8
0
10
-3.722700
20
8.034000
0
SEQEND
8
0
0
POLYLINE
8
0
66
1
70
1
40
0
41
0
0
VERTEX
8
0
10
-3.722700
20
7.780000
0
VERTEX
8
0
10
-3.722700
20
7.800000
0
VERTEX
8
0
10
-3.721054
20
7.816909
0
VERTEX
8
0
10
-3.716320
20
7.832547
0
VERTEX
8
0
10
-3.708799
20
7.846609
0
VERTEX
8
0
10
-3.698794
20
7.858794
0
VERTEX
8
0
10
-3.686609
20
7.868799
0
VERTEX
8
0
10
-3.672547
20
7.876320
0
VERTEX
8
0
10
-3.656909
20
7.881054
0
VERTEX
8
0
10
-3.640000
20
7.882700
0
VERTEX
8
0
10
-3.580000
20
7.882700
0
VERTEX
8
0
10
-3.563091
20
7.881054
0
VERTEX
8
0
10
-3.547453
20
7.876320
0
VERTEX
8
0
10
-3.533391
20
7.868799
0
VERTEX
8
0
10
-3.521206
20
7.858794
0
VERTEX
8
0
10
-3.511201
20
7.846609
0
VERTEX
8
0
10
-3.503680
20
7.832547
0
VERTEX
8
0
10
-3.498946
20
7.816909
0
VERTEX
8
0
10
-3.497300
20
7.800000
0
VERTEX
8
0
10
-3.497300
20
7.780000
0
VERTEX
8
0
10
-3.498946
20
7.763091
0
VERTEX
8
0
10
-3.503680
20
7.747453
0
VERTEX
8
0
10
-3.511201
20
7.733391
0
VERTEX
8
0
10
-3.521206
20
7.721206
0
VERTEX
8
0
10
-3.533391
20
7.711201
0
VERTEX
8
0
10
-3.547453
20
7.703680
0
VERTEX
8
0
10
-3.563091
20
7.698946
0
VERTEX
8
0
10
-3.580000
20
7.697300
0
VERTEX
8
0
10
-3.640000
20
7.697300
0
VERTEX
8
0
10
-3.656909
20
7.698946
0
VERTEX
8
0
10
-3.672547
20
7.703680
0
VERTEX
8
0
10
-3.686609
20
7.711201
0
VERTEX
8
0
10
-3.698794
20
7.721206
0
VERTEX
8
0
10
-3.708799
20
7.733391
0
VERTEX
8
0
10
-3.716320
20
7.747453
0
VERTEX
8
0
10
-3.721054
20
7.763091
0
VERTEX
8
0
10
-3.722700
20
7.780000
0
SEQEND
8
0
0
POLYLINE
8
0
66
1
70
1
40
0
41
0
0
VERTEX
8
0
10
-3.722700
20
7.526000
0
VERTEX
8
0
10
-3.722700
20
7.546000
0
VERTEX
8
0
10
-3.721054
20
7.562909
0
VERTEX
8
0
10
-3.716320
20
7.578547
0
VERTEX
8
0
10
-3.708799
20
7.592609
0
VERTEX
8
0
10
-3.698794
20
7.604794
0
VERTEX
8
0
10
-3.686609
20
7.614799
0
VERTEX
8
0
10
-3.672547
20
7.622320
0
VERTEX
8
0
10
-3.656909
20
7.627054
0
VERTEX
8
0
10
-3.640000
20
7.628700
0
VERTEX
8
0
10
-3.580000
20
7.628700
0
VERTEX
8
0
10
-3.563091
20
7.627054
0
VERTEX
8
0
10
-3.547453
20
7.622320
0
VERTEX
8
0
10
-3.533391
20
7.614799
0
VERTEX
8
0
10
-3.521206
20
7.604794
0
VERTEX
8
0
10
-3.511201
20
7.592609
0
VERTEX
8
0
10
-3.503680
20
7.578547
0
VERTEX
8
0
10
-3.498946
20
7.562909
0
VERTEX
8
0
10
-3.497300
20
7.546000
0
VERTEX
8
0
10
-3.497300
20
7.526000
0
VERTEX
8
0
10
-3.498946
20
7.509091
0
VERTEX
8
0
10
-3.503680
20
7.493453
0
VERTEX
8
0
10
-3.511201
20
7.479391
0
VERTEX
8
0
10
-3.521206
20
7.467206
0
VERTEX
8
0
10
-3.533391
20
7.457201
0
VERTEX
8
0
10
-3.547453
20
7.449680
0
VERTEX
8
0
10
-3.563091
20
7.444946
0
VERTEX
8
0
10
-3.580000
20
7.443300
0
VERTEX
8
0
10
-3.640000
20
7.443300
0
VERTEX
8
0
10
-3.656909
20
7.444946
0
VERTEX
8
0
10
-3.672547
20
7.449680
0
VERTEX
8
0
10
-3.686609
20
7.457201
0
VERTEX
8
0
10
-3.698794
20
7.467206
0
VERTEX
8
0
10
-3.708799
20
7.479391
0
VERTEX
8
0
10
-3.716320
20
7.493453
0
VERTEX
8
0
10
-3.721054
20
7.509091
0
VERTEX
8
0
10
-3.722700
20
7.526000
0
SEQEND
8
0
0
POLYLINE
8
0
66
1
70
1
40
0
41
0
0
VERTEX
8
0
10
-3.722700
20
7.272000
0
VERTEX
8
0
10
-3.722700
20
7.292000
0
VERTEX
8
0
10
-3.721054
20
7.308909
0
VERTEX
8
0
10
-3.716320
20
7.324547
0
VERTEX
8
0
10
-3.708799
20
7.338609
0
VERTEX
8
0
10
-3.698794
20
7.350794
0
VERTEX
8
0
10
-3.686609
20
7.360799
0
VERTEX
8
0
10
-3.672547
20
7.368320
0
VERTEX
8
0
10
-3.656909
20
7.373054
0
VERTEX
8
0
10
-3.640000
20
7.374700
0
VERTEX
8
0
10
-3.580000
20
7.374700
0
VERTEX
8
0
10
-3.563091
20
7.373054
0
VERTEX
8
0
10
-3.547453
20
7.368320
0
VERTEX
8
0
10
-3.533391
20
7.360799
0
VERTEX
8
0
10
-3.521206
20
7.350794
0
VERTEX
8
0
10
-3.511201
20
7.338609
0
VERTEX
8
0
10
-3.503680
20
7.324547
0
VERTEX
8
0
10
-3.498946
20
7.308909
0
VERTEX
8
0
10
-3.497300
20
7.292000
0
VERTEX
8
0
10
-3.497300
20
7.272000
0
VERTEX
8
0
10
-3.498946
20
7.255091
0
VERTEX
8
0
10
-3.503680
20
7.239453
0
VERTEX
8
0
10
-3.511201
20
7.225391
0
VERTEX
8
0
10
-3.521206
20
7.213206
0
VERTEX
8
0
10
-3.533391
20
7.203201
0
VERTEX
8
0
10
-3.547453
20
7.195680
0
VERTEX
8
0
10
-3.563091
20
7.190946
0
VERTEX
8
0
10
-3.580000
20
7.189300
0
VERTEX
8
0
10
-3.640000
20
7.189300
0
VERTEX
8
0
10
-3.656909
20
7.190946
0
VERTEX
8
0
10
-3.672547
20
7.195680
0
VERTEX
8
0
10
-3.686609
20
7.203201
0
VERTEX
8
0
10
-3.698794
20
7.213206
0
VERTEX
8
0
10
-3.708799
20
7.225391
0
VERTEX
8
0
10
-3.716320
20
7.239453
0
VERTEX
8
0
10
-3.721054
20
7.255091
0
VERTEX
8
0
10
-3.722700
20
7.272000
0
SEQEND
8
0
0
POLYLINE
8
0
66
1
70
1
40
0
41
0
0
VERTEX
8
0
10
-3.722700
20
7.018000
0
VERTEX
8
0
10
-3.722700
20
7.038000
0
VERTEX
8
0
10
-3.721054
20
7.054909
0
VERTEX
8
0
10
-3.716320
20
7.070547
0
VERTEX
8
0
10
-3.708799
20
7.084609
0
VERTEX
8
0
10
-3.698794
20
7.096794
0
VERTEX
8
0
10
-3.686609
20
7.106799
0
VERTEX
8
0
10
-3.672547
20
7.114320
0
VERTEX
8
0
10
-3.656909
20
7.119054
0
VERTEX
8
0
10
-3.640000
20
7.120700
0
VERTEX
8
0
10
-3.580000
20
7.120700
0
VERTEX
8
0
10
-3.563091
20
7.119054
0
VERTEX
8
0
10
-3.547453
20
7.114320
0
VERTEX
8
0
10
-3.533391
20
7.106799
0
VERTEX
8
0
10
-3.521206
20
7.096794
0
VERTEX
8
0
10
-3.511201
20
7.084609
0
VERTEX
8
0
10
-3.503680
20
7.070547
0
VERTEX
8
0
10
-3.498946
20
7.054909
0
VERTEX
8
0
10
-3.497300
20
7.038000
0
VERTEX
8
0
10
-3.497300
20
7.018000
0
VERTEX
8
0
10
-3.498946
20
7.001091
0
VERTEX
8
0
10
-3.503680
20
6.985453
0
VERTEX
8
0
10
-3.511201
20
6.971391
0
VERTEX
8
0
10
-3.521206
20
6.959206
0
VERTEX
8
0
10
-3.533391
20
6.949201
0
VERTEX
8
0
10
-3.547453
20
6.941680
0
VERTEX
8
0
10
-3.563091
20
6.936946
0
VERTEX
8
0
10
-3.580000
20
6.935300
0
VERTEX
8
0
10
-3.640000
20
6.935300
0
VERTEX
8
0
10
-3.656909
20
6.936946
0
VERTEX
8
0
10
-3.672547
20
6.941680
0
VERTEX
8
0
10
-3.686609
20
6.949201
0
VERTEX
8
0
10
-3.698794
20
6.959206
0
VERTEX
8
0
10
-3.708799
20
6.971391
0
VERTEX
8
0
10
-3.716320
20
6.985453
0
VERTEX
8
0
10
-3.721054
20
7.001091
0
VERTEX
8
0
10
-3.722700
20
7.018000
0
SEQEND
8
0
0
POLYLINE
8
0
66
1
70
1
40
0
41
0
0
VERTEX
8
0
10
-3.722700
20
6.764000
0
VERTEX
8
0
10
-3.722700
20
6.784000
0
VERTEX
8
0
10
-3.721054
20
6.800909
0
VERTEX
8
0
10
-3.716320
20
6.816547
0
VERTEX
8
0
10
-3.708799
20
6.830609
0
VERTEX
8
0
10
-3.698794
20
6.842794
0
VERTEX
8
0
10
-3.686609
20
6.852799
0
VERTEX
8
0
10
-3.672547
20
6.860320
0
VERTEX
8
0
10
-3.656909
20
6.865054
0
VERTEX
8
0
10
-3.640000
20
6.866700
0
VERTEX
8
0
10
-3.580000
20
6.866700
0
VERTEX
8
0
10
-3.563091
20
6.865054
0
VERTEX
8
0
10
-3.547453
20
6.860320
0
VERTEX
8
0
10
-3.533391
20
6.852799
0
VERTEX
8
0
10
-3.521206
20
6.842794
0
VERTEX
8
0
10
-3.511201
20
6.830609
0
VERTEX
8
0
10
-3.503680
20
6.816547
0
VERTEX
8
0
10
-3.498946
20
6.800909
0
VERTEX
8
0
10
-3.497300
20
6.784000
0
VERTEX
8
0
10
-3.497300
20
6.764000
0
VERTEX
8
0
10
-3.498946
20
6.747091
0
VERTEX
8
0
10
-3.503680
20
6.731453
0
VERTEX
8
0
10
-3.511201
20
6.717391
0
VERTEX
8
0
10
-3.521206
20
6.705206
0
VERTEX
8
0
10
-3.533391
20
6.695201
0
VERTEX
8
0
10
-3.547453
20
6.687680
0
VERTEX
8
0
10
-3.563091
20
6.682946
0
VERTEX
8
0
10
-3.580000
20
6.681300
0
VERTEX
8
0
10
-3.640000
20
6.681300
0
VERTEX
8
0
10
-3.656909
20
6.682946
0
VERTEX
8
0
10
-3.672547
20
6.687680
0
VERTEX
8
0
10
-3.686609
20
6.695201
0
VERTEX
8
0
10
-3.698794
20
6.705206
0
VERTEX
8
0
10
-3.708799
20
6.717391
0
VERTEX
8
0
10
-3.716320
20
6.731453
0
VERTEX
8
0
10
-3.721054
20
6.747091
0
VERTEX
8
0
10
-3.722700
20
6.764000
0
SEQEND
8
0
0
POLYLINE
8
0
66
1
70
1
40
0
41
0
0
VERTEX
8
0
10
-3.722700
20
6.510000
0
VERTEX
8
0
10
-3.722700
20
6.530000
0
VERTEX
8
0
10
-3.721054
20
6.546909
0
VERTEX
8
0
10
-3.716320
20
6.562547
0
VERTEX
8
0
10
-3.708799
20
6.576609
0
VERTEX
8
0
10
-3.698794
20
6.588794
0
VERTEX
8
0
10
-3.686609
20
6.598799
0
VERTEX
8
0
10
-3.672547
20
6.606320
0
VERTEX
8
0
10
-3.656909
20
6.611054
0
VERTEX
8
0
10
-3.640000
20
6.612700
0
VERTEX
8
0
10
-3.580000
20
6.612700
0
VERTEX
8
0
10
-3.563091
20
6.611054
0
VERTEX
8
0
10
-3.547453
20
6.606320
0
VERTEX
8
0
10
-3.533391
20
6.598799
0
VERTEX
8
0
10
-3.521206
20
6.588794
0
VERTEX
8
0
10
-3.511201
20
6.576609
0
VERTEX
8
0
10
-3.503680
20
6.562547
0
VERTEX
8
0
10
-3.498946
20
6.546909
0
VERTEX
8
0
10
-3.497300
20
6.530000
0
VERTEX
8
0
10
-3.497300
20
6.510000
0
VERTEX
8
0
10
-3.498946
20
6.493091
0
VERTEX
8
0
10
-3.503680
20
6.477453
0
VERTEX
8
0
10
-3.511201
20
6.463391
0
VERTEX
8
0
10
-3.521206
20
6.451206
0
VERTEX
8
0
10
-3.533391
20
6.441201
0
VERTEX
8
0
10
-3.547453
20
6.433680
0
VERTEX
8
0
10
-3.563091
20
6.428946
0
VERTEX
8
0
10
-3.580000
20
6.427300
0
VERTEX
8
0
10
-3.640000
20
6.427300
0
VERTEX
8
0
10
-3.656909
20
6.428946
0
VERTEX
8
0
10
-3.672547
20
6.433680
0
VERTEX
8
0
10
-3.686609
20
6.441201
0
VERTEX
8
0
10
-3.698794
20
6.451206
0
VERTEX
8
0
10
-3.708799
20
6.463391
0
VERTEX
8
0
10
-3.716320
20
6.477453
0
VERTEX
8
0
10
-3.721054
20
6.493091
0
VERTEX
8
0
10
-3.722700
20
6.510000
0
SEQEND
8
0
0
POLYLINE
8
0
66
1
70
1
40
0
41
0
0
VERTEX
8
0
10
-3.722700
20
6.256000
0
VERTEX
8
0
10
-3.722700
20
6.276000
0
VERTEX
8
0
10
-3.721054
20
6.292909
0
VERTEX
8
0
10
-3.716320
20
6.308547
0
VERTEX
8
0
10
-3.708799
20
6.322609
0
VERTEX
8
0
10
-3.698794
20
6.334794
0
VERTEX
8
0
10
-3.686609
20
6.344799
0
VERTEX
8
0
10
-3.672547
20
6.352320
0
VERTEX
8
0
10
-3.656909
20
6.357054
0
VERTEX
8
0
10
-3.640000
20
6.358700
0
VERTEX
8
0
10
-3.580000
20
6.358700
0
VERTEX
8
0
10
-3.563091
20
6.357054
0
VERTEX
8
0
10
-3.547453
20
6.352320
0
VERTEX
8
0
10
-3.533391
20
6.344799
0
VERTEX
8
0
10
-3.521206
20
6.334794
0
VERTEX
8
0
10
-3.511201
20
6.322609
0
VERTEX
8
0
10
-3.503680
20
6.308547
0
VERTEX
8
0
10
-3.498946
20
6.292909
0
VERTEX
8
0
10
-3.497300
20
6.276000
0
VERTEX
8
0
10
-3.497300
20
6.256000
0
VERTEX
8
0
10
-3.498946
20
6.239091
0
VERTEX
8
0
10
-3.503680
20
6.223453
0
VERTEX
8
0
10
-3.511201
20
6.209391
0
VERTEX
8
0
10
-3.521206
20
6.197206
0
VERTEX
8
0
10
-3.533391
20
6.187201
0
VERTEX
8
0
10
-3.547453
20
6.179680
0
VERTEX
8
0
10
-3.563091
20
6.174946
0
VERTEX
8
0
10
-3.580000
20
6.173300
0
VERTEX
8
0
10
-3.640000
20
6.173300
0
VERTEX
8
0
10
-3.656909
20
6.174946
0
VERTEX
8
0
10
-3.672547
20
6.179680
0
VERTEX
8
0
10
-3.686609
20
6.187201
0
VERTEX
8
0
10
-3.698794
20
6.197206
0
VERTEX
8
0
10
-3.708799
20
6.209391
0
VERTEX
8
0
10
-3.716320
20
6.223453
0
VERTEX
8
0
10
-3.721054
20
6.239091
0
VERTEX
8
0
10
-3.722700
20
6.256000
0
SEQEND
8
0
0
POLYLINE
8
0
66
1
70
1
40
0
41
0
0
VERTEX
8
0
10
-3.722700
20
5.856000
0
VERTEX
8
0
10
-3.722700
20
5.876000
0
VERTEX
8
0
10
-3.721054
20
5.892909
0
VERTEX
8
0
10
-3.716320
20
5.908547
0
VERTEX
8
0
10
-3.708799
20
5.922609
0
VERTEX
8
0
10
-3.698794
20
5.934794
0
VERTEX
8
0
10
-3.686609
20
5.944799
0
VERTEX
8
0
10
-3.672547
20
5.952320
0
VERTEX
8
0
10
-3.656909
20
5.957054
0
VERTEX
8
0
10
-3.640000
20
5.958700
0
VERTEX
8
0
10
-3.580000
20
5.958700
0
VERTEX
8
0
10
-3.563091
20
5.957054
0
VERTEX
8
0
10
-3.547453
20
5.952320
0
VERTEX
8
0
10
-3.533391
20
5.944799
0
VERTEX
8
0
10
-3.521206
20
5.934794
0
VERTEX
8
0
10
-3.511201
20
5.922609
0
VERTEX
8
0
10
-3.503680
20
5.908547
0
VERTEX
8
0
10
-3.498946
20
5.892909
0
VERTEX
8
0
10
-3.497300
20
5.876000
0
VERTEX
8
0
10
-3.497300
20
5.856000
0
VERTEX
8
0
10
-3.498946
20
5.839091
0
VERTEX
8
0
10
-3.503680
20
5.823453
0
VERTEX
8
0
10
-3.511201
20
5.809391
0
VERTEX
8
0
10
-3.521206
20
5.797206
0
VERTEX
8
0
10
-3.533391
20
5.787201
0
VERTEX
8
0
10
-3.547453
20
5.779680
0
VERTEX
8
0
10
-3.563091
20
5.774946
0
VERTEX
8
0
10
-3.580000
20
5.773300
0
VERTEX
8
0
10
-3.640000
20
5.773300
0
VERTEX
8
0
10
-3.656909
20
5.774946
0
VERTEX
8
0
10
-3.672547
20
5.779680
0
VERTEX
8
0
10
-3.686609
20
5.787201
0
VERTEX
8
0
10
-3.698794
20
5.797206
0
VERTEX
8
0
10
-3.708799
20
5.809391
0
VERTEX
8
0
10
-3.716320
20
5.823453
0
VERTEX
8
0
10
-3.721054
20
5.839091
0
VERTEX
8
0
10
-3.722700
20
5.856000
0
SEQEND
8
0
0
POLYLINE
8
0
66
1
70
1
40
0
41
0
0
VERTEX
8
0
10
-3.722700
20
5.602000
0
VERTEX
8
0
10
-3.722700
20
5.622000
0
VERTEX
8
0
10
-3.721054
20
5.638909
0
VERTEX
8
0
10
-3.716320
20
5.654547
0
VERTEX
8
0
10
-3.708799
20
5.668609
0
VERTEX
8
0
10
-3.698794
20
5.680794
0
VERTEX
8
0
10
-3.686609
20
5.690799
0
VERTEX
8
0
10
-3.672547
20
5.698320
0
VERTEX
8
0
10
-3.656909
20
5.703054
0
VERTEX
8
0
10
-3.640000
20
5.704700
0
VERTEX
8
0
10
-3.580000
20
5.704700
0
VERTEX
8
0
10
-3.563091
20
5.703054
0
VERTEX
8
0
10
-3.547453
20
5.698320
0
VERTEX
8
0
10
-3.533391
20
5.690799
0
VERTEX
8
0
10
-3.521206
20
5.680794
0
VERTEX
8
0
10
-3.511201
20
5.668609
0
VERTEX
8
0
10
-3.503680
20
5.654547
0
VERTEX
8
0
10
-3.498946
20
5.638909
0
VERTEX
8
0
10
-3.497300
20
5.622000
0
VERTEX
8
0
10
-3.497300
20
5.602000
0
VERTEX
8
0
10
-3.498946
20
5.585091
0
VERTEX
8
0
10
-3.503680
20
5.569453
0
VERTEX
8
0
10
-3.511201
20
5.555391
0
VERTEX
8
0
10
-3.521206
20
5.543206
0
VERTEX
8
0
10
-3.533391
20
5.533201
0
VERTEX
8
0
10
-3.547453
20
5.525680
0
VERTEX
8
0
10
-3.563091
20
5.520946
0
VERTEX
8
0
10
-3.580000
20
5.519300
0
VERTEX
8
0
10
-3.640000
20
5.519300
0
VERTEX
8
0
10
-3.656909
20
5.520946
0
VERTEX
8
0
10
-3.672547
20
5.525680
0
VERTEX
8
0
10
-3.686609
20
5.533201
0
VERTEX
8
0
10
-3.698794
20
5.543206
0
VERTEX
8
0
10
-3.708799
20
5.555391
0
VERTEX
8
0
10
-3.716320
20
5.569453
0
VERTEX
8
0
10
-3.721054
20
5.585091
0
VERTEX
8
0
10
-3.722700
20
5.602000
0
SEQEND
8
0
0
POLYLINE
8
0
66
1
70
1
40
0
41
0
0
VERTEX
8
0
10
-3.722700
20
5.348000
0
VERTEX
8
0
10
-3.722700
20
5.368000
0
VERTEX
8
0
10
-3.721054
20
5.384909
0
VERTEX
8
0
10
-3.716320
20
5.400547
0
VERTEX
8
0
10
-3.708799
20
5.414609
0
VERTEX
8
0
10
-3.698794
20
5.426794
0
VERTEX
8
0
10
-3.686609
20
5.436799
0
VERTEX
8
0
10
-3.672547
20
5.444320
0
VERTEX
8
0
10
-3.656909
20
5.449054
0
VERTEX
8
0
10
-3.640000
20
5.450700
0
VERTEX
8
0
10
-3.580000
20
5.450700
0
VERTEX
8
0
10
-3.563091
20
5.449054
0
VERTEX
8
0
10
-3.547453
20
5.444320
0
VERTEX
8
0
10
-3.533391
20
5.436799
0
VERTEX
8
0
10
-3.521206
20
5.426794
0
VERTEX
8
0
10
-3.511201
20
5.414609
0
VERTEX
8
0
10
-3.503680
20
5.400547
0
VERTEX
8
0
10
-3.498946
20
5.384909
0
VERTEX
8
0
10
-3.497300
20
5.368000
0
VERTEX
8
0
10
-3.497300
20
5.348000
0
VERTEX
8
0
10
-3.498946
20
5.331091
0
VERTEX
8
0
10
-3.503680
20
5.315453
0
VERTEX
8
0
10
-3.511201
20
5.301391
0
VERTEX
8
0
10
-3.521206
20
5.289206
0
VERTEX
8
0
10
-3.533391
20
5.279201
0
VERTEX
8
0
10
-3.547453
20
5.271680
0
VERTEX
8
0
10
-3.563091
20
5.266946
0
VERTEX
8
0
10
-3.580000
20
5.265300
0
VERTEX
8
0
10
-3.640000
20
5.265300
0
VERTEX
8
0
10
-3.656909
20
5.266946
0
VERTEX
8
0
10
-3.672547
20
5.271680
0
VERTEX
8
0
10
-3.686609
20
5.279201
0
VERTEX
8
0
10
-3.698794
20
5.289206
0
VERTEX
8
0
10
-3.708799
20
5.301391
0
VERTEX
8
0
10
-3.716320
20
5.315453
0
VERTEX
8
0
10
-3.721054
20
5.331091
0
VERTEX
8
0
10
-3.722700
20
5.348000
0
SEQEND
8
0
0
POLYLINE
8
0
66
1
70
1
40
0
41
0
0
VERTEX
8
0
10
-3.722700
20
5.094000
0
VERTEX
8
0
10
-3.722700
20
5.114000
0
VERTEX
8
0
10
-3.721054
20
5.130909
0
VERTEX
8
0
10
-3.716320
20
5.146547
0
VERTEX
8
0
10
-3.708799
20
5.160609
0
VERTEX
8
0
10
-3.698794
20
5.172794
0
VERTEX
8
0
10
-3.686609
20
5.182799
0
VERTEX
8
0
10
-3.672547
20
5.190320
0
VERTEX
8
0
10
-3.656909
20
5.195054
0
VERTEX
8
0
10
-3.640000
20
5.196700
0
VERTEX
8
0
10
-3.580000
20
5.196700
0
VERTEX
8
0
10
-3.563091
20
5.195054
0
VERTEX
8
0
10
-3.547453
20
5.190320
0
VERTEX
8
0
10
-3.533391
20
5.182799
0
VERTEX
8
0
10
-3.521206
20
5.172794
0
VERTEX
8
0
10
-3.511201
20
5.160609
0
VERTEX
8
0
10
-3.503680
20
5.146547
0
VERTEX
8
0
10
-3.498946
20
5.130909
0
VERTEX
8
0
10
-3.497300
20
5.114000
0
VERTEX
8
0
10
-3.497300
20
5.094000
0
VERTEX
8
0
10
-3.498946
20
5.077091
0
VERTEX
8
0
10
-3.503680
20
5.061453
0
VERTEX
8
0
10
-3.511201
20
5.047391
0
VERTEX
8
0
10
-3.521206
20
5.035206
0
VERTEX
8
0
10
-3.533391
20
5.025201
0
VERTEX
8
0
10
-3.547453
20
5.017680
0
VERTEX
8
0
10
-3.563091
20
5.012946
0
VERTEX
8
0
10
-3.580000
20
5.011300
0
VERTEX
8
0
10
-3.640000
20
5.011300
0
VERTEX
8
0
10
-3.656909
20
5.012946
0
VERTEX
8
0
10
-3.672547
20
5.017680
0
VERTEX
8
0
10
-3.686609
20
5.025201
0
VERTEX
8
0
10
-3.698794
20
5.035206
0
VERTEX
8
0
10
-3.708799
20
5.047391
0
VERTEX
8
0
10
-3.716320
20
5.061453
0
VERTEX
8
0
10
-3.721054
20
5.077091
0
VERTEX
8
0
10
-3.722700
20
5.094000
0
SEQEND
8
0
0
POLYLINE
8
0
66
1
70
1
40
0
41
0
0
VERTEX
8
0
10
-3.722700
20
4.840000
0
VERTEX
8
0
10
-3.722700
20
4.860000
0
VERTEX
8
0
10
-3.721054
20
4.876909
0
VERTEX
8
0
10
-3.716320
20
4.892547
0
VERTEX
8
0
10
-3.708799
20
4.906609
0
VERTEX
8
0
10
-3.698794
20
4.918794
0
VERTEX
8
0
10
-3.686609
20
4.928799
0
VERTEX
8
0
10
-3.672547
20
4.936320
0
VERTEX
8
0
10
-3.656909
20
4.941054
0
VERTEX
8
0
10
-3.640000
20
4.942700
0
VERTEX
8
0
10
-3.580000
20
4.942700
0
VERTEX
8
0
10
-3.563091
20
4.941054
0
VERTEX
8
0
10
-3.547453
20
4.936320
0
VERTEX
8
0
10
-3.533391
20
4.928799
0
VERTEX
8
0
10
-3.521206
20
4.918794
0
VERTEX
8
0
10
-3.511201
20
4.906609
0
VERTEX
8
0
10
-3.503680
20
4.892547
0
VERTEX
8
0
10
-3.498946
20
4.876909
0
VERTEX
8
0
10
-3.497300
20
4.860000
0
VERTEX
8
0
10
-3.497300
20
4.840000
0
VERTEX
8
0
10
-3.498946
20
4.823091
0
VERTEX
8
0
10
-3.503680
20
4.807453
0
VERTEX
8
0
10
-3.511201
20
4.793391
0
VERTEX
8
0
10
-3.521206
20
4.781206
0
VERTEX
8
0
10
-3.533391
20
4.771201
0
VERTEX
8
0
10
-3.547453
20
4.763680
0
VERTEX
8
0
10
-3.563091
20
4.758946
0
VERTEX
8
0
10
-3.580000
20
4.757300
0
VERTEX
8
0
10
-3.640000
20
4.757300
0
VERTEX
8
0
10
-3.656909
20
4.758946
0
VERTEX
8
0
10
-3.672547
20
4.763680
0
VERTEX
8
0
10
-3.686609
20
4.771201
0
VERTEX
8
0
10
-3.698794
20
4.781206
0
VERTEX
8
0
10
-3.708799
20
4.793391
0
VERTEX
8
0
10
-3.716320
20
4.807453
0
VERTEX
8
0
10
-3.721054
20
4.823091
0
VERTEX
8
0
10
-3.722700
20
4.840000
0
SEQEND
8
0
0
POLYLINE
8
0
66
1
70
1
40
0
41
0
0
VERTEX
8
0
10
-3.722700
20
4.586000
0
VERTEX
8
0
10
-3.722700
20
4.606000
0
VERTEX
8
0
10
-3.721054
20
4.622909
0
VERTEX
8
0
10
-3.716320
20
4.638547
0
VERTEX
8
0
10
-3.708799
20
4.652609
0
VERTEX
8
0
10
-3.698794
20
4.664794
0
VERTEX
8
0
10
-3.686609
20
4.674799
0
VERTEX
8
0
10
-3.672547
20
4.682320
0
VERTEX
8
0
10
-3.656909
20
4.687054
0
VERTEX
8
0
10
-3.640000
20
4.688700
0
VERTEX
8
0
10
-3.580000
20
4.688700
0
VERTEX
8
0
10
-3.563091
20
4.687054
0
VERTEX
8
0
10
-3.547453
20
4.682320
0
VERTEX
8
0
10
-3.533391
20
4.674799
0
VERTEX
8
0
10
-3.521206
20
4.664794
0
VERTEX
8
0
10
-3.511201
20
4.652609
0
VERTEX
8
0
10
-3.503680
20
4.638547
0
VERTEX
8
0
10
-3.498946
20
4.622909
0
VERTEX
8
0
10
-3.497300
20
4.606000
0
VERTEX
8
0
10
-3.497300
20
4.586000
0
VERTEX
8
0
10
-3.498946
20
4.569091
0
VERTEX
8
0
10
-3.503680
20
4.553453
0
VERTEX
8
0
10
-3.511201
20
4.539391
0
VERTEX
8
0
10
-3.521206
20
4.527206
0
VERTEX
8
0
10
-3.533391
20
4.517201
0
VERTEX
8
0
10
-3.547453
20
4.509680
0
VERTEX
8
0
10
-3.563091
20
4.504946
0
VERTEX
8
0
10
-3.580000
20
4.503300
0
VERTEX
8
0
10
-3.640000
20
4.503300
0
VERTEX
8
0
10
-3.656909
20
4.504946
0
VERTEX
8
0
10
-3.672547
20
4.509680
0
VERTEX
8
0
10
-3.686609
20
4.517201
0
VERTEX
8
0
10
-3.698794
20
4.527206
0
VERTEX
8
0
10
-3.708799
20
4.539391
0
VERTEX
8
0
10
-3.716320
20
4.553453
0
VERTEX
8
0
10
-3.721054
20
4.569091
0
VERTEX
8
0
10
-3.722700
20
4.586000
0
SEQEND
8
0
0
POLYLINE
8
0
66
1
70
1
40
0
41
0
0
VERTEX
8
0
10
-3.722700
20
4.332000
0
VERTEX
8
0
10
-3.722700
20
4.352000
0
VERTEX
8
0
10
-3.721054
20
4.368909
0
VERTEX
8
0
10
-3.716320
20
4.384547
0
VERTEX
8
0
10
-3.708799
20
4.398609
0
VERTEX
8
0
10
-3.698794
20
4.410794
0
VERTEX
8
0
10
-3.686609
20
4.420799
0
VERTEX
8
0
10
-3.672547
20
4.428320
0
VERTEX
8
0
10
-3.656909
20
4.433054
0
VERTEX
8
0
10
-3.640000
20
4.434700
0
VERTEX
8
0
10
-3.580000
20
4.434700
0
VERTEX
8
0
10
-3.563091
20
4.433054
0
VERTEX
8
0
10
-3.547453
20
4.428320
0
VERTEX
8
0
10
-3.533391
20
4.420799
0
VERTEX
8
0
10
-3.521206
20
4.410794
0
VERTEX
8
0
10
-3.511201
20
4.398609
0
VERTEX
8
0
10
-3.503680
20
4.384547
0
VERTEX
8
0
10
-3.498946
20
4.368909
0
VERTEX
8
0
10
-3.497300
20
4.352000
0
VERTEX
8
0
10
-3.497300
20
4.332000
0
VERTEX
8
0
10
-3.498946
20
4.315091
0
VERTEX
8
0
10
-3.503680
20
4.299453
0
VERTEX
8
0
10
-3.511201
20
4.285391
0
VERTEX
8
0
10
-3.521206
20
4.273206
0
VERTEX
8
0
10
-3.533391
20
4.263201
0
VERTEX
8
0
10
-3.547453
20
4.255680
0
VERTEX
8
0
10
-3.563091
20
4.250946
0
VERTEX
8
0
10
-3.580000
20
4.249300
0
VERTEX
8
0
10
-3.640000
20
4.249300
0
VERTEX
8
0
10
-3.656909
20
4.250946
0
VERTEX
8
0
10
-3.672547
20
4.255680
0
VERTEX
8
0
10
-3.686609
20
4.263201
0
VERTEX
8
0
10
-3.698794
20
4.273206
0
VERTEX
8
0
10
-3.708799
20
4.285391
0
VERTEX
8
0
10
-3.716320
20
4.299453
0
VERTEX
8
0
10
-3.721054
20
4.315091
0
VERTEX
8
0
10
-3.722700
20
4.332000
0
SEQEND
8
0
0
POLYLINE
8
0
66
1
70
1
40
0
41
0
0
VERTEX
8
0
10
-3.722700
20
4.078000
0
VERTEX
8
0
10
-3.722700
20
4.098000
0
VERTEX
8
0
10
-3.721054
20
4.114909
0
VERTEX
8
0
10
-3.716320
20
4.130547
0
VERTEX
8
0
10
-3.708799
20
4.144609
0
VERTEX
8
0
10
-3.698794
20
4.156794
0
VERTEX
8
0
10
-3.686609
20
4.166799
0
VERTEX
8
0
10
-3.672547
20
4.174320
0
VERTEX
8
0
10
-3.656909
20
4.179054
0
VERTEX
8
0
10
-3.640000
20
4.180700
0
VERTEX
8
0
10
-3.580000
20
4.180700
0
VERTEX
8
0
10
-3.563091
20
4.179054
0
VERTEX
8
0
10
-3.547453
20
4.174320
0
VERTEX
8
0
10
-3.533391
20
4.166799
0
VERTEX
8
0
10
-3.521206
20
4.156794
0
VERTEX
8
0
10
-3.511201
20
4.144609
0
VERTEX
8
0
10
-3.503680
20
4.130547
0
VERTEX
8
0
10
-3.498946
20
4.114909
0
VERTEX
8
0
10
-3.497300
20
4.098000
0
VERTEX
8
0
10
-3.497300
20
4.078000
0
VERTEX
8
0
10
-3.498946
20
4.061091
0
VERTEX
8
0
10
-3.503680
20
4.045453
0
VERTEX
8
0
10
-3.511201
20
4.031391
0
VERTEX
8
0
10
-3.521206
20
4.019206
0
VERTEX
8
0
10
-3.533391
20
4.009201
0
VERTEX
8
0
10
-3.547453
20
4.001680
0
VERTEX
8
0
10
-3.563091
20
3.996946
0
VERTEX
8
0
10
-3.580000
20
3.995300
0
VERTEX
8
0
10
-3.640000
20
3.995300
0
VERTEX
8
0
10
-3.656909
20
3.996946
0
VERTEX
8
0
10
-3.672547
20
4.001680
0
VERTEX
8
0
10
-3.686609
20
4.009201
0
VERTEX
8
0
10
-3.698794
20
4.019206
0
VERTEX
8
0
10
-3.708799
20
4.031391
0
VERTEX
8
0
10
-3.716320
20
4.045453
0
VERTEX
8
0
10
-3.721054
20
4.061091
0
VERTEX
8
0
10
-3.722700
20
4.078000
0
SEQEND
8
0
0
INSERT
8
0
2
EPAD
10
-4.700000
20
5.256000
41
0.330200
42
0.330200
0
INSERT
8
0
2
EPAD
10
-4.700000
20
5.764000
41
0.330200
42
0.330200
0
INSERT
8
0
2
EPAD
10
-4.700000
20
6.272000
41
0.330200
42
0.330200
0
INSERT
8
0
2
EPAD
10
-4.700000
20
6.780000
41
0.330200
42
0.330200
0
INSERT
8
0
2
EPAD
10
-4.700000
20
7.288000
41
0.330200
42
0.330200
0
INSERT
8
0
2
EPAD
10
-4.710000
20
4.744000
41
0.330200
42
0.330200
0
INSERT
8
0
2
EPAD
10
-4.710000
20
4.243620
41
0.330200
42
0.330200
0
INSERT
8
0
2
EPAD
10
-4.710000
20
7.800000
41
0.330200
42
0.330200
0
INSERT
8
0
2
EPAD
10
-4.710000
20
8.300380
41
0.330200
42
0.330200
0
INSERT
8
0
2
EPAD
10
-4.710000
20
3.220000
41
0.330200
42
0.330200
0
INSERT
8
0
2
EPAD
10
-4.710000
20
3.720380
41
0.330200
42
0.330200
0
INSERT
8
0
2
EPAD
10
-3.326000
20
4.870000
41
0.203200
42
0.203200
0
INSERT
8
0
2
EPAD
10
-2.310000
20
4.870000
41
0.203200
42
0.203200
0
POLYLINE
8
0
66
1
70
1
40
0
41
0
0
VERTEX
8
0
10
-1.871600
20
5.694300
0
VERTEX
8
0
10
-1.668400
20
5.694300
0
VERTEX
8
0
10
-1.665803
20
5.694047
0
VERTEX
8
0
10
-1.663402
20
5.693320
0
VERTEX
8
0
10
-1.661242
20
5.692165
0
VERTEX
8
0
10
-1.659371
20
5.690629
0
VERTEX
8
0
10
-1.657835
20
5.688757
0
VERTEX
8
0
10
-1.656680
20
5.686598
0
VERTEX
8
0
10
-1.655953
20
5.684197
0
VERTEX
8
0
10
-1.655700
20
5.681600
0
VERTEX
8
0
10
-1.655700
20
5.478400
0
VERTEX
8
0
10
-1.655953
20
5.475803
0
VERTEX
8
0
10
-1.656680
20
5.473402
0
VERTEX
8
0
10
-1.657835
20
5.471243
0
VERTEX
8
0
10
-1.659371
20
5.469371
0
VERTEX
8
0
10
-1.661242
20
5.467835
0
VERTEX
8
0
10
-1.663402
20
5.466680
0
VERTEX
8
0
10
-1.665803
20
5.465953
0
VERTEX
8
0
10
-1.668400
20
5.465700
0
VERTEX
8
0
10
-1.871600
20
5.465700
0
VERTEX
8
0
10
-1.874197
20
5.465953
0
VERTEX
8
0
10
-1.876598
20
5.466680
0
VERTEX
8
0
10
-1.878758
20
5.467835
0
VERTEX
8
0
10
-1.880629
20
5.469371
0
VERTEX
8
0
10
-1.882165
20
5.471243
0
VERTEX
8
0
10
-1.883320
20
5.473402
0
VERTEX
8
0
10
-1.884047
20
5.475803
0
VERTEX
8
0
10
-1.884300
20
5.478400
0
VERTEX
8
0
10
-1.884300
20
5.681600
0
VERTEX
8
0
10
-1.884047
20
5.684197
0
VERTEX
8
0
10
-1.883320
20
5.686598
0
VERTEX
8
0
10
-1.882165
20
5.688757
0
VERTEX
8
0
10
-1.880629
20
5.690629
0
VERTEX
8
0
10
-1.878758
20
5.692165
0
VERTEX
8
0
10
-1.876598
20
5.693320
0
VERTEX
8
0
10
-1.874197
20
5.694047
0
VERTEX
8
0
10
-1.871600
20
5.694300
0
SEQEND
8
0
0
POLYLINE
8
0
66
1
70
1
40
0
41
0
0
VERTEX
8
0
10
-1.617600
20
5.694300
0
VERTEX
8
0
10
-1.414400
20
5.694300
0
VERTEX
8
0
10
-1.411803
20
5.694047
0
VERTEX
8
0
10
-1.409402
20
5.693320
0
VERTEX
8
0
10
-1.407242
20
5.692165
0
VERTEX
8
0
10
-1.405371
20
5.690629
0
VERTEX
8
0
10
-1.403835
20
5.688757
0
VERTEX
8
0
10
-1.402680
20
5.686598
0
VERTEX
8
0
10
-1.401953
20
5.684197
0
VERTEX
8
0
10
-1.401700
20
5.681600
0
VERTEX
8
0
10
-1.401700
20
5.478400
0
VERTEX
8
0
10
-1.401953
20
5.475803
0
VERTEX
8
0
10
-1.402680
20
5.473402
0
VERTEX
8
0
10
-1.403835
20
5.471243
0
VERTEX
8
0
10
-1.405371
20
5.469371
0
VERTEX
8
0
10
-1.407242
20
5.467835
0
VERTEX
8
0
10
-1.409402
20
5.466680
0
VERTEX
8
0
10
-1.411803
20
5.465953
0
VERTEX
8
0
10
-1.414400
20
5.465700
0
VERTEX
8
0
10
-1.617600
20
5.465700
0
VERTEX
8
0
10
-1.620197
20
5.465953
0
VERTEX
8
0
10
-1.622598
20
5.466680
0
VERTEX
8
0
10
-1.624758
20
5.467835
0
VERTEX
8
0
10
-1.626629
20
5.469371
0
VERTEX
8
0
10
-1.628165
20
5.471243
0
VERTEX
8
0
10
-1.629320
20
5.473402
0
VERTEX
8
0
10
-1.630047
20
5.475803
0
VERTEX
8
0
10
-1.630300
20
5.478400
0
VERTEX
8
0
10
-1.630300
20
5.681600
0
VERTEX
8
0
10
-1.630047
20
5.684197
0
VERTEX
8
0
10
-1.629320
20
5.686598
0
VERTEX
8
0
10
-1.628165
20
5.688757
0
VERTEX
8
0
10
-1.626629
20
5.690629
0
VERTEX
8
0
10
-1.624758
20
5.692165
0
VERTEX
8
0
10
-1.622598
20
5.693320
0
VERTEX
8
0
10
-1.620197
20
5.694047
0
VERTEX
8
0
10
-1.617600
20
5.694300
0
SEQEND
8
0
0
POLYLINE
8
0
66
1
70
1
40
0
41
0
0
VERTEX
8
0
10
-1.363600
20
5.694300
0
VERTEX
8
0
10
-1.160400
20
5.694300
0
VERTEX
8
0
10
-1.157803
20
5.694047
0
VERTEX
8
0
10
-1.155402
20
5.693320
0
VERTEX
8
0
10
-1.153242
20
5.692165
0
VERTEX
8
0
10
-1.151371
20
5.690629
0
VERTEX
8
0
10
-1.149835
20
5.688757
0
VERTEX
8
0
10
-1.148680
20
5.686598
0
VERTEX
8
0
10
-1.147953
20
5.684197
0
VERTEX
8
0
10
-1.147700
20
5.681600
0
VERTEX
8
0
10
-1.147700
20
5.478400
0
VERTEX
8
0
10
-1.147953
20
5.475803
0
VERTEX
8
0
10
-1.148680
20
5.473402
0
VERTEX
8
0
10
-1.149835
20
5.471243
0
VERTEX
8
0
10
-1.151371
20
5.469371
0
VERTEX
8
0
10
-1.153242
20
5.467835
0
VERTEX
8
0
10
-1.155402
20
5.466680
0
VERTEX
8
0
10
-1.157803
20
5.465953
0
VERTEX
8
0
10
-1.160400
20
5.465700
0
VERTEX
8
0
10
-1.363600
20
5.465700
0
VERTEX
8
0
10
-1.366197
20
5.465953
0
VERTEX
8
0
10
-1.368598
20
5.466680
0
VERTEX
8
0
10
-1.370758
20
5.467835
0
VERTEX
8
0
10
-1.372629
20
5.469371
0
VERTEX
8
0
10
-1.374165
20
5.471243
0
VERTEX
8
0
10
-1.375320
20
5.473402
0
VERTEX
8
0
10
-1.376047
20
5.475803
0
VERTEX
8
0
10
-1.376300
20
5.478400
0
VERTEX
8
0
10
-1.376300
20
5.681600
0
VERTEX
8
0
10
-1.376047
20
5.684197
0
VERTEX
8
0
10
-1.375320
20
5.686598
0
VERTEX
8
0
10
-1.374165
20
5.688757
0
VERTEX
8
0
10
-1.372629
20
5.690629
0
VERTEX
8
0
10
-1.370758
20
5.692165
0
VERTEX
8
0
10
-1.368598
20
5.693320
0
VERTEX
8
0
10
-1.366197
20
5.694047
0
VERTEX
8
0
10
-1.363600
20
5.694300
0
SEQEND
8
0
0
POLYLINE
8
0
66
1
70
1
40
0
41
0
0
VERTEX
8
0
10
-0.601600
20
5.694300
0
VERTEX
8
0
10
-0.398400
20
5.694300
0
VERTEX
8
0
10
-0.395803
20
5.694047
0
VERTEX
8
0
10
-0.393402
20
5.693320
0
VERTEX
8
0
10
-0.391242
20
5.692165
0
VERTEX
8
0
10
-0.389371
20
5.690629
0
VERTEX
8
0
10
-0.387835
20
5.688757
0
VERTEX
8
0
10
-0.386680
20
5.686598
0
VERTEX
8
0
10
-0.385953
20
5.684197
0
VERTEX
8
0
10
-0.385700
20
5.681600
0
VERTEX
8
0
10
-0.385700
20
5.478400
0
VERTEX
8
0
10
-0.385953
20
5.475803
0
VERTEX
8
0
10
-0.386680
20
5.473402
0
VERTEX
8
0
10
-0.387835
20
5.471243
0
VERTEX
8
0
10
-0.389371
20
5.469371
0
VERTEX
8
0
10
-0.391242
20
5.467835
0
VERTEX
8
0
10
-0.393402
20
5.466680
0
VERTEX
8
0
10
-0.395803
20
5.465953
0
VERTEX
8
0
10
-0.398400
20
5.465700
0
VERTEX
8
0
10
-0.601600
20
5.465700
0
VERTEX
8
0
10
-0.604197
20
5.465953
0
VERTEX
8
0
10
-0.606598
20
5.466680
0
VERTEX
8
0
10
-0.608758
20
5.467835
0
VERTEX
8
0
10
-0.610629
20
5.469371
0
VERTEX
8
0
10
-0.612165
20
5.471243
0
VERTEX
8
0
10
-0.613320
20
5.473402
0
VERTEX
8
0
10
-0.614047
20
5.475803
0
VERTEX
8
0
10
-0.614300
20
5.478400
0
VERTEX
8
0
10
-0.614300
20
5.681600
0
VERTEX
8
0
10
-0.614047
20
5.684197
0
VERTEX
8
0
10
-0.613320
20
5.686598
0
VERTEX
8
0
10
-0.612165
20
5.688757
0
VERTEX
8
0
10
-0.610629
20
5.690629
0
VERTEX
8
0
10
-0.608758
20
5.692165
0
VERTEX
8
0
10
-0.606598
20
5.693320
0
VERTEX
8
0
10
-0.604197
20
5.694047
0
VERTEX
8
0
10
-0.601600
20
5.694300
0
SEQEND
8
0
0
POLYLINE
8
0
66
1
70
1
40
0
41
0
0
VERTEX
8
0
10
-0.347600
20
5.694300
0
VERTEX
8
0
10
-0.144400
20
5.694300
0
VERTEX
8
0
10
-0.141803
20
5.694047
0
VERTEX
8
0
10
-0.139402
20
5.693320
0
VERTEX
8
0
10
-0.137242
20
5.692165
0
VERTEX
8
0
10
-0.135371
20
5.690629
0
VERTEX
8
0
10
-0.133835
20
5.688757
0
VERTEX
8
0
10
-0.132680
20
5.686598
0
VERTEX
8
0
10
-0.131953
20
5.684197
0
VERTEX
8
0
10
-0.131700
20
5.681600
0
VERTEX
8
0
10
-0.131700
20
5.478400
0
VERTEX
8
0
10
-0.131953
20
5.475803
0
VERTEX
8
0
10
-0.132680
20
5.473402
0
VERTEX
8
0
10
-0.133835
20
5.471243
0
VERTEX
8
0
10
-0.135371
20
5.469371
0
VERTEX
8
0
10
-0.137242
20
5.467835
0
VERTEX
8
0
10
-0.139402
20
5.466680
0
VERTEX
8
0
10
-0.141803
20
5.465953
0
VERTEX
8
0
10
-0.144400
20
5.465700
0
VERTEX
8
0
10
-0.347600
20
5.465700
0
VERTEX
8
0
10
-0.350197
20
5.465953
0
VERTEX
8
0
10
-0.352598
20
5.466680
0
VERTEX
8
0
10
-0.354758
20
5.467835
0
VERTEX
8
0
10
-0.356629
20
5.469371
0
VERTEX
8
0
10
-0.358165
20
5.471243
0
VERTEX
8
0
10
-0.359320
20
5.473402
0
VERTEX
8
0
10
-0.360047
20
5.475803
0
VERTEX
8
0
10
-0.360300
20
5.478400
0
VERTEX
8
0
10
-0.360300
20
5.681600
0
VERTEX
8
0
10
-0.360047
20
5.684197
0
VERTEX
8
0
10
-0.359320
20
5.686598
0
VERTEX
8
0
10
-0.358165
20
5.688757
0
VERTEX
8
0
10
-0.356629
20
5.690629
0
VERTEX
8
0
10
-0.354758
20
5.692165
0
VERTEX
8
0
10
-0.352598
20
5.693320
0
VERTEX
8
0
10
-0.350197
20
5.694047
0
VERTEX
8
0
10
-0.347600
20
5.694300
0
SEQEND
8
0
0
POLYLINE
8
0
66
1
70
1
40
0
41
0
0
VERTEX
8
0
10
-0.611600
20
7.494300
0
VERTEX
8
0
10
-0.408400
20
7.494300
0
VERTEX
8
0
10
-0.405803
20
7.494047
0
VERTEX
8
0
10
-0.403402
20
7.493320
0
VERTEX
8
0
10
-0.401242
20
7.492165
0
VERTEX
8
0
10
-0.399371
20
7.490629
0
VERTEX
8
0
10
-0.397835
20
7.488757
0
VERTEX
8
0
10
-0.396680
20
7.486598
0
VERTEX
8
0
10
-0.395953
20
7.484197
0
VERTEX
8
0
10
-0.395700
20
7.481600
0
VERTEX
8
0
10
-0.395700
20
7.278400
0
VERTEX
8
0
10
-0.395953
20
7.275803
0
VERTEX
8
0
10
-0.396680
20
7.273402
0
VERTEX
8
0
10
-0.397835
20
7.271243
0
VERTEX
8
0
10
-0.399371
20
7.269371
0
VERTEX
8
0
10
-0.401242
20
7.267835
0
VERTEX
8
0
10
-0.403402
20
7.266680
0
VERTEX
8
0
10
-0.405803
20
7.265953
0
VERTEX
8
0
10
-0.408400
20
7.265700
0
VERTEX
8
0
10
-0.611600
20
7.265700
0
VERTEX
8
0
10
-0.614197
20
7.265953
0
VERTEX
8
0
10
-0.616598
20
7.266680
0
VERTEX
8
0
10
-0.618758
20
7.267835
0
VERTEX
8
0
10
-0.620629
20
7.269371
0
VERTEX
8
0
10
-0.622165
20
7.271243
0
VERTEX
8
0
10
-0.623320
20
7.273402
0
VERTEX
8
0
10
-0.624047
20
7.275803
0
VERTEX
8
0
10
-0.624300
20
7.278400
0
VERTEX
8
0
10
-0.624300
20
7.481600
0
VERTEX
8
0
10
-0.624047
20
7.484197
0
VERTEX
8
0
10
-0.623320
20
7.486598
0
VERTEX
8
0
10
-0.622165
20
7.488757
0
VERTEX
8
0
10
-0.620629
20
7.490629
0
VERTEX
8
0
10
-0.618758
20
7.492165
0
VERTEX
8
0
10
-0.616598
20
7.493320
0
VERTEX
8
0
10
-0.614197
20
7.494047
0
VERTEX
8
0
10
-0.611600
20
7.494300
0
SEQEND
8
0
0
POLYLINE
8
0
66
1
70
1
40
0
41
0
0
VERTEX
8
0
10
-0.357600
20
7.494300
0
VERTEX
8
0
10
-0.154400
20
7.494300
0
VERTEX
8
0
10
-0.151803
20
7.494047
0
VERTEX
8
0
10
-0.149402
20
7.493320
0
VERTEX
8
0
10
-0.147242
20
7.492165
0
VERTEX
8
0
10
-0.145371
20
7.490629
0
VERTEX
8
0
10
-0.143835
20
7.488757
0
VERTEX
8
0
10
-0.142680
20
7.486598
0
VERTEX
8
0
10
-0.141953
20
7.484197
0
VERTEX
8
0
10
-0.141700
20
7.481600
0
VERTEX
8
0
10
-0.141700
20
7.278400
0
VERTEX
8
0
10
-0.141953
20
7.275803
0
VERTEX
8
0
10
-0.142680
20
7.273402
0
VERTEX
8
0
10
-0.143835
20
7.271243
0
VERTEX
8
0
10
-0.145371
20
7.269371
0
VERTEX
8
0
10
-0.147242
20
7.267835
0
VERTEX
8
0
10
-0.149402
20
7.266680
0
VERTEX
8
0
10
-0.151803
20
7.265953
0
VERTEX
8
0
10
-0.154400
20
7.265700
0
VERTEX
8
0
10
-0.357600
20
7.265700
0
VERTEX
8
0
10
-0.360197
20
7.265953
0
VERTEX
8
0
10
-0.362598
20
7.266680
0
VERTEX
8
0
10
-0.364758
20
7.267835
0
VERTEX
8
0
10
-0.366629
20
7.269371
0
VERTEX
8
0
10
-0.368165
20
7.271243
0
VERTEX
8
0
10
-0.369320
20
7.273402
0
VERTEX
8
0
10
-0.370047
20
7.275803
0
VERTEX
8
0
10
-0.370300
20
7.278400
0
VERTEX
8
0
10
-0.370300
20
7.481600
0
VERTEX
8
0
10
-0.370047
20
7.484197
0
VERTEX
8
0
10
-0.369320
20
7.486598
0
VERTEX
8
0
10
-0.368165
20
7.488757
0
VERTEX
8
0
10
-0.366629
20
7.490629
0
VERTEX
8
0
10
-0.364758
20
7.492165
0
VERTEX
8
0
10
-0.362598
20
7.493320
0
VERTEX
8
0
10
-0.360197
20
7.494047
0
VERTEX
8
0
10
-0.357600
20
7.494300
0
SEQEND
8
0
0
POLYLINE
8
0
66
1
70
1
40
0
41
0
0
VERTEX
8
0
10
-1.871600
20
7.494300
0
VERTEX
8
0
10
-1.668400
20
7.494300
0
VERTEX
8
0
10
-1.665803
20
7.494047
0
VERTEX
8
0
10
-1.663402
20
7.493320
0
VERTEX
8
0
10
-1.661242
20
7.492165
0
VERTEX
8
0
10
-1.659371
20
7.490629
0
VERTEX
8
0
10
-1.657835
20
7.488757
0
VERTEX
8
0
10
-1.656680
20
7.486598
0
VERTEX
8
0
10
-1.655953
20
7.484197
0
VERTEX
8
0
10
-1.655700
20
7.481600
0
VERTEX
8
0
10
-1.655700
20
7.278400
0
VERTEX
8
0
10
-1.655953
20
7.275803
0
VERTEX
8
0
10
-1.656680
20
7.273402
0
VERTEX
8
0
10
-1.657835
20
7.271243
0
VERTEX
8
0
10
-1.659371
20
7.269371
0
VERTEX
8
0
10
-1.661242
20
7.267835
0
VERTEX
8
0
10
-1.663402
20
7.266680
0
VERTEX
8
0
10
-1.665803
20
7.265953
0
VERTEX
8
0
10
-1.668400
20
7.265700
0
VERTEX
8
0
10
-1.871600
20
7.265700
0
VERTEX
8
0
10
-1.874197
20
7.265953
0
VERTEX
8
0
10
-1.876598
20
7.266680
0
VERTEX
8
0
10
-1.878758
20
7.267835
0
VERTEX
8
0
10
-1.880629
20
7.269371
0
VERTEX
8
0
10
-1.882165
20
7.271243
0
VERTEX
8
0
10
-1.883320
20
7.273402
0
VERTEX
8
0
10
-1.884047
20
7.275803
0
VERTEX
8
0
10
-1.884300
20
7.278400
0
VERTEX
8
0
10
-1.884300
20
7.481600
0
VERTEX
8
0
10
-1.884047
20
7.484197
0
VERTEX
8
0
10
-1.883320
20
7.486598
0
VERTEX
8
0
10
-1.882165
20
7.488757
0
VERTEX
8
0
10
-1.880629
20
7.490629
0
VERTEX
8
0
10
-1.878758
20
7.492165
0
VERTEX
8
0
10
-1.876598
20
7.493320
0
VERTEX
8
0
10
-1.874197
20
7.494047
0
VERTEX
8
0
10
-1.871600
20
7.494300
0
SEQEND
8
0
0
POLYLINE
8
0
66
1
70
1
40
0
41
0
0
VERTEX
8
0
10
-1.617600
20
7.494300
0
VERTEX
8
0
10
-1.414400
20
7.494300
0
VERTEX
8
0
10
-1.411803
20
7.494047
0
VERTEX
8
0
10
-1.409402
20
7.493320
0
VERTEX
8
0
10
-1.407242
20
7.492165
0
VERTEX
8
0
10
-1.405371
20
7.490629
0
VERTEX
8
0
10
-1.403835
20
7.488757
0
VERTEX
8
0
10
-1.402680
20
7.486598
0
VERTEX
8
0
10
-1.401953
20
7.484197
0
VERTEX
8
0
10
-1.401700
20
7.481600
0
VERTEX
8
0
10
-1.401700
20
7.278400
0
VERTEX
8
0
10
-1.401953
20
7.275803
0
VERTEX
8
0
10
-1.402680
20
7.273402
0
VERTEX
8
0
10
-1.403835
20
7.271243
0
VERTEX
8
0
10
-1.405371
20
7.269371
0
VERTEX
8
0
10
-1.407242
20
7.267835
0
VERTEX
8
0
10
-1.409402
20
7.266680
0
VERTEX
8
0
10
-1.411803
20
7.265953
0
VERTEX
8
0
10
-1.414400
20
7.265700
0
VERTEX
8
0
10
-1.617600
20
7.265700
0
VERTEX
8
0
10
-1.620197
20
7.265953
0
VERTEX
8
0
10
-1.622598
20
7.266680
0
VERTEX
8
0
10
-1.624758
20
7.267835
0
VERTEX
8
0
10
-1.626629
20
7.269371
0
VERTEX
8
0
10
-1.628165
20
7.271243
0
VERTEX
8
0
10
-1.629320
20
7.273402
0
VERTEX
8
0
10
-1.630047
20
7.275803
0
VERTEX
8
0
10
-1.630300
20
7.278400
0
VERTEX
8
0
10
-1.630300
20
7.481600
0
VERTEX
8
0
10
-1.630047
20
7.484197
0
VERTEX
8
0
10
-1.629320
20
7.486598
0
VERTEX
8
0
10
-1.628165
20
7.488757
0
VERTEX
8
0
10
-1.626629
20
7.490629
0
VERTEX
8
0
10
-1.624758
20
7.492165
0
VERTEX
8
0
10
-1.622598
20
7.493320
0
VERTEX
8
0
10
-1.620197
20
7.494047
0
VERTEX
8
0
10
-1.617600
20
7.494300
0
SEQEND
8
0
0
INSERT
8
0
2
EPAD
10
2.110000
20
7.410000
41
0.330200
42
0.330200
0
INSERT
8
0
2
EPAD
10
2.110000
20
7.910380
41
0.330200
42
0.330200
0
INSERT
8
0
2
EPAD
10
2.110000
20
6.389620
41
0.330200
42
0.330200
0
INSERT
8
0
2
EPAD
10
2.110000
20
6.890000
41
0.330200
42
0.330200
0
INSERT
8
0
2
EPAD
10
-3.110000
20
6.770000
41
0.203200
42
0.203200
0
INSERT
8
0
2
EPAD
10
-3.110000
20
7.786000
41
0.203200
42
0.203200
0
INSERT
8
0
2
EPAD
10
-2.480000
20
7.006800
41
0.177800
42
0.177800
0
INSERT
8
0
2
EPAD
10
-2.480000
20
7.210000
41
0.177800
42
0.177800
0
INSERT
8
0
2
EPAD
10
-2.480000
20
7.413200
41
0.177800
42
0.177800
0
INSERT
8
0
2
EPAD
10
2.110000
20
5.370000
41
0.330200
42
0.330200
0
INSERT
8
0
2
EPAD
10
2.110000
20
5.870380
41
0.330200
42
0.330200
0
POLYLINE
8
0
66
1
40
0.020320
41
0.020320
0
VERTEX
8
0
10
-2.140500
20
2.639000
0
VERTEX
8
0
10
-1.759500
20
2.639000
0
VERTEX
8
0
10
-1.759500
20
4.671000
0
VERTEX
8
0
10
-2.140500
20
4.671000
0
VERTEX
8
0
10
-2.140500
20
2.639000
0
SEQEND
8
0
0
TEXT
8
0
10
-1.612180
20
3.528000
40
0.121920
41
1.041667
50
90.000000
1
J1
0
POLYLINE
8
0
66
1
40
0.020320
41
0.020320
0
VERTEX
8
0
10
-0.356500
20
2.633000
0
VERTEX
8
0
10
0.024500
20
2.633000
0
VERTEX
8
0
10
0.024500
20
4.665000
0
VERTEX
8
0
10
-0.356500
20
4.665000
0
VERTEX
8
0
10
-0.356500
20
2.633000
0
SEQEND
8
0
0
TEXT
8
0
10
0.171820
20
3.522000
40
0.121920
41
1.041667
50
90.000000
1
J2
0
POLYLINE
8
0
66
1
40
0.020320
41
0.020320
0
VERTEX
8
0
10
1.500000
20
1.694000
0
VERTEX
8
0
10
1.500000
20
8.294000
0
SEQEND
8
0
0
POLYLINE
8
0
66
1
40
0.020320
41
0.020320
0
VERTEX
8
0
10
1.500000
20
1.694000
0
VERTEX
8
0
10
-3.860000
20
1.694000
0
SEQEND
8
0
0
POLYLINE
8
0
66
1
40
0.020320
41
0.020320
0
VERTEX
8
0
10
1.500000
20
8.294000
0
VERTEX
8
0
10
1.250000
20
8.294000
0
VERTEX
8
0
10
1.000000
20
8.594000
0
VERTEX
8
0
10
-2.300000
20
8.594000
0
SEQEND
8
0
0
POLYLINE
8
0
66
1
40
0.020320
41
0.020320
0
VERTEX
8
0
10
-3.860000
20
1.694000
0
VERTEX
8
0
10
-3.860000
20
8.144000
0
VERTEX
8
0
10
-3.710000
20
8.294000
0
VERTEX
8
0
10
-2.560000
20
8.294000
0
VERTEX
8
0
10
-2.300000
20
8.594000
0
SEQEND
8
0
0
POLYLINE
8
0
66
1
40
0.020320
41
0.020320
0
VERTEX
8
0
10
1.123000
20
4.623000
0
VERTEX
8
0
10
1.377000
20
4.623000
0
VERTEX
8
0
10
1.377000
20
6.401000
0
VERTEX
8
0
10
1.123000
20
6.401000
0
VERTEX
8
0
10
1.123000
20
4.623000
0
SEQEND
8
0
0
POLYLINE
8
0
66
1
40
0.020320
41
0.020320
0
VERTEX
8
0
10
1.123000
20
6.647000
0
VERTEX
8
0
10
1.377000
20
6.647000
0
VERTEX
8
0
10
1.377000
20
8.171000
0
VERTEX
8
0
10
1.123000
20
8.171000
0
VERTEX
8
0
10
1.123000
20
6.647000
0
SEQEND
8
0
0
POLYLINE
8
0
66
1
40
0.020320
41
0.020320
0
VERTEX
8
0
10
-3.737000
20
6.139000
0
VERTEX
8
0
10
-3.483000
20
6.139000
0
VERTEX
8
0
10
-3.483000
20
8.171000
0
VERTEX
8
0
10
-3.737000
20
8.171000
0
VERTEX
8
0
10
-3.737000
20
6.139000
0
SEQEND
8
0
0
POLYLINE
8
0
66
1
40
0.020320
41
0.020320
0
VERTEX
8
0
10
-3.737000
20
3.961000
0
VERTEX
8
0
10
-3.483000
20
3.961000
0
VERTEX
8
0
10
-3.483000
20
5.993000
0
VERTEX
8
0
10
-3.737000
20
5.993000
0
VERTEX
8
0
10
-3.737000
20
3.961000
0
SEQEND
8
0
0
TEXT
8
0
10
-3.885400
20
5.017000
40
0.121920
41
1.041667
50
90.000000
1
S1
0
POLYLINE
8
0
66
1
40
0.020320
41
0.020320
0
VERTEX
8
0
10
-5.208000
20
5.002000
0
VERTEX
8
0
10
-4.192000
20
5.002000
0
SEQEND
8
0
0
POLYLINE
8
0
66
1
40
0.020320
41
0.020320
0
VERTEX
8
0
10
-5.208000
20
7.542000
0
VERTEX
8
0
10
-4.192000
20
7.542000
0
SEQEND
8
0
0
POLYLINE
8
0
66
1
40
0.020320
41
0.020320
0
VERTEX
8
0
10
-5.208000
20
7.542000
0
VERTEX
8
0
10
-5.208000
20
5.002000
0
SEQEND
8
0
0
POLYLINE
8
0
66
1
40
0.020320
41
0.020320
0
VERTEX
8
0
10
-4.192000
20
5.002000
0
VERTEX
8
0
10
-4.192000
20
7.542000
0
SEQEND
8
0
0
TEXT
8
0
10
-5.233400
20
6.145000
40
0.121920
41
1.041667
50
90.000000
1
J9
0
POLYLINE
8
0
66
1
40
0.020320
41
0.020320
0
VERTEX
8
0
10
-5.091000
20
4.998000
0
VERTEX
8
0
10
-4.329000
20
4.998000
0
SEQEND
8
0
0
POLYLINE
8
0
66
1
40
0.020320
41
0.020320
0
VERTEX
8
0
10
-4.329000
20
3.982000
0
VERTEX
8
0
10
-5.091000
20
3.982000
0
SEQEND
8
0
0
POLYLINE
8
0
66
1
40
0.020320
41
0.020320
0
VERTEX
8
0
10
-5.091000
20
4.998000
0
VERTEX
8
0
10
-5.091000
20
3.982000
0
SEQEND
8
0
0
POLYLINE
8
0
66
1
40
0.020320
41
0.020320
0
VERTEX
8
0
10
-4.329000
20
4.998000
0
VERTEX
8
0
10
-4.329000
20
3.982000
0
SEQEND
8
0
0
TEXT
8
0
10
-4.181680
20
4.299500
40
0.121920
41
1.041667
50
90.000000
1
J10
0
POLYLINE
8
0
66
1
40
0.020320
41
0.020320
0
VERTEX
8
0
10
-4.329000
20
7.546000
0
VERTEX
8
0
10
-5.091000
20
7.546000
0
SEQEND
8
0
0
POLYLINE
8
0
66
1
40
0.020320
41
0.020320
0
VERTEX
8
0
10
-5.091000
20
8.562000
0
VERTEX
8
0
10
-4.329000
20
8.562000
0
SEQEND
8
0
0
POLYLINE
8
0
66
1
40
0.020320
41
0.020320
0
VERTEX
8
0
10
-4.329000
20
7.546000
0
VERTEX
8
0
10
-4.329000
20
8.562000
0
SEQEND
8
0
0
POLYLINE
8
0
66
1
40
0.020320
41
0.020320
0
VERTEX
8
0
10
-5.091000
20
7.546000
0
VERTEX
8
0
10
-5.091000
20
8.562000
0
SEQEND
8
0
0
TEXT
8
0
10
-5.116400
20
7.863500
40
0.121920
41
1.041667
50
90.000000
1
J11
0
POLYLINE
8
0
66
1
40
0.020320
41
0.020320
0
VERTEX
8
0
10
-4.329000
20
2.966000
0
VERTEX
8
0
10
-5.091000
20
2.966000
0
SEQEND
8
0
0
POLYLINE
8
0
66
1
40
0.020320
41
0.020320
0
VERTEX
8
0
10
-5.091000
20
3.982000
0
VERTEX
8
0
10
-4.329000
20
3.982000
0
SEQEND
8
0
0
POLYLINE
8
0
66
1
40
0.020320
41
0.020320
0
VERTEX
8
0
10
-4.329000
20
2.966000
0
VERTEX
8
0
10
-4.329000
20
3.982000
0
SEQEND
8
0
0
POLYLINE
8
0
66
1
40
0.020320
41
0.020320
0
VERTEX
8
0
10
-5.091000
20
2.966000
0
VERTEX
8
0
10
-5.091000
20
3.982000
0
SEQEND
8
0
0
TEXT
8
0
10
-5.116400
20
3.283500
40
0.121920
41
1.041667
50
90.000000
1
J12
0
POLYLINE
8
0
66
1
40
0.020320
41
0.020320
0
VERTEX
8
0
10
-3.199000
20
4.870000
0
VERTEX
8
0
10
-3.072000
20
4.870000
0
SEQEND
8
0
0
POLYLINE
8
0
66
1
40
0.020320
41
0.020320
0
VERTEX
8
0
10
-3.072000
20
4.806500
0
VERTEX
8
0
10
-2.564000
20
4.806500
0
VERTEX
8
0
10
-2.564000
20
4.933500
0
VERTEX
8
0
10
-3.072000
20
4.933500
0
VERTEX
8
0
10
-3.072000
20
4.806500
0
SEQEND
8
0
0
POLYLINE
8
0
66
1
40
0.020320
41
0.020320
0
VERTEX
8
0
10
-2.564000
20
4.870000
0
VERTEX
8
0
10
-2.437000
20
4.870000
0
SEQEND
8
0
0
TEXT
8
0
10
-2.885000
20
4.988900
40
0.121920
41
1.041667
1
R1
0
POLYLINE
8
0
66
1
40
0.020320
41
0.020320
0
VERTEX
8
0
10
-1.897000
20
5.453000
0
VERTEX
8
0
10
-1.135000
20
5.453000
0
VERTEX
8
0
10
-1.135000
20
5.707000
0
VERTEX
8
0
10
-1.897000
20
5.707000
0
VERTEX
8
0
10
-1.897000
20
5.453000
0
SEQEND
8
0
0
TEXT
8
0
10
-1.643000
20
5.732400
40
0.121920
41
1.041667
1
J6
0
POLYLINE
8
0
66
1
40
0.020320
41
0.020320
0
VERTEX
8
0
10
-0.627000
20
5.453000
0
VERTEX
8
0
10
-0.119000
20
5.453000
0
VERTEX
8
0
10
-0.119000
20
5.707000
0
VERTEX
8
0
10
-0.627000
20
5.707000
0
VERTEX
8
0
10
-0.627000
20
5.453000
0
SEQEND
8
0
0
TEXT
8
0
10
-0.510000
20
5.752400
40
0.121920
41
1.041667
1
J5
0
POLYLINE
8
0
66
1
40
0.020320
41
0.020320
0
VERTEX
8
0
10
-0.637000
20
7.253000
0
VERTEX
8
0
10
-0.129000
20
7.253000
0
VERTEX
8
0
10
-0.129000
20
7.507000
0
VERTEX
8
0
10
-0.637000
20
7.507000
0
VERTEX
8
0
10
-0.637000
20
7.253000
0
SEQEND
8
0
0
TEXT
8
0
10
-0.510000
20
7.532400
40
0.121920
41
1.041667
1
J4
0
POLYLINE
8
0
66
1
40
0.020320
41
0.020320
0
VERTEX
8
0
10
-1.897000
20
7.253000
0
VERTEX
8
0
10
-1.389000
20
7.253000
0
VERTEX
8
0
10
-1.389000
20
7.507000
0
VERTEX
8
0
10
-1.897000
20
7.507000
0
VERTEX
8
0
10
-1.897000
20
7.253000
0
SEQEND
8
0
0
TEXT
8
0
10
-1.770000
20
7.532400
40
0.121920
41
1.041667
1
J3
0
POLYLINE
8
0
66
1
40
0.020320
41
0.020320
0
VERTEX
8
0
10
2.491000
20
7.156000
0
VERTEX
8
0
10
1.729000
20
7.156000
0
SEQEND
8
0
0
POLYLINE
8
0
66
1
40
0.020320
41
0.020320
0
VERTEX
8
0
10
1.729000
20
8.172000
0
VERTEX
8
0
10
2.491000
20
8.172000
0
SEQEND
8
0
0
POLYLINE
8
0
66
1
40
0.020320
41
0.020320
0
VERTEX
8
0
10
2.491000
20
7.156000
0
VERTEX
8
0
10
2.491000
20
8.172000
0
SEQEND
8
0
0
POLYLINE
8
0
66
1
40
0.020320
41
0.020320
0
VERTEX
8
0
10
1.729000
20
7.156000
0
VERTEX
8
0
10
1.729000
20
8.172000
0
SEQEND
8
0
0
TEXT
8
0
10
1.703600
20
7.537000
40
0.121920
41
1.041667
50
90.000000
1
J7
0
POLYLINE
8
0
66
1
40
0.020320
41
0.020320
0
VERTEX
8
0
10
2.491000
20
6.135620
0
VERTEX
8
0
10
1.729000
20
6.135620
0
SEQEND
8
0
0
POLYLINE
8
0
66
1
40
0.020320
41
0.020320
0
VERTEX
8
0
10
1.729000
20
7.151620
0
VERTEX
8
0
10
2.491000
20
7.151620
0
SEQEND
8
0
0
POLYLINE
8
0
66
1
40
0.020320
41
0.020320
0
VERTEX
8
0
10
2.491000
20
6.135620
0
VERTEX
8
0
10
2.491000
20
7.151620
0
SEQEND
8
0
0
POLYLINE
8
0
66
1
40
0.020320
41
0.020320
0
VERTEX
8
0
10
1.729000
20
6.135620
0
VERTEX
8
0
10
1.729000
20
7.151620
0
SEQEND
8
0
0
TEXT
8
0
10
1.703600
20
6.516620
40
0.121920
41
1.041667
50
90.000000
1
J8
0
POLYLINE
8
0
66
1
40
0.020320
41
0.020320
0
VERTEX
8
0
10
-3.110000
20
6.897000
0
VERTEX
8
0
10
-3.110000
20
7.024000
0
SEQEND
8
0
0
POLYLINE
8
0
66
1
40
0.020320
41
0.020320
0
VERTEX
8
0
10
-3.173500
20
7.024000
0
VERTEX
8
0
10
-3.046500
20
7.024000
0
VERTEX
8
0
10
-3.046500
20
7.532000
0
VERTEX
8
0
10
-3.173500
20
7.532000
0
VERTEX
8
0
10
-3.173500
20
7.024000
0
SEQEND
8
0
0
POLYLINE
8
0
66
1
40
0.020320
41
0.020320
0
VERTEX
8
0
10
-3.110000
20
7.532000
0
VERTEX
8
0
10
-3.110000
20
7.659000
0
SEQEND
8
0
0
TEXT
8
0
10
-3.198900
20
7.151000
40
0.121920
41
1.041667
50
90.000000
1
R2
0
POLYLINE
8
0
66
1
40
0.020320
41
0.020320
0
VERTEX
8
0
10
-2.314900
20
6.956000
0
VERTEX
8
0
10
-2.314900
20
7.464000
0
SEQEND
8
0
0
POLYLINE
8
0
66
1
40
0.020320
41
0.020320
0
VERTEX
8
0
10
-2.480000
20
6.879800
0
VERTEX
8
0
10
-2.441702
20
6.884562
0
VERTEX
8
0
10
-2.402212
20
6.898850
0
VERTEX
8
0
10
-2.360342
20
6.922662
0
VERTEX
8
0
10
-2.314900
20
6.956000
0
SEQEND
8
0
0
POLYLINE
8
0
66
1
40
0.020320
41
0.020320
0
VERTEX
8
0
10
-2.480000
20
6.879800
0
VERTEX
8
0
10
-2.544918
20
6.882431
0
VERTEX
8
0
10
-2.604953
20
6.898912
0
VERTEX
8
0
10
-2.658942
20
6.927839
0
VERTEX
8
0
10
-2.705722
20
6.967807
0
VERTEX
8
0
10
-2.744131
20
7.017412
0
VERTEX
8
0
10
-2.773005
20
7.075249
0
VERTEX
8
0
10
-2.791182
20
7.139913
0
VERTEX
8
0
10
-2.797500
20
7.210000
0
SEQEND
8
0
0
POLYLINE
8
0
66
1
40
0.020320
41
0.020320
0
VERTEX
8
0
10
-2.480000
20
7.540200
0
VERTEX
8
0
10
-2.441702
20
7.535438
0
VERTEX
8
0
10
-2.402212
20
7.521150
0
VERTEX
8
0
10
-2.360342
20
7.497338
0
VERTEX
8
0
10
-2.314900
20
7.464000
0
SEQEND
8
0
0
POLYLINE
8
0
66
1
40
0.020320
41
0.020320
0
VERTEX
8
0
10
-2.480000
20
7.540200
0
VERTEX
8
0
10
-2.544918
20
7.537569
0
VERTEX
8
0
10
-2.604953
20
7.521088
0
VERTEX
8
0
10
-2.658942
20
7.492161
0
VERTEX
8
0
10
-2.705722
20
7.452193
0
VERTEX
8
0
10
-2.744131
20
7.402588
0
VERTEX
8
0
10
-2.773005
20
7.344751
0
VERTEX
8
0
10
-2.791182
20
7.280087
0
VERTEX
8
0
10
-2.797500
20
7.210000
0
SEQEND
8
0
0
TEXT
8
0
10
-2.822900
20
7.083000
40
0.121920
41
1.041667
50
90.000000
1
Q1
0
POLYLINE
8
0
66
1
40
0.020320
41
0.020320
0
VERTEX
8
0
10
2.491000
20
5.116000
0
VERTEX
8
0
10
1.729000
20
5.116000
0
SEQEND
8
0
0
POLYLINE
8
0
66
1
40
0.020320
41
0.020320
0
VERTEX
8
0
10
1.729000
20
6.132000
0
VERTEX
8
0
10
2.491000
20
6.132000
0
SEQEND
8
0
0
POLYLINE
8
0
66
1
40
0.020320
41
0.020320
0
VERTEX
8
0
10
2.491000
20
5.116000
0
VERTEX
8
0
10
2.491000
20
6.132000
0
SEQEND
8
0
0
POLYLINE
8
0
66
1
40
0.020320
41
0.020320
0
VERTEX
8
0
10
1.729000
20
5.116000
0
VERTEX
8
0
10
1.729000
20
6.132000
0
SEQEND
8
0
0
TEXT
8
0
10
1.703600
20
5.433500
40
0.121920
41
1.041667
50
90.000000
1
J13
0
POLYLINE
8
0
66
1
40
0.101600
41
0.101600
0
VERTEX
8
0
10
-3.610000
20
7.536000
0
VERTEX
8
0
10
-3.698380
20
7.536000
0
VERTEX
8
0
10
-3.824260
20
7.661880
0
VERTEX
8
0
10
-4.428780
20
8.266400
0
VERTEX
8
0
10
-4.504980
20
8.266400
0
VERTEX
8
0
10
-4.680240
20
8.266400
0
VERTEX
8
0
10
-4.690400
20
8.256240
0
VERTEX
8
0
10
-4.710000
20
8.300380
0
SEQEND
8
0
0
POLYLINE
8
0
66
1
40
0.101600
41
0.101600
0
VERTEX
8
0
10
-3.610000
20
7.282000
0
VERTEX
8
0
10
-3.761880
20
7.282000
0
VERTEX
8
0
10
-3.778540
20
7.298660
0
VERTEX
8
0
10
-4.278920
20
7.799040
0
VERTEX
8
0
10
-4.278920
20
7.801580
0
VERTEX
8
0
10
-4.741200
20
7.801580
0
VERTEX
8
0
10
-4.743740
20
7.799040
0
VERTEX
8
0
10
-4.710000
20
7.800000
0
SEQEND
8
0
0
POLYLINE
8
0
66
1
40
0.101600
41
0.101600
0
VERTEX
8
0
10
-1.262000
20
5.580000
0
VERTEX
8
0
10
-1.262000
20
3.615990
0
VERTEX
8
0
10
-1.328578
20
3.549412
0
VERTEX
8
0
10
-1.349990
20
3.528000
0
VERTEX
8
0
10
-1.914731
20
3.528000
0
SEQEND
8
0
0
POLYLINE
8
0
66
1
40
0.101600
41
0.101600
0
VERTEX
8
0
10
-1.950000
20
3.528000
0
VERTEX
8
0
10
-1.914731
20
3.528000
0
SEQEND
8
0
0
POLYLINE
8
0
66
1
40
0.101600
41
0.101600
0
VERTEX
8
0
10
-1.950000
20
3.782000
0
VERTEX
8
0
10
-1.659683
20
3.782000
0
VERTEX
8
0
10
-1.588698
20
3.852985
0
VERTEX
8
0
10
-1.588698
20
5.135079
0
VERTEX
8
0
10
-1.661269
20
5.207650
0
VERTEX
8
0
10
-1.782222
20
5.328603
0
VERTEX
8
0
10
-1.782222
20
5.478400
0
VERTEX
8
0
10
-1.770000
20
5.580000
0
SEQEND
8
0
0
POLYLINE
8
0
66
1
40
0.101600
41
0.101600
0
VERTEX
8
0
10
-1.004096
20
3.020000
0
VERTEX
8
0
10
-1.112953
20
3.020000
0
SEQEND
8
0
0
POLYLINE
8
0
66
1
40
0.101600
41
0.101600
0
VERTEX
8
0
10
-1.950000
20
3.020000
0
VERTEX
8
0
10
-1.112953
20
3.020000
0
SEQEND
8
0
0
POLYLINE
8
0
66
1
40
0.101600
41
0.101600
0
VERTEX
8
0
10
-1.004096
20
3.020000
0
VERTEX
8
0
10
-0.172000
20
3.020000
0
VERTEX
8
0
10
-0.166000
20
3.014000
0
SEQEND
8
0
0
POLYLINE
8
0
66
1
40
0.101600
41
0.101600
0
VERTEX
8
0
10
0.130000
20
5.766000
0
VERTEX
8
0
10
-0.036016
20
5.766000
0
SEQEND
8
0
0
POLYLINE
8
0
66
1
40
0.101600
41
0.101600
0
VERTEX
8
0
10
1.250000
20
5.766000
0
VERTEX
8
0
10
0.130000
20
5.766000
0
SEQEND
8
0
0
POLYLINE
8
0
66
1
40
0.101600
41
0.101600
0
VERTEX
8
0
10
-1.516000
20
5.580000
0
VERTEX
8
0
10
-1.516000
20
5.764704
0
SEQEND
8
0
0
POLYLINE
8
0
66
1
40
0.101600
41
0.101600
0
VERTEX
8
0
10
-1.004096
20
5.120000
0
VERTEX
8
0
10
-0.369263
20
5.120000
0
VERTEX
8
0
10
-0.245737
20
5.243526
0
VERTEX
8
0
10
-0.245737
20
5.579737
0
VERTEX
8
0
10
-0.246000
20
5.580000
0
VERTEX
8
0
10
-0.246000
20
5.765737
0
VERTEX
8
0
10
-0.245737
20
5.766000
0
SEQEND
8
0
0
POLYLINE
8
0
66
1
40
0.127000
41
0.127000
0
VERTEX
8
0
10
-3.610000
20
4.850000
0
VERTEX
8
0
10
-3.346000
20
4.850000
0
VERTEX
8
0
10
-3.326000
20
4.870000
0
SEQEND
8
0
0
POLYLINE
8
0
66
1
40
0.025400
41
0.025400
0
VERTEX
8
0
10
-2.704090
20
4.531616
0
VERTEX
8
0
10
-2.704090
20
4.544000
0
SEQEND
8
0
0
POLYLINE
8
0
66
1
40
0.101600
41
0.101600
0
VERTEX
8
0
10
-4.710000
20
3.220000
0
VERTEX
8
0
10
-3.444848
20
3.220000
0
VERTEX
8
0
10
-2.704090
20
3.960758
0
VERTEX
8
0
10
-2.704090
20
4.531616
0
SEQEND
8
0
0
POLYLINE
8
0
66
1
40
0.101600
41
0.101600
0
VERTEX
8
0
10
-1.729142
20
4.740000
0
VERTEX
8
0
10
-1.859142
20
4.870000
0
VERTEX
8
0
10
-1.921103
20
4.870000
0
SEQEND
8
0
0
POLYLINE
8
0
66
1
40
0.101600
41
0.101600
0
VERTEX
8
0
10
-1.950000
20
4.290000
0
VERTEX
8
0
10
-1.739850
20
4.290000
0
VERTEX
8
0
10
-1.729142
20
4.300708
0
VERTEX
8
0
10
-1.729142
20
4.740000
0
SEQEND
8
0
0
POLYLINE
8
0
66
1
40
0.101600
41
0.101600
0
VERTEX
8
0
10
-1.921103
20
4.870000
0
VERTEX
8
0
10
-2.310000
20
4.870000
0
SEQEND
8
0
0
POLYLINE
8
0
66
1
40
0.101600
41
0.101600
0
VERTEX
8
0
10
-1.370000
20
6.004712
0
VERTEX
8
0
10
-1.876667
20
6.004712
0
SEQEND
8
0
0
POLYLINE
8
0
66
1
40
0.101600
41
0.101600
0
VERTEX
8
0
10
-0.500000
20
5.580000
0
VERTEX
8
0
10
-0.500000
20
5.978110
0
VERTEX
8
0
10
-0.526602
20
6.004712
0
VERTEX
8
0
10
-1.370000
20
6.004712
0
SEQEND
8
0
0
POLYLINE
8
0
66
1
40
0.101600
41
0.101600
0
VERTEX
8
0
10
-1.900000
20
6.004712
0
VERTEX
8
0
10
-1.918718
20
6.004712
0
SEQEND
8
0
0
POLYLINE
8
0
66
1
40
0.025400
41
0.025400
0
VERTEX
8
0
10
-2.695432
20
4.544000
0
VERTEX
8
0
10
-2.695432
20
4.540274
0
VERTEX
8
0
10
-2.704090
20
4.531616
0
SEQEND
8
0
0
POLYLINE
8
0
66
1
40
0.101600
41
0.101600
0
VERTEX
8
0
10
-1.950000
20
4.544000
0
VERTEX
8
0
10
-2.695432
20
4.544000
0
SEQEND
8
0
0
POLYLINE
8
0
66
1
40
0.025400
41
0.025400
0
VERTEX
8
0
10
-2.695432
20
4.544000
0
VERTEX
8
0
10
-2.704090
20
4.544000
0
SEQEND
8
0
0
POLYLINE
8
0
66
1
40
0.101600
41
0.101600
0
VERTEX
8
0
10
-1.876667
20
6.004712
0
VERTEX
8
0
10
-1.900000
20
6.004712
0
SEQEND
8
0
0
POLYLINE
8
0
66
1
40
0.101600
41
0.101600
0
VERTEX
8
0
10
-2.695432
20
5.640000
0
VERTEX
8
0
10
-2.695432
20
5.724417
0
VERTEX
8
0
10
-2.415137
20
6.004712
0
SEQEND
8
0
0
POLYLINE
8
0
66
1
40
0.101600
41
0.101600
0
VERTEX
8
0
10
-1.918718
20
6.004712
0
VERTEX
8
0
10
-2.415137
20
6.004712
0
SEQEND
8
0
0
POLYLINE
8
0
66
1
40
0.101600
41
0.101600
0
VERTEX
8
0
10
-2.695432
20
5.640000
0
VERTEX
8
0
10
-2.695432
20
4.544000
0
SEQEND
8
0
0
POLYLINE
8
0
66
1
40
0.101600
41
0.101600
0
VERTEX
8
0
10
-5.004065
20
3.330000
0
VERTEX
8
0
10
-4.869191
20
3.464874
0
VERTEX
8
0
10
-4.863637
20
3.464874
0
VERTEX
8
0
10
-3.553557
20
3.464874
0
VERTEX
8
0
10
-3.218329
20
3.800102
0
VERTEX
8
0
10
-2.941121
20
4.077310
0
VERTEX
8
0
10
-2.941121
20
4.528579
0
VERTEX
8
0
10
-2.941121
20
5.070101
0
VERTEX
8
0
10
-2.986248
20
5.115228
0
VERTEX
8
0
10
-3.224776
20
5.353756
0
VERTEX
8
0
10
-3.605756
20
5.353756
0
VERTEX
8
0
10
-3.610000
20
5.358000
0
SEQEND
8
0
0
POLYLINE
8
0
66
1
40
0.101600
41
0.101600
0
VERTEX
8
0
10
-3.367928
20
5.970000
0
VERTEX
8
0
10
-3.441441
20
6.043513
0
SEQEND
8
0
0
POLYLINE
8
0
66
1
40
0.101600
41
0.101600
0
VERTEX
8
0
10
-4.700000
20
5.764000
0
VERTEX
8
0
10
-4.269092
20
5.764000
0
VERTEX
8
0
10
-3.989579
20
6.043513
0
VERTEX
8
0
10
-3.441441
20
6.043513
0
SEQEND
8
0
0
POLYLINE
8
0
66
1
40
0.025400
41
0.025400
0
VERTEX
8
0
10
-3.367928
20
5.702072
0
VERTEX
8
0
10
-3.351934
20
5.718066
0
VERTEX
8
0
10
-3.351934
20
5.719884
0
SEQEND
8
0
0
POLYLINE
8
0
66
1
40
0.101600
41
0.101600
0
VERTEX
8
0
10
-3.367928
20
5.970000
0
VERTEX
8
0
10
-3.367928
20
5.702072
0
SEQEND
8
0
0
POLYLINE
8
0
66
1
40
0.063500
41
0.063500
0
VERTEX
8
0
10
-3.450000
20
5.620000
0
VERTEX
8
0
10
-3.598788
20
5.620000
0
VERTEX
8
0
10
-3.616480
20
5.602308
0
VERTEX
8
0
10
-3.610000
20
5.612000
0
SEQEND
8
0
0
POLYLINE
8
0
66
1
40
0.025400
41
0.025400
0
VERTEX
8
0
10
-3.460000
20
5.610000
0
VERTEX
8
0
10
-3.450000
20
5.620000
0
SEQEND
8
0
0
POLYLINE
8
0
66
1
40
0.063500
41
0.063500
0
VERTEX
8
0
10
-3.450000
20
5.620000
0
VERTEX
8
0
10
-3.367928
20
5.702072
0
SEQEND
8
0
0
POLYLINE
8
0
66
1
40
0.101600
41
0.101600
0
VERTEX
8
0
10
-4.942522
20
6.512282
0
VERTEX
8
0
10
-4.942522
20
6.646448
0
VERTEX
8
0
10
-4.929587
20
6.659383
0
VERTEX
8
0
10
-4.808970
20
6.780000
0
VERTEX
8
0
10
-4.700000
20
6.780000
0
SEQEND
8
0
0
POLYLINE
8
0
66
1
40
0.101600
41
0.101600
0
VERTEX
8
0
10
-3.610000
20
6.266000
0
VERTEX
8
0
10
-3.619243
20
6.256757
0
VERTEX
8
0
10
-3.760241
20
6.256757
0
VERTEX
8
0
10
-4.034835
20
6.256757
0
VERTEX
8
0
10
-4.214084
20
6.077508
0
VERTEX
8
0
10
-4.351381
20
6.077508
0
VERTEX
8
0
10
-4.397147
20
6.031742
0
VERTEX
8
0
10
-4.732763
20
6.031742
0
VERTEX
8
0
10
-4.740390
20
6.024115
0
VERTEX
8
0
10
-4.820480
20
6.024115
0
VERTEX
8
0
10
-4.942522
20
6.146157
0
VERTEX
8
0
10
-4.942522
20
6.512282
0
SEQEND
8
0
0
POLYLINE
8
0
66
1
40
0.076200
41
0.076200
0
VERTEX
8
0
10
-3.610000
20
4.596000
0
VERTEX
8
0
10
-3.960355
20
4.596000
0
VERTEX
8
0
10
-4.535793
20
4.020562
0
VERTEX
8
0
10
-4.850563
20
4.020562
0
VERTEX
8
0
10
-4.980000
20
4.149999
0
VERTEX
8
0
10
-4.980000
20
4.811076
0
VERTEX
8
0
10
-4.780538
20
5.010538
0
VERTEX
8
0
10
-4.573125
20
5.010538
0
VERTEX
8
0
10
-4.344610
20
5.239053
0
VERTEX
8
0
10
-4.344610
20
5.410000
0
VERTEX
8
0
10
-4.419301
20
5.484691
0
VERTEX
8
0
10
-4.992674
20
5.484691
0
VERTEX
8
0
10
-5.095895
20
5.587912
0
VERTEX
8
0
10
-5.095895
20
7.054551
0
VERTEX
8
0
10
-4.892067
20
7.258379
0
VERTEX
8
0
10
-4.852400
20
7.258379
0
VERTEX
8
0
10
-4.700000
20
7.288000
0
SEQEND
8
0
0
POLYLINE
8
0
66
1
40
0.101600
41
0.101600
0
VERTEX
8
0
10
-3.610000
20
5.104000
0
VERTEX
8
0
10
-3.628675
20
5.085325
0
VERTEX
8
0
10
-3.837901
20
5.085325
0
VERTEX
8
0
10
-4.682608
20
4.240618
0
VERTEX
8
0
10
-4.700246
20
4.240618
0
VERTEX
8
0
10
-4.710000
20
4.243620
0
SEQEND
8
0
0
POLYLINE
8
0
66
1
40
0.101600
41
0.101600
0
VERTEX
8
0
10
2.110000
20
6.890000
0
VERTEX
8
0
10
2.045025
20
6.890000
0
VERTEX
8
0
10
1.634280
20
7.300745
0
VERTEX
8
0
10
1.634280
20
8.025720
0
VERTEX
8
0
10
1.410000
20
8.250000
0
VERTEX
8
0
10
-0.218900
20
8.250000
0
VERTEX
8
0
10
-0.521439
20
7.947461
0
VERTEX
8
0
10
-0.521439
20
7.391439
0
VERTEX
8
0
10
-0.510000
20
7.380000
0
SEQEND
8
0
0
POLYLINE
8
0
66
1
40
0.101600
41
0.101600
0
VERTEX
8
0
10
2.110000
20
7.410000
0
VERTEX
8
0
10
1.784243
20
7.735757
0
VERTEX
8
0
10
1.784243
20
8.284878
0
VERTEX
8
0
10
1.679121
20
8.390000
0
VERTEX
8
0
10
-1.053659
20
8.390000
0
VERTEX
8
0
10
-1.533690
20
7.909969
0
VERTEX
8
0
10
-1.533690
20
7.397690
0
VERTEX
8
0
10
-1.516000
20
7.380000
0
SEQEND
8
0
0
POLYLINE
8
0
66
1
40
0.101600
41
0.101600
0
VERTEX
8
0
10
2.110000
20
7.910380
0
VERTEX
8
0
10
2.110000
20
8.310000
0
VERTEX
8
0
10
1.860000
20
8.560000
0
VERTEX
8
0
10
-1.230449
20
8.560000
0
VERTEX
8
0
10
-1.777380
20
8.013069
0
VERTEX
8
0
10
-1.777380
20
7.387380
0
VERTEX
8
0
10
-1.770000
20
7.380000
0
SEQEND
8
0
0
POLYLINE
8
0
66
1
40
0.101600
41
0.101600
0
VERTEX
8
0
10
-1.020000
20
5.670000
0
VERTEX
8
0
10
-1.115472
20
5.765472
0
VERTEX
8
0
10
-1.115472
20
5.766000
0
SEQEND
8
0
0
POLYLINE
8
0
66
1
40
0.025400
41
0.025400
0
VERTEX
8
0
10
-1.115472
20
5.766000
0
VERTEX
8
0
10
-1.115472
20
5.778989
0
SEQEND
8
0
0
POLYLINE
8
0
66
1
40
0.101600
41
0.101600
0
VERTEX
8
0
10
-1.115472
20
5.766000
0
VERTEX
8
0
10
-1.514704
20
5.766000
0
VERTEX
8
0
10
-1.516000
20
5.764704
0
SEQEND
8
0
0
POLYLINE
8
0
66
1
40
0.101600
41
0.101600
0
VERTEX
8
0
10
-1.020000
20
5.670000
0
VERTEX
8
0
10
-1.009509
20
5.659509
0
VERTEX
8
0
10
-1.009509
20
5.658539
0
VERTEX
8
0
10
-1.009509
20
5.093635
0
VERTEX
8
0
10
-1.004096
20
5.088222
0
SEQEND
8
0
0
POLYLINE
8
0
66
1
40
0.025400
41
0.025400
0
VERTEX
8
0
10
-1.004096
20
5.088222
0
VERTEX
8
0
10
-0.993345
20
5.077471
0
SEQEND
8
0
0
POLYLINE
8
0
66
1
40
0.101600
41
0.101600
0
VERTEX
8
0
10
-1.004096
20
5.120000
0
VERTEX
8
0
10
-1.004096
20
5.088222
0
VERTEX
8
0
10
-1.004096
20
3.020000
0
SEQEND
8
0
0
POLYLINE
8
0
66
1
40
0.101600
41
0.101600
0
VERTEX
8
0
10
-3.463304
20
2.968478
0
VERTEX
8
0
10
-2.395782
20
4.036000
0
VERTEX
8
0
10
-2.344208
20
4.036000
0
VERTEX
8
0
10
-2.326054
20
4.036000
0
SEQEND
8
0
0
POLYLINE
8
0
66
1
40
0.101600
41
0.101600
0
VERTEX
8
0
10
-1.950000
20
4.036000
0
VERTEX
8
0
10
-2.326054
20
4.036000
0
SEQEND
8
0
0
POLYLINE
8
0
66
1
40
0.101600
41
0.101600
0
VERTEX
8
0
10
-3.463304
20
2.968478
0
VERTEX
8
0
10
-3.495538
20
2.936244
0
VERTEX
8
0
10
-4.881578
20
2.936244
0
VERTEX
8
0
10
-5.004065
20
3.058731
0
VERTEX
8
0
10
-5.004065
20
3.065178
0
VERTEX
8
0
10
-5.004065
20
3.330000
0
SEQEND
8
0
0
POLYLINE
8
0
66
1
40
0.101600
41
0.101600
0
VERTEX
8
0
10
-1.950000
20
3.020000
0
VERTEX
8
0
10
-3.141020
20
3.020000
0
VERTEX
8
0
10
-3.360157
20
2.800863
0
VERTEX
8
0
10
-4.950864
20
2.800863
0
VERTEX
8
0
10
-5.150000
20
2.999999
0
VERTEX
8
0
10
-5.150000
20
3.684968
0
VERTEX
8
0
10
-5.127484
20
3.707484
0
SEQEND
8
0
0
POLYLINE
8
0
66
1
40
0.101600
41
0.101600
0
VERTEX
8
0
10
-4.700000
20
5.256000
0
VERTEX
8
0
10
-4.930904
20
5.256000
0
VERTEX
8
0
10
-5.150000
20
5.036904
0
VERTEX
8
0
10
-5.150000
20
3.737927
0
VERTEX
8
0
10
-5.127484
20
3.707484
0
SEQEND
8
0
0
POLYLINE
8
0
66
1
40
0.101600
41
0.101600
0
VERTEX
8
0
10
-4.710000
20
3.720380
0
VERTEX
8
0
10
-4.710380
20
3.720000
0
VERTEX
8
0
10
-4.720380
20
3.710000
0
VERTEX
8
0
10
-5.124968
20
3.710000
0
VERTEX
8
0
10
-5.127484
20
3.707484
0
SEQEND
8
0
0
POLYLINE
8
0
66
1
40
0.101600
41
0.101600
0
VERTEX
8
0
10
-3.610000
20
4.342000
0
VERTEX
8
0
10
-3.951615
20
4.342000
0
VERTEX
8
0
10
-4.573615
20
3.720000
0
VERTEX
8
0
10
-4.710380
20
3.720000
0
VERTEX
8
0
10
-4.710519
20
3.720000
0
VERTEX
8
0
10
-4.710000
20
3.720380
0
SEQEND
8
0
0
POLYLINE
8
0
66
1
40
0.101600
41
0.101600
0
VERTEX
8
0
10
-4.710000
20
4.744000
0
VERTEX
8
0
10
-4.596000
20
4.744000
0
VERTEX
8
0
10
-4.138318
20
5.201682
0
VERTEX
8
0
10
-4.138318
20
5.299820
0
VERTEX
8
0
10
-3.951441
20
5.486697
0
VERTEX
8
0
10
-3.951441
20
5.723153
0
VERTEX
8
0
10
-3.808594
20
5.866000
0
VERTEX
8
0
10
-3.610000
20
5.866000
0
SEQEND
8
0
0
POLYLINE
8
0
66
1
40
0.152400
41
0.152400
0
VERTEX
8
0
10
-3.610000
20
6.520000
0
VERTEX
8
0
10
-4.111310
20
6.520000
0
VERTEX
8
0
10
-4.134859
20
6.496451
0
VERTEX
8
0
10
-4.353898
20
6.277412
0
VERTEX
8
0
10
-4.545555
20
6.277412
0
VERTEX
8
0
10
-4.550967
20
6.272000
0
VERTEX
8
0
10
-4.700000
20
6.272000
0
SEQEND
8
0
0
POLYLINE
8
0
66
1
40
0.101600
41
0.101600
0
VERTEX
8
0
10
1.250000
20
6.020000
0
VERTEX
8
0
10
1.250000
20
5.766000
0
SEQEND
8
0
0
POLYLINE
8
0
66
1
40
0.127000
41
0.127000
0
VERTEX
8
0
10
-3.110000
20
6.770000
0
VERTEX
8
0
10
-3.572728
20
6.770000
0
VERTEX
8
0
10
-3.580604
20
6.762124
0
VERTEX
8
0
10
-3.610000
20
6.774000
0
SEQEND
8
0
0
POLYLINE
8
0
66
1
40
0.127000
41
0.127000
0
VERTEX
8
0
10
-2.480000
20
7.210000
0
VERTEX
8
0
10
-2.775809
20
7.210000
0
VERTEX
8
0
10
-3.001306
20
7.435497
0
VERTEX
8
0
10
-3.001306
20
7.643450
0
VERTEX
8
0
10
-3.054956
20
7.697100
0
VERTEX
8
0
10
-3.110000
20
7.786000
0
SEQEND
8
0
0
POLYLINE
8
0
66
1
40
0.076200
41
0.076200
0
VERTEX
8
0
10
2.110000
20
6.389620
0
VERTEX
8
0
10
1.960379
20
6.389620
0
VERTEX
8
0
10
1.769999
20
6.580000
0
VERTEX
8
0
10
-0.063128
20
6.580000
0
VERTEX
8
0
10
-0.259003
20
6.775875
0
VERTEX
8
0
10
-0.259003
20
7.376997
0
VERTEX
8
0
10
-0.256000
20
7.380000
0
SEQEND
8
0
0
POLYLINE
8
0
66
1
40
0.127000
41
0.127000
0
VERTEX
8
0
10
-2.480000
20
7.006800
0
VERTEX
8
0
10
-1.762666
20
6.289466
0
VERTEX
8
0
10
-0.692634
20
6.289466
0
VERTEX
8
0
10
-0.426060
20
6.289466
0
VERTEX
8
0
10
-0.219842
20
6.083248
0
VERTEX
8
0
10
-0.219842
20
5.766000
0
SEQEND
8
0
0
POLYLINE
8
0
66
1
40
0.025400
41
0.025400
0
VERTEX
8
0
10
-0.219842
20
5.766000
0
VERTEX
8
0
10
-0.219842
20
5.681600
0
VERTEX
8
0
10
-0.246000
20
5.580000
0
SEQEND
8
0
0
POLYLINE
8
0
66
1
40
0.101600
41
0.101600
0
VERTEX
8
0
10
-0.036016
20
5.766000
0
VERTEX
8
0
10
-0.219842
20
5.766000
0
VERTEX
8
0
10
-0.245737
20
5.766000
0
SEQEND
8
0
0
POLYLINE
8
0
66
1
40
0.101600
41
0.101600
0
VERTEX
8
0
10
2.110000
20
5.870380
0
VERTEX
8
0
10
1.523840
20
6.456540
0
VERTEX
8
0
10
-1.416539
20
6.456540
0
VERTEX
8
0
10
-2.334771
20
7.374772
0
VERTEX
8
0
10
-2.441572
20
7.374772
0
VERTEX
8
0
10
-2.480000
20
7.413200
0
SEQEND
8
0
0
POLYLINE
8
0
66
1
70
1
40
0
41
0
0
VERTEX
8
0
10
-1.853480
20
4.620200
0
VERTEX
8
0
10
-1.823000
20
4.589720
0
VERTEX
8
0
10
-1.823000
20
4.498280
0
VERTEX
8
0
10
-1.853480
20
4.467800
0
VERTEX
8
0
10
-2.046520
20
4.467800
0
VERTEX
8
0
10
-2.077000
20
4.498280
0
VERTEX
8
0
10
-2.077000
20
4.589720
0
VERTEX
8
0
10
-2.046520
20
4.620200
0
VERTEX
8
0
10
-1.853480
20
4.620200
0
SEQEND
8
0
0
CIRCLE
8
0
10
-1.950000
20
4.544000
40
0.100000
0
POLYLINE
8
0
66
1
70
1
40
0
41
0
0
VERTEX
8
0
10
-1.853480
20
4.366200
0
VERTEX
8
0
10
-1.823000
20
4.335720
0
VERTEX
8
0
10
-1.823000
20
4.244280
0
VERTEX
8
0
10
-1.853480
20
4.213800
0
VERTEX
8
0
10
-2.046520
20
4.213800
0
VERTEX
8
0
10
-2.077000
20
4.244280
0
VERTEX
8
0
10
-2.077000
20
4.335720
0
VERTEX
8
0
10
-2.046520
20
4.366200
0
VERTEX
8
0
10
-1.853480
20
4.366200
0
SEQEND
8
0
0
CIRCLE
8
0
10
-1.950000
20
4.290000
40
0.100000
0
POLYLINE
8
0
66
1
70
1
40
0
41
0
0
VERTEX
8
0
10
-1.853480
20
4.112200
0
VERTEX
8
0
10
-1.823000
20
4.081720
0
VERTEX
8
0
10
-1.823000
20
3.990280
0
VERTEX
8
0
10
-1.853480
20
3.959800
0
VERTEX
8
0
10
-2.046520
20
3.959800
0
VERTEX
8
0
10
-2.077000
20
3.990280
0
VERTEX
8
0
10
-2.077000
20
4.081720
0
VERTEX
8
0
10
-2.046520
20
4.112200
0
VERTEX
8
0
10
-1.853480
20
4.112200
0
SEQEND
8
0
0
CIRCLE
8
0
10
-1.950000
20
4.036000
40
0.100000
0
POLYLINE
8
0
66
1
70
1
40
0
41
0
0
VERTEX
8
0
10
-1.853480
20
3.858200
0
VERTEX
8
0
10
-1.823000
20
3.827720
0
VERTEX
8
0
10
-1.823000
20
3.736280
0
VERTEX
8
0
10
-1.853480
20
3.705800
0
VERTEX
8
0
10
-2.046520
20
3.705800
0
VERTEX
8
0
10
-2.077000
20
3.736280
0
VERTEX
8
0
10
-2.077000
20
3.827720
0
VERTEX
8
0
10
-2.046520
20
3.858200
0
VERTEX
8
0
10
-1.853480
20
3.858200
0
SEQEND
8
0
0
CIRCLE
8
0
10
-1.950000
20
3.782000
40
0.100000
0
POLYLINE
8
0
66
1
70
1
40
0
41
0
0
VERTEX
8
0
10
-1.853480
20
3.604200
0
VERTEX
8
0
10
-1.823000
20
3.573720
0
VERTEX
8
0
10
-1.823000
20
3.482280
0
VERTEX
8
0
10
-1.853480
20
3.451800
0
VERTEX
8
0
10
-2.046520
20
3.451800
0
VERTEX
8
0
10
-2.077000
20
3.482280
0
VERTEX
8
0
10
-2.077000
20
3.573720
0
VERTEX
8
0
10
-2.046520
20
3.604200
0
VERTEX
8
0
10
-1.853480
20
3.604200
0
SEQEND
8
0
0
CIRCLE
8
0
10
-1.950000
20
3.528000
40
0.100000
0
POLYLINE
8
0
66
1
70
1
40
0
41
0
0
VERTEX
8
0
10
-1.853480
20
3.350200
0
VERTEX
8
0
10
-1.823000
20
3.319720
0
VERTEX
8
0
10
-1.823000
20
3.228280
0
VERTEX
8
0
10
-1.853480
20
3.197800
0
VERTEX
8
0
10
-2.046520
20
3.197800
0
VERTEX
8
0
10
-2.077000
20
3.228280
0
VERTEX
8
0
10
-2.077000
20
3.319720
0
VERTEX
8
0
10
-2.046520
20
3.350200
0
VERTEX
8
0
10
-1.853480
20
3.350200
0
SEQEND
8
0
0
CIRCLE
8
0
10
-1.950000
20
3.274000
40
0.100000
0
POLYLINE
8
0
66
1
70
1
40
0
41
0
0
VERTEX
8
0
10
-1.853480
20
3.096200
0
VERTEX
8
0
10
-1.823000
20
3.065720
0
VERTEX
8
0
10
-1.823000
20
2.974280
0
VERTEX
8
0
10
-1.853480
20
2.943800
0
VERTEX
8
0
10
-2.046520
20
2.943800
0
VERTEX
8
0
10
-2.077000
20
2.974280
0
VERTEX
8
0
10
-2.077000
20
3.065720
0
VERTEX
8
0
10
-2.046520
20
3.096200
0
VERTEX
8
0
10
-1.853480
20
3.096200
0
SEQEND
8
0
0
CIRCLE
8
0
10
-1.950000
20
3.020000
40
0.100000
0
POLYLINE
8
0
66
1
70
1
40
0
41
0
0
VERTEX
8
0
10
-1.853480
20
2.842200
0
VERTEX
8
0
10
-1.823000
20
2.811720
0
VERTEX
8
0
10
-1.823000
20
2.720280
0
VERTEX
8
0
10
-1.853480
20
2.689800
0
VERTEX
8
0
10
-2.046520
20
2.689800
0
VERTEX
8
0
10
-2.077000
20
2.720280
0
VERTEX
8
0
10
-2.077000
20
2.811720
0
VERTEX
8
0
10
-2.046520
20
2.842200
0
VERTEX
8
0
10
-1.853480
20
2.842200
0
SEQEND
8
0
0
CIRCLE
8
0
10
-1.950000
20
2.766000
40
0.100000
0
POLYLINE
8
0
66
1
70
1
40
0
41
0
0
VERTEX
8
0
10
-0.069480
20
4.614200
0
VERTEX
8
0
10
-0.039000
20
4.583720
0
VERTEX
8
0
10
-0.039000
20
4.492280
0
VERTEX
8
0
10
-0.069480
20
4.461800
0
VERTEX
8
0
10
-0.262520
20
4.461800
0
VERTEX
8
0
10
-0.293000
20
4.492280
0
VERTEX
8
0
10
-0.293000
20
4.583720
0
VERTEX
8
0
10
-0.262520
20
4.614200
0
VERTEX
8
0
10
-0.069480
20
4.614200
0
SEQEND
8
0
0
CIRCLE
8
0
10
-0.166000
20
4.538000
40
0.100000
0
POLYLINE
8
0
66
1
70
1
40
0
41
0
0
VERTEX
8
0
10
-0.069480
20
4.360200
0
VERTEX
8
0
10
-0.039000
20
4.329720
0
VERTEX
8
0
10
-0.039000
20
4.238280
0
VERTEX
8
0
10
-0.069480
20
4.207800
0
VERTEX
8
0
10
-0.262520
20
4.207800
0
VERTEX
8
0
10
-0.293000
20
4.238280
0
VERTEX
8
0
10
-0.293000
20
4.329720
0
VERTEX
8
0
10
-0.262520
20
4.360200
0
VERTEX
8
0
10
-0.069480
20
4.360200
0
SEQEND
8
0
0
CIRCLE
8
0
10
-0.166000
20
4.284000
40
0.100000
0
POLYLINE
8
0
66
1
70
1
40
0
41
0
0
VERTEX
8
0
10
-0.069480
20
4.106200
0
VERTEX
8
0
10
-0.039000
20
4.075720
0
VERTEX
8
0
10
-0.039000
20
3.984280
0
VERTEX
8
0
10
-0.069480
20
3.953800
0
VERTEX
8
0
10
-0.262520
20
3.953800
0
VERTEX
8
0
10
-0.293000
20
3.984280
0
VERTEX
8
0
10
-0.293000
20
4.075720
0
VERTEX
8
0
10
-0.262520
20
4.106200
0
VERTEX
8
0
10
-0.069480
20
4.106200
0
SEQEND
8
0
0
CIRCLE
8
0
10
-0.166000
20
4.030000
40
0.100000
0
POLYLINE
8
0
66
1
70
1
40
0
41
0
0
VERTEX
8
0
10
-0.069480
20
3.852200
0
VERTEX
8
0
10
-0.039000
20
3.821720
0
VERTEX
8
0
10
-0.039000
20
3.730280
0
VERTEX
8
0
10
-0.069480
20
3.699800
0
VERTEX
8
0
10
-0.262520
20
3.699800
0
VERTEX
8
0
10
-0.293000
20
3.730280
0
VERTEX
8
0
10
-0.293000
20
3.821720
0
VERTEX
8
0
10
-0.262520
20
3.852200
0
VERTEX
8
0
10
-0.069480
20
3.852200
0
SEQEND
8
0
0
CIRCLE
8
0
10
-0.166000
20
3.776000
40
0.100000
0
POLYLINE
8
0
66
1
70
1
40
0
41
0
0
VERTEX
8
0
10
-0.069480
20
3.598200
0
VERTEX
8
0
10
-0.039000
20
3.567720
0
VERTEX
8
0
10
-0.039000
20
3.476280
0
VERTEX
8
0
10
-0.069480
20
3.445800
0
VERTEX
8
0
10
-0.262520
20
3.445800
0
VERTEX
8
0
10
-0.293000
20
3.476280
0
VERTEX
8
0
10
-0.293000
20
3.567720
0
VERTEX
8
0
10
-0.262520
20
3.598200
0
VERTEX
8
0
10
-0.069480
20
3.598200
0
SEQEND
8
0
0
CIRCLE
8
0
10
-0.166000
20
3.522000
40
0.100000
0
POLYLINE
8
0
66
1
70
1
40
0
41
0
0
VERTEX
8
0
10
-0.069480
20
3.344200
0
VERTEX
8
0
10
-0.039000
20
3.313720
0
VERTEX
8
0
10
-0.039000
20
3.222280
0
VERTEX
8
0
10
-0.069480
20
3.191800
0
VERTEX
8
0
10
-0.262520
20
3.191800
0
VERTEX
8
0
10
-0.293000
20
3.222280
0
VERTEX
8
0
10
-0.293000
20
3.313720
0
VERTEX
8
0
10
-0.262520
20
3.344200
0
VERTEX
8
0
10
-0.069480
20
3.344200
0
SEQEND
8
0
0
CIRCLE
8
0
10
-0.166000
20
3.268000
40
0.100000
0
POLYLINE
8
0
66
1
70
1
40
0
41
0
0
VERTEX
8
0
10
-0.069480
20
3.090200
0
VERTEX
8
0
10
-0.039000
20
3.059720
0
VERTEX
8
0
10
-0.039000
20
2.968280
0
VERTEX
8
0
10
-0.069480
20
2.937800
0
VERTEX
8
0
10
-0.262520
20
2.937800
0
VERTEX
8
0
10
-0.293000
20
2.968280
0
VERTEX
8
0
10
-0.293000
20
3.059720
0
VERTEX
8
0
10
-0.262520
20
3.090200
0
VERTEX
8
0
10
-0.069480
20
3.090200
0
SEQEND
8
0
0
CIRCLE
8
0
10
-0.166000
20
3.014000
40
0.100000
0
POLYLINE
8
0
66
1
70
1
40
0
41
0
0
VERTEX
8
0
10
-0.069480
20
2.836200
0
VERTEX
8
0
10
-0.039000
20
2.805720
0
VERTEX
8
0
10
-0.039000
20
2.714280
0
VERTEX
8
0
10
-0.069480
20
2.683800
0
VERTEX
8
0
10
-0.262520
20
2.683800
0
VERTEX
8
0
10
-0.293000
20
2.714280
0
VERTEX
8
0
10
-0.293000
20
2.805720
0
VERTEX
8
0
10
-0.262520
20
2.836200
0
VERTEX
8
0
10
-0.069480
20
2.836200
0
SEQEND
8
0
0
CIRCLE
8
0
10
-0.166000
20
2.760000
40
0.100000
0
POLYLINE
8
0
66
1
70
1
40
0
41
0
0
VERTEX
8
0
10
1.150000
20
4.740000
0
VERTEX
8
0
10
1.150000
20
4.760000
0
VERTEX
8
0
10
1.151393
20
4.774313
0
VERTEX
8
0
10
1.155400
20
4.787549
0
VERTEX
8
0
10
1.161766
20
4.799452
0
VERTEX
8
0
10
1.170234
20
4.809766
0
VERTEX
8
0
10
1.180548
20
4.818234
0
VERTEX
8
0
10
1.192451
20
4.824600
0
VERTEX
8
0
10
1.205687
20
4.828607
0
VERTEX
8
0
10
1.220000
20
4.830000
0
VERTEX
8
0
10
1.280000
20
4.830000
0
VERTEX
8
0
10
1.294313
20
4.828607
0
VERTEX
8
0
10
1.307549
20
4.824600
0
VERTEX
8
0
10
1.319452
20
4.818234
0
VERTEX
8
0
10
1.329766
20
4.809766
0
VERTEX
8
0
10
1.338234
20
4.799452
0
VERTEX
8
0
10
1.344600
20
4.787549
0
VERTEX
8
0
10
1.348607
20
4.774313
0
VERTEX
8
0
10
1.350000
20
4.760000
0
VERTEX
8
0
10
1.350000
20
4.740000
0
VERTEX
8
0
10
1.348607
20
4.725687
0
VERTEX
8
0
10
1.344600
20
4.712451
0
VERTEX
8
0
10
1.338234
20
4.700548
0
VERTEX
8
0
10
1.329766
20
4.690234
0
VERTEX
8
0
10
1.319452
20
4.681766
0
VERTEX
8
0
10
1.307549
20
4.675400
0
VERTEX
8
0
10
1.294313
20
4.671393
0
VERTEX
8
0
10
1.280000
20
4.670000
0
VERTEX
8
0
10
1.220000
20
4.670000
0
VERTEX
8
0
10
1.205687
20
4.671393
0
VERTEX
8
0
10
1.192451
20
4.675400
0
VERTEX
8
0
10
1.180548
20
4.681766
0
VERTEX
8
0
10
1.170234
20
4.690234
0
VERTEX
8
0
10
1.161766
20
4.700548
0
VERTEX
8
0
10
1.155400
20
4.712451
0
VERTEX
8
0
10
1.151393
20
4.725687
0
VERTEX
8
0
10
1.150000
20
4.740000
0
SEQEND
8
0
0
CIRCLE
8
0
10
1.250000
20
4.750000
40
0.025400
0
POLYLINE
8
0
66
1
70
1
40
0
41
0
0
VERTEX
8
0
10
1.150000
20
4.994000
0
VERTEX
8
0
10
1.150000
20
5.014000
0
VERTEX
8
0
10
1.151393
20
5.028313
0
VERTEX
8
0
10
1.155400
20
5.041549
0
VERTEX
8
0
10
1.161766
20
5.053452
0
VERTEX
8
0
10
1.170234
20
5.063766
0
VERTEX
8
0
10
1.180548
20
5.072234
0
VERTEX
8
0
10
1.192451
20
5.078600
0
VERTEX
8
0
10
1.205687
20
5.082607
0
VERTEX
8
0
10
1.220000
20
5.084000
0
VERTEX
8
0
10
1.280000
20
5.084000
0
VERTEX
8
0
10
1.294313
20
5.082607
0
VERTEX
8
0
10
1.307549
20
5.078600
0
VERTEX
8
0
10
1.319452
20
5.072234
0
VERTEX
8
0
10
1.329766
20
5.063766
0
VERTEX
8
0
10
1.338234
20
5.053452
0
VERTEX
8
0
10
1.344600
20
5.041549
0
VERTEX
8
0
10
1.348607
20
5.028313
0
VERTEX
8
0
10
1.350000
20
5.014000
0
VERTEX
8
0
10
1.350000
20
4.994000
0
VERTEX
8
0
10
1.348607
20
4.979687
0
VERTEX
8
0
10
1.344600
20
4.966451
0
VERTEX
8
0
10
1.338234
20
4.954548
0
VERTEX
8
0
10
1.329766
20
4.944234
0
VERTEX
8
0
10
1.319452
20
4.935766
0
VERTEX
8
0
10
1.307549
20
4.929400
0
VERTEX
8
0
10
1.294313
20
4.925393
0
VERTEX
8
0
10
1.280000
20
4.924000
0
VERTEX
8
0
10
1.220000
20
4.924000
0
VERTEX
8
0
10
1.205687
20
4.925393
0
VERTEX
8
0
10
1.192451
20
4.929400
0
VERTEX
8
0
10
1.180548
20
4.935766
0
VERTEX
8
0
10
1.170234
20
4.944234
0
VERTEX
8
0
10
1.161766
20
4.954548
0
VERTEX
8
0
10
1.155400
20
4.966451
0
VERTEX
8
0
10
1.151393
20
4.979687
0
VERTEX
8
0
10
1.150000
20
4.994000
0
SEQEND
8
0
0
CIRCLE
8
0
10
1.250000
20
5.004000
40
0.025400
0
POLYLINE
8
0
66
1
70
1
40
0
41
0
0
VERTEX
8
0
10
1.150000
20
5.248000
0
VERTEX
8
0
10
1.150000
20
5.268000
0
VERTEX
8
0
10
1.151393
20
5.282313
0
VERTEX
8
0
10
1.155400
20
5.295549
0
VERTEX
8
0
10
1.161766
20
5.307452
0
VERTEX
8
0
10
1.170234
20
5.317766
0
VERTEX
8
0
10
1.180548
20
5.326234
0
VERTEX
8
0
10
1.192451
20
5.332600
0
VERTEX
8
0
10
1.205687
20
5.336607
0
VERTEX
8
0
10
1.220000
20
5.338000
0
VERTEX
8
0
10
1.280000
20
5.338000
0
VERTEX
8
0
10
1.294313
20
5.336607
0
VERTEX
8
0
10
1.307549
20
5.332600
0
VERTEX
8
0
10
1.319452
20
5.326234
0
VERTEX
8
0
10
1.329766
20
5.317766
0
VERTEX
8
0
10
1.338234
20
5.307452
0
VERTEX
8
0
10
1.344600
20
5.295549
0
VERTEX
8
0
10
1.348607
20
5.282313
0
VERTEX
8
0
10
1.350000
20
5.268000
0
VERTEX
8
0
10
1.350000
20
5.248000
0
VERTEX
8
0
10
1.348607
20
5.233687
0
VERTEX
8
0
10
1.344600
20
5.220451
0
VERTEX
8
0
10
1.338234
20
5.208548
0
VERTEX
8
0
10
1.329766
20
5.198234
0
VERTEX
8
0
10
1.319452
20
5.189766
0
VERTEX
8
0
10
1.307549
20
5.183400
0
VERTEX
8
0
10
1.294313
20
5.179393
0
VERTEX
8
0
10
1.280000
20
5.178000
0
VERTEX
8
0
10
1.220000
20
5.178000
0
VERTEX
8
0
10
1.205687
20
5.179393
0
VERTEX
8
0
10
1.192451
20
5.183400
0
VERTEX
8
0
10
1.180548
20
5.189766
0
VERTEX
8
0
10
1.170234
20
5.198234
0
VERTEX
8
0
10
1.161766
20
5.208548
0
VERTEX
8
0
10
1.155400
20
5.220451
0
VERTEX
8
0
10
1.151393
20
5.233687
0
VERTEX
8
0
10
1.150000
20
5.248000
0
SEQEND
8
0
0
CIRCLE
8
0
10
1.250000
20
5.258000
40
0.025400
0
POLYLINE
8
0
66
1
70
1
40
0
41
0
0
VERTEX
8
0
10
1.150000
20
5.502000
0
VERTEX
8
0
10
1.150000
20
5.522000
0
VERTEX
8
0
10
1.151393
20
5.536313
0
VERTEX
8
0
10
1.155400
20
5.549549
0
VERTEX
8
0
10
1.161766
20
5.561452
0
VERTEX
8
0
10
1.170234
20
5.571766
0
VERTEX
8
0
10
1.180548
20
5.580234
0
VERTEX
8
0
10
1.192451
20
5.586600
0
VERTEX
8
0
10
1.205687
20
5.590607
0
VERTEX
8
0
10
1.220000
20
5.592000
0
VERTEX
8
0
10
1.280000
20
5.592000
0
VERTEX
8
0
10
1.294313
20
5.590607
0
VERTEX
8
0
10
1.307549
20
5.586600
0
VERTEX
8
0
10
1.319452
20
5.580234
0
VERTEX
8
0
10
1.329766
20
5.571766
0
VERTEX
8
0
10
1.338234
20
5.561452
0
VERTEX
8
0
10
1.344600
20
5.549549
0
VERTEX
8
0
10
1.348607
20
5.536313
0
VERTEX
8
0
10
1.350000
20
5.522000
0
VERTEX
8
0
10
1.350000
20
5.502000
0
VERTEX
8
0
10
1.348607
20
5.487687
0
VERTEX
8
0
10
1.344600
20
5.474451
0
VERTEX
8
0
10
1.338234
20
5.462548
0
VERTEX
8
0
10
1.329766
20
5.452234
0
VERTEX
8
0
10
1.319452
20
5.443766
0
VERTEX
8
0
10
1.307549
20
5.437400
0
VERTEX
8
0
10
1.294313
20
5.433393
0
VERTEX
8
0
10
1.280000
20
5.432000
0
VERTEX
8
0
10
1.220000
20
5.432000
0
VERTEX
8
0
10
1.205687
20
5.433393
0
VERTEX
8
0
10
1.192451
20
5.437400
0
VERTEX
8
0
10
1.180548
20
5.443766
0
VERTEX
8
0
10
1.170234
20
5.452234
0
VERTEX
8
0
10
1.161766
20
5.462548
0
VERTEX
8
0
10
1.155400
20
5.474451
0
VERTEX
8
0
10
1.151393
20
5.487687
0
VERTEX
8
0
10
1.150000
20
5.502000
0
SEQEND
8
0
0
CIRCLE
8
0
10
1.250000
20
5.512000
40
0.025400
0
POLYLINE
8
0
66
1
70
1
40
0
41
0
0
VERTEX
8
0
10
1.150000
20
5.756000
0
VERTEX
8
0
10
1.150000
20
5.776000
0
VERTEX
8
0
10
1.151393
20
5.790313
0
VERTEX
8
0
10
1.155400
20
5.803549
0
VERTEX
8
0
10
1.161766
20
5.815452
0
VERTEX
8
0
10
1.170234
20
5.825766
0
VERTEX
8
0
10
1.180548
20
5.834234
0
VERTEX
8
0
10
1.192451
20
5.840600
0
VERTEX
8
0
10
1.205687
20
5.844607
0
VERTEX
8
0
10
1.220000
20
5.846000
0
VERTEX
8
0
10
1.280000
20
5.846000
0
VERTEX
8
0
10
1.294313
20
5.844607
0
VERTEX
8
0
10
1.307549
20
5.840600
0
VERTEX
8
0
10
1.319452
20
5.834234
0
VERTEX
8
0
10
1.329766
20
5.825766
0
VERTEX
8
0
10
1.338234
20
5.815452
0
VERTEX
8
0
10
1.344600
20
5.803549
0
VERTEX
8
0
10
1.348607
20
5.790313
0
VERTEX
8
0
10
1.350000
20
5.776000
0
VERTEX
8
0
10
1.350000
20
5.756000
0
VERTEX
8
0
10
1.348607
20
5.741687
0
VERTEX
8
0
10
1.344600
20
5.728451
0
VERTEX
8
0
10
1.338234
20
5.716548
0
VERTEX
8
0
10
1.329766
20
5.706234
0
VERTEX
8
0
10
1.319452
20
5.697766
0
VERTEX
8
0
10
1.307549
20
5.691400
0
VERTEX
8
0
10
1.294313
20
5.687393
0
VERTEX
8
0
10
1.280000
20
5.686000
0
VERTEX
8
0
10
1.220000
20
5.686000
0
VERTEX
8
0
10
1.205687
20
5.687393
0
VERTEX
8
0
10
1.192451
20
5.691400
0
VERTEX
8
0
10
1.180548
20
5.697766
0
VERTEX
8
0
10
1.170234
20
5.706234
0
VERTEX
8
0
10
1.161766
20
5.716548
0
VERTEX
8
0
10
1.155400
20
5.728451
0
VERTEX
8
0
10
1.151393
20
5.741687
0
VERTEX
8
0
10
1.150000
20
5.756000
0
SEQEND
8
0
0
CIRCLE
8
0
10
1.250000
20
5.766000
40
0.025400
0
POLYLINE
8
0
66
1
70
1
40
0
41
0
0
VERTEX
8
0
10
1.150000
20
6.010000
0
VERTEX
8
0
10
1.150000
20
6.030000
0
VERTEX
8
0
10
1.151393
20
6.044313
0
VERTEX
8
0
10
1.155400
20
6.057549
0
VERTEX
8
0
10
1.161766
20
6.069452
0
VERTEX
8
0
10
1.170234
20
6.079766
0
VERTEX
8
0
10
1.180548
20
6.088234
0
VERTEX
8
0
10
1.192451
20
6.094600
0
VERTEX
8
0
10
1.205687
20
6.098607
0
VERTEX
8
0
10
1.220000
20
6.100000
0
VERTEX
8
0
10
1.280000
20
6.100000
0
VERTEX
8
0
10
1.294313
20
6.098607
0
VERTEX
8
0
10
1.307549
20
6.094600
0
VERTEX
8
0
10
1.319452
20
6.088234
0
VERTEX
8
0
10
1.329766
20
6.079766
0
VERTEX
8
0
10
1.338234
20
6.069452
0
VERTEX
8
0
10
1.344600
20
6.057549
0
VERTEX
8
0
10
1.348607
20
6.044313
0
VERTEX
8
0
10
1.350000
20
6.030000
0
VERTEX
8
0
10
1.350000
20
6.010000
0
VERTEX
8
0
10
1.348607
20
5.995687
0
VERTEX
8
0
10
1.344600
20
5.982451
0
VERTEX
8
0
10
1.338234
20
5.970548
0
VERTEX
8
0
10
1.329766
20
5.960234
0
VERTEX
8
0
10
1.319452
20
5.951766
0
VERTEX
8
0
10
1.307549
20
5.945400
0
VERTEX
8
0
10
1.294313
20
5.941393
0
VERTEX
8
0
10
1.280000
20
5.940000
0
VERTEX
8
0
10
1.220000
20
5.940000
0
VERTEX
8
0
10
1.205687
20
5.941393
0
VERTEX
8
0
10
1.192451
20
5.945400
0
VERTEX
8
0
10
1.180548
20
5.951766
0
VERTEX
8
0
10
1.170234
20
5.960234
0
VERTEX
8
0
10
1.161766
20
5.970548
0
VERTEX
8
0
10
1.155400
20
5.982451
0
VERTEX
8
0
10
1.151393
20
5.995687
0
VERTEX
8
0
10
1.150000
20
6.010000
0
SEQEND
8
0
0
CIRCLE
8
0
10
1.250000
20
6.020000
40
0.025400
0
POLYLINE
8
0
66
1
70
1
40
0
41
0
0
VERTEX
8
0
10
1.150000
20
6.264000
0
VERTEX
8
0
10
1.150000
20
6.284000
0
VERTEX
8
0
10
1.151393
20
6.298313
0
VERTEX
8
0
10
1.155400
20
6.311549
0
VERTEX
8
0
10
1.161766
20
6.323452
0
VERTEX
8
0
10
1.170234
20
6.333766
0
VERTEX
8
0
10
1.180548
20
6.342234
0
VERTEX
8
0
10
1.192451
20
6.348600
0
VERTEX
8
0
10
1.205687
20
6.352607
0
VERTEX
8
0
10
1.220000
20
6.354000
0
VERTEX
8
0
10
1.280000
20
6.354000
0
VERTEX
8
0
10
1.294313
20
6.352607
0
VERTEX
8
0
10
1.307549
20
6.348600
0
VERTEX
8
0
10
1.319452
20
6.342234
0
VERTEX
8
0
10
1.329766
20
6.333766
0
VERTEX
8
0
10
1.338234
20
6.323452
0
VERTEX
8
0
10
1.344600
20
6.311549
0
VERTEX
8
0
10
1.348607
20
6.298313
0
VERTEX
8
0
10
1.350000
20
6.284000
0
VERTEX
8
0
10
1.350000
20
6.264000
0
VERTEX
8
0
10
1.348607
20
6.249687
0
VERTEX
8
0
10
1.344600
20
6.236451
0
VERTEX
8
0
10
1.338234
20
6.224548
0
VERTEX
8
0
10
1.329766
20
6.214234
0
VERTEX
8
0
10
1.319452
20
6.205766
0
VERTEX
8
0
10
1.307549
20
6.199400
0
VERTEX
8
0
10
1.294313
20
6.195393
0
VERTEX
8
0
10
1.280000
20
6.194000
0
VERTEX
8
0
10
1.220000
20
6.194000
0
VERTEX
8
0
10
1.205687
20
6.195393
0
VERTEX
8
0
10
1.192451
20
6.199400
0
VERTEX
8
0
10
1.180548
20
6.205766
0
VERTEX
8
0
10
1.170234
20
6.214234
0
VERTEX
8
0
10
1.161766
20
6.224548
0
VERTEX
8
0
10
1.155400
20
6.236451
0
VERTEX
8
0
10
1.151393
20
6.249687
0
VERTEX
8
0
10
1.150000
20
6.264000
0
SEQEND
8
0
0
CIRCLE
8
0
10
1.250000
20
6.274000
40
0.025400
0
POLYLINE
8
0
66
1
70
1
40
0
41
0
0
VERTEX
8
0
10
1.150000
20
6.764000
0
VERTEX
8
0
10
1.150000
20
6.784000
0
VERTEX
8
0
10
1.151393
20
6.798313
0
VERTEX
8
0
10
1.155400
20
6.811549
0
VERTEX
8
0
10
1.161766
20
6.823452
0
VERTEX
8
0
10
1.170234
20
6.833766
0
VERTEX
8
0
10
1.180548
20
6.842234
0
VERTEX
8
0
10
1.192451
20
6.848600
0
VERTEX
8
0
10
1.205687
20
6.852607
0
VERTEX
8
0
10
1.220000
20
6.854000
0
VERTEX
8
0
10
1.280000
20
6.854000
0
VERTEX
8
0
10
1.294313
20
6.852607
0
VERTEX
8
0
10
1.307549
20
6.848600
0
VERTEX
8
0
10
1.319452
20
6.842234
0
VERTEX
8
0
10
1.329766
20
6.833766
0
VERTEX
8
0
10
1.338234
20
6.823452
0
VERTEX
8
0
10
1.344600
20
6.811549
0
VERTEX
8
0
10
1.348607
20
6.798313
0
VERTEX
8
0
10
1.350000
20
6.784000
0
VERTEX
8
0
10
1.350000
20
6.764000
0
VERTEX
8
0
10
1.348607
20
6.749687
0
VERTEX
8
0
10
1.344600
20
6.736451
0
VERTEX
8
0
10
1.338234
20
6.724548
0
VERTEX
8
0
10
1.329766
20
6.714234
0
VERTEX
8
0
10
1.319452
20
6.705766
0
VERTEX
8
0
10
1.307549
20
6.699400
0
VERTEX
8
0
10
1.294313
20
6.695393
0
VERTEX
8
0
10
1.280000
20
6.694000
0
VERTEX
8
0
10
1.220000
20
6.694000
0
VERTEX
8
0
10
1.205687
20
6.695393
0
VERTEX
8
0
10
1.192451
20
6.699400
0
VERTEX
8
0
10
1.180548
20
6.705766
0
VERTEX
8
0
10
1.170234
20
6.714234
0
VERTEX
8
0
10
1.161766
20
6.724548
0
VERTEX
8
0
10
1.155400
20
6.736451
0
VERTEX
8
0
10
1.151393
20
6.749687
0
VERTEX
8
0
10
1.150000
20
6.764000
0
SEQEND
8
0
0
CIRCLE
8
0
10
1.250000
20
6.774000
40
0.025400
0
POLYLINE
8
0
66
1
70
1
40
0
41
0
0
VERTEX
8
0
10
1.150000
20
7.018000
0
VERTEX
8
0
10
1.150000
20
7.038000
0
VERTEX
8
0
10
1.151393
20
7.052313
0
VERTEX
8
0
10
1.155400
20
7.065549
0
VERTEX
8
0
10
1.161766
20
7.077452
0
VERTEX
8
0
10
1.170234
20
7.087766
0
VERTEX
8
0
10
1.180548
20
7.096234
0
VERTEX
8
0
10
1.192451
20
7.102600
0
VERTEX
8
0
10
1.205687
20
7.106607
0
VERTEX
8
0
10
1.220000
20
7.108000
0
VERTEX
8
0
10
1.280000
20
7.108000
0
VERTEX
8
0
10
1.294313
20
7.106607
0
VERTEX
8
0
10
1.307549
20
7.102600
0
VERTEX
8
0
10
1.319452
20
7.096234
0
VERTEX
8
0
10
1.329766
20
7.087766
0
VERTEX
8
0
10
1.338234
20
7.077452
0
VERTEX
8
0
10
1.344600
20
7.065549
0
VERTEX
8
0
10
1.348607
20
7.052313
0
VERTEX
8
0
10
1.350000
20
7.038000
0
VERTEX
8
0
10
1.350000
20
7.018000
0
VERTEX
8
0
10
1.348607
20
7.003687
0
VERTEX
8
0
10
1.344600
20
6.990451
0
VERTEX
8
0
10
1.338234
20
6.978548
0
VERTEX
8
0
10
1.329766
20
6.968234
0
VERTEX
8
0
10
1.319452
20
6.959766
0
VERTEX
8
0
10
1.307549
20
6.953400
0
VERTEX
8
0
10
1.294313
20
6.949393
0
VERTEX
8
0
10
1.280000
20
6.948000
0
VERTEX
8
0
10
1.220000
20
6.948000
0
VERTEX
8
0
10
1.205687
20
6.949393
0
VERTEX
8
0
10
1.192451
20
6.953400
0
VERTEX
8
0
10
1.180548
20
6.959766
0
VERTEX
8
0
10
1.170234
20
6.968234
0
VERTEX
8
0
10
1.161766
20
6.978548
0
VERTEX
8
0
10
1.155400
20
6.990451
0
VERTEX
8
0
10
1.151393
20
7.003687
0
VERTEX
8
0
10
1.150000
20
7.018000
0
SEQEND
8
0
0
CIRCLE
8
0
10
1.250000
20
7.028000
40
0.025400
0
POLYLINE
8
0
66
1
70
1
40
0
41
0
0
VERTEX
8
0
10
1.150000
20
7.272000
0
VERTEX
8
0
10
1.150000
20
7.292000
0
VERTEX
8
0
10
1.151393
20
7.306313
0
VERTEX
8
0
10
1.155400
20
7.319549
0
VERTEX
8
0
10
1.161766
20
7.331452
0
VERTEX
8
0
10
1.170234
20
7.341766
0
VERTEX
8
0
10
1.180548
20
7.350234
0
VERTEX
8
0
10
1.192451
20
7.356600
0
VERTEX
8
0
10
1.205687
20
7.360607
0
VERTEX
8
0
10
1.220000
20
7.362000
0
VERTEX
8
0
10
1.280000
20
7.362000
0
VERTEX
8
0
10
1.294313
20
7.360607
0
VERTEX
8
0
10
1.307549
20
7.356600
0
VERTEX
8
0
10
1.319452
20
7.350234
0
VERTEX
8
0
10
1.329766
20
7.341766
0
VERTEX
8
0
10
1.338234
20
7.331452
0
VERTEX
8
0
10
1.344600
20
7.319549
0
VERTEX
8
0
10
1.348607
20
7.306313
0
VERTEX
8
0
10
1.350000
20
7.292000
0
VERTEX
8
0
10
1.350000
20
7.272000
0
VERTEX
8
0
10
1.348607
20
7.257687
0
VERTEX
8
0
10
1.344600
20
7.244451
0
VERTEX
8
0
10
1.338234
20
7.232548
0
VERTEX
8
0
10
1.329766
20
7.222234
0
VERTEX
8
0
10
1.319452
20
7.213766
0
VERTEX
8
0
10
1.307549
20
7.207400
0
VERTEX
8
0
10
1.294313
20
7.203393
0
VERTEX
8
0
10
1.280000
20
7.202000
0
VERTEX
8
0
10
1.220000
20
7.202000
0
VERTEX
8
0
10
1.205687
20
7.203393
0
VERTEX
8
0
10
1.192451
20
7.207400
0
VERTEX
8
0
10
1.180548
20
7.213766
0
VERTEX
8
0
10
1.170234
20
7.222234
0
VERTEX
8
0
10
1.161766
20
7.232548
0
VERTEX
8
0
10
1.155400
20
7.244451
0
VERTEX
8
0
10
1.151393
20
7.257687
0
VERTEX
8
0
10
1.150000
20
7.272000
0
SEQEND
8
0
0
CIRCLE
8
0
10
1.250000
20
7.282000
40
0.025400
0
POLYLINE
8
0
66
1
70
1
40
0
41
0
0
VERTEX
8
0
10
1.150000
20
7.526000
0
VERTEX
8
0
10
1.150000
20
7.546000
0
VERTEX
8
0
10
1.151393
20
7.560313
0
VERTEX
8
0
10
1.155400
20
7.573549
0
VERTEX
8
0
10
1.161766
20
7.585452
0
VERTEX
8
0
10
1.170234
20
7.595766
0
VERTEX
8
0
10
1.180548
20
7.604234
0
VERTEX
8
0
10
1.192451
20
7.610600
0
VERTEX
8
0
10
1.205687
20
7.614607
0
VERTEX
8
0
10
1.220000
20
7.616000
0
VERTEX
8
0
10
1.280000
20
7.616000
0
VERTEX
8
0
10
1.294313
20
7.614607
0
VERTEX
8
0
10
1.307549
20
7.610600
0
VERTEX
8
0
10
1.319452
20
7.604234
0
VERTEX
8
0
10
1.329766
20
7.595766
0
VERTEX
8
0
10
1.338234
20
7.585452
0
VERTEX
8
0
10
1.344600
20
7.573549
0
VERTEX
8
0
10
1.348607
20
7.560313
0
VERTEX
8
0
10
1.350000
20
7.546000
0
VERTEX
8
0
10
1.350000
20
7.526000
0
VERTEX
8
0
10
1.348607
20
7.511687
0
VERTEX
8
0
10
1.344600
20
7.498451
0
VERTEX
8
0
10
1.338234
20
7.486548
0
VERTEX
8
0
10
1.329766
20
7.476234
0
VERTEX
8
0
10
1.319452
20
7.467766
0
VERTEX
8
0
10
1.307549
20
7.461400
0
VERTEX
8
0
10
1.294313
20
7.457393
0
VERTEX
8
0
10
1.280000
20
7.456000
0
VERTEX
8
0
10
1.220000
20
7.456000
0
VERTEX
8
0
10
1.205687
20
7.457393
0
VERTEX
8
0
10
1.192451
20
7.461400
0
VERTEX
8
0
10
1.180548
20
7.467766
0
VERTEX
8
0
10
1.170234
20
7.476234
0
VERTEX
8
0
10
1.161766
20
7.486548
0
VERTEX
8
0
10
1.155400
20
7.498451
0
VERTEX
8
0
10
1.151393
20
7.511687
0
VERTEX
8
0
10
1.150000
20
7.526000
0
SEQEND
8
0
0
CIRCLE
8
0
10
1.250000
20
7.536000
40
0.025400
0
POLYLINE
8
0
66
1
70
1
40
0
41
0
0
VERTEX
8
0
10
1.150000
20
7.780000
0
VERTEX
8
0
10
1.150000
20
7.800000
0
VERTEX
8
0
10
1.151393
20
7.814313
0
VERTEX
8
0
10
1.155400
20
7.827549
0
VERTEX
8
0
10
1.161766
20
7.839452
0
VERTEX
8
0
10
1.170234
20
7.849766
0
VERTEX
8
0
10
1.180548
20
7.858234
0
VERTEX
8
0
10
1.192451
20
7.864600
0
VERTEX
8
0
10
1.205687
20
7.868607
0
VERTEX
8
0
10
1.220000
20
7.870000
0
VERTEX
8
0
10
1.280000
20
7.870000
0
VERTEX
8
0
10
1.294313
20
7.868607
0
VERTEX
8
0
10
1.307549
20
7.864600
0
VERTEX
8
0
10
1.319452
20
7.858234
0
VERTEX
8
0
10
1.329766
20
7.849766
0
VERTEX
8
0
10
1.338234
20
7.839452
0
VERTEX
8
0
10
1.344600
20
7.827549
0
VERTEX
8
0
10
1.348607
20
7.814313
0
VERTEX
8
0
10
1.350000
20
7.800000
0
VERTEX
8
0
10
1.350000
20
7.780000
0
VERTEX
8
0
10
1.348607
20
7.765687
0
VERTEX
8
0
10
1.344600
20
7.752451
0
VERTEX
8
0
10
1.338234
20
7.740548
0
VERTEX
8
0
10
1.329766
20
7.730234
0
VERTEX
8
0
10
1.319452
20
7.721766
0
VERTEX
8
0
10
1.307549
20
7.715400
0
VERTEX
8
0
10
1.294313
20
7.711393
0
VERTEX
8
0
10
1.280000
20
7.710000
0
VERTEX
8
0
10
1.220000
20
7.710000
0
VERTEX
8
0
10
1.205687
20
7.711393
0
VERTEX
8
0
10
1.192451
20
7.715400
0
VERTEX
8
0
10
1.180548
20
7.721766
0
VERTEX
8
0
10
1.170234
20
7.730234
0
VERTEX
8
0
10
1.161766
20
7.740548
0
VERTEX
8
0
10
1.155400
20
7.752451
0
VERTEX
8
0
10
1.151393
20
7.765687
0
VERTEX
8
0
10
1.150000
20
7.780000
0
SEQEND
8
0
0
CIRCLE
8
0
10
1.250000
20
7.790000
40
0.025400
0
POLYLINE
8
0
66
1
70
1
40
0
41
0
0
VERTEX
8
0
10
1.150000
20
8.034000
0
VERTEX
8
0
10
1.150000
20
8.054000
0
VERTEX
8
0
10
1.151393
20
8.068313
0
VERTEX
8
0
10
1.155400
20
8.081549
0
VERTEX
8
0
10
1.161766
20
8.093452
0
VERTEX
8
0
10
1.170234
20
8.103766
0
VERTEX
8
0
10
1.180548
20
8.112234
0
VERTEX
8
0
10
1.192451
20
8.118600
0
VERTEX
8
0
10
1.205687
20
8.122607
0
VERTEX
8
0
10
1.220000
20
8.124000
0
VERTEX
8
0
10
1.280000
20
8.124000
0
VERTEX
8
0
10
1.294313
20
8.122607
0
VERTEX
8
0
10
1.307549
20
8.118600
0
VERTEX
8
0
10
1.319452
20
8.112234
0
VERTEX
8
0
10
1.329766
20
8.103766
0
VERTEX
8
0
10
1.338234
20
8.093452
0
VERTEX
8
0
10
1.344600
20
8.081549
0
VERTEX
8
0
10
1.348607
20
8.068313
0
VERTEX
8
0
10
1.350000
20
8.054000
0
VERTEX
8
0
10
1.350000
20
8.034000
0
VERTEX
8
0
10
1.348607
20
8.019687
0
VERTEX
8
0
10
1.344600
20
8.006451
0
VERTEX
8
0
10
1.338234
20
7.994548
0
VERTEX
8
0
10
1.329766
20
7.984234
0
VERTEX
8
0
10
1.319452
20
7.975766
0
VERTEX
8
0
10
1.307549
20
7.969400
0
VERTEX
8
0
10
1.294313
20
7.965393
0
VERTEX
8
0
10
1.280000
20
7.964000
0
VERTEX
8
0
10
1.220000
20
7.964000
0
VERTEX
8
0
10
1.205687
20
7.965393
0
VERTEX
8
0
10
1.192451
20
7.969400
0
VERTEX
8
0
10
1.180548
20
7.975766
0
VERTEX
8
0
10
1.170234
20
7.984234
0
VERTEX
8
0
10
1.161766
20
7.994548
0
VERTEX
8
0
10
1.155400
20
8.006451
0
VERTEX
8
0
10
1.151393
20
8.019687
0
VERTEX
8
0
10
1.150000
20
8.034000
0
SEQEND
8
0
0
CIRCLE
8
0
10
1.250000
20
8.044000
40
0.025400
0
POLYLINE
8
0
66
1
70
1
40
0
41
0
0
VERTEX
8
0
10
-3.710000
20
8.034000
0
VERTEX
8
0
10
-3.710000
20
8.054000
0
VERTEX
8
0
10
-3.708607
20
8.068313
0
VERTEX
8
0
10
-3.704600
20
8.081549
0
VERTEX
8
0
10
-3.698234
20
8.093452
0
VERTEX
8
0
10
-3.689766
20
8.103766
0
VERTEX
8
0
10
-3.679452
20
8.112234
0
VERTEX
8
0
10
-3.667549
20
8.118600
0
VERTEX
8
0
10
-3.654313
20
8.122607
0
VERTEX
8
0
10
-3.640000
20
8.124000
0
VERTEX
8
0
10
-3.580000
20
8.124000
0
VERTEX
8
0
10
-3.565687
20
8.122607
0
VERTEX
8
0
10
-3.552451
20
8.118600
0
VERTEX
8
0
10
-3.540548
20
8.112234
0
VERTEX
8
0
10
-3.530234
20
8.103766
0
VERTEX
8
0
10
-3.521766
20
8.093452
0
VERTEX
8
0
10
-3.515400
20
8.081549
0
VERTEX
8
0
10
-3.511393
20
8.068313
0
VERTEX
8
0
10
-3.510000
20
8.054000
0
VERTEX
8
0
10
-3.510000
20
8.034000
0
VERTEX
8
0
10
-3.511393
20
8.019687
0
VERTEX
8
0
10
-3.515400
20
8.006451
0
VERTEX
8
0
10
-3.521766
20
7.994548
0
VERTEX
8
0
10
-3.530234
20
7.984234
0
VERTEX
8
0
10
-3.540548
20
7.975766
0
VERTEX
8
0
10
-3.552451
20
7.969400
0
VERTEX
8
0
10
-3.565687
20
7.965393
0
VERTEX
8
0
10
-3.580000
20
7.964000
0
VERTEX
8
0
10
-3.640000
20
7.964000
0
VERTEX
8
0
10
-3.654313
20
7.965393
0
VERTEX
8
0
10
-3.667549
20
7.969400
0
VERTEX
8
0
10
-3.679452
20
7.975766
0
VERTEX
8
0
10
-3.689766
20
7.984234
0
VERTEX
8
0
10
-3.698234
20
7.994548
0
VERTEX
8
0
10
-3.704600
20
8.006451
0
VERTEX
8
0
10
-3.708607
20
8.019687
0
VERTEX
8
0
10
-3.710000
20
8.034000
0
SEQEND
8
0
0
CIRCLE
8
0
10
-3.610000
20
8.044000
40
0.025400
0
POLYLINE
8
0
66
1
70
1
40
0
41
0
0
VERTEX
8
0
10
-3.710000
20
7.780000
0
VERTEX
8
0
10
-3.710000
20
7.800000
0
VERTEX
8
0
10
-3.708607
20
7.814313
0
VERTEX
8
0
10
-3.704600
20
7.827549
0
VERTEX
8
0
10
-3.698234
20
7.839452
0
VERTEX
8
0
10
-3.689766
20
7.849766
0
VERTEX
8
0
10
-3.679452
20
7.858234
0
VERTEX
8
0
10
-3.667549
20
7.864600
0
VERTEX
8
0
10
-3.654313
20
7.868607
0
VERTEX
8
0
10
-3.640000
20
7.870000
0
VERTEX
8
0
10
-3.580000
20
7.870000
0
VERTEX
8
0
10
-3.565687
20
7.868607
0
VERTEX
8
0
10
-3.552451
20
7.864600
0
VERTEX
8
0
10
-3.540548
20
7.858234
0
VERTEX
8
0
10
-3.530234
20
7.849766
0
VERTEX
8
0
10
-3.521766
20
7.839452
0
VERTEX
8
0
10
-3.515400
20
7.827549
0
VERTEX
8
0
10
-3.511393
20
7.814313
0
VERTEX
8
0
10
-3.510000
20
7.800000
0
VERTEX
8
0
10
-3.510000
20
7.780000
0
VERTEX
8
0
10
-3.511393
20
7.765687
0
VERTEX
8
0
10
-3.515400
20
7.752451
0
VERTEX
8
0
10
-3.521766
20
7.740548
0
VERTEX
8
0
10
-3.530234
20
7.730234
0
VERTEX
8
0
10
-3.540548
20
7.721766
0
VERTEX
8
0
10
-3.552451
20
7.715400
0
VERTEX
8
0
10
-3.565687
20
7.711393
0
VERTEX
8
0
10
-3.580000
20
7.710000
0
VERTEX
8
0
10
-3.640000
20
7.710000
0
VERTEX
8
0
10
-3.654313
20
7.711393
0
VERTEX
8
0
10
-3.667549
20
7.715400
0
VERTEX
8
0
10
-3.679452
20
7.721766
0
VERTEX
8
0
10
-3.689766
20
7.730234
0
VERTEX
8
0
10
-3.698234
20
7.740548
0
VERTEX
8
0
10
-3.704600
20
7.752451
0
VERTEX
8
0
10
-3.708607
20
7.765687
0
VERTEX
8
0
10
-3.710000
20
7.780000
0
SEQEND
8
0
0
CIRCLE
8
0
10
-3.610000
20
7.790000
40
0.025400
0
POLYLINE
8
0
66
1
70
1
40
0
41
0
0
VERTEX
8
0
10
-3.710000
20
7.526000
0
VERTEX
8
0
10
-3.710000
20
7.546000
0
VERTEX
8
0
10
-3.708607
20
7.560313
0
VERTEX
8
0
10
-3.704600
20
7.573549
0
VERTEX
8
0
10
-3.698234
20
7.585452
0
VERTEX
8
0
10
-3.689766
20
7.595766
0
VERTEX
8
0
10
-3.679452
20
7.604234
0
VERTEX
8
0
10
-3.667549
20
7.610600
0
VERTEX
8
0
10
-3.654313
20
7.614607
0
VERTEX
8
0
10
-3.640000
20
7.616000
0
VERTEX
8
0
10
-3.580000
20
7.616000
0
VERTEX
8
0
10
-3.565687
20
7.614607
0
VERTEX
8
0
10
-3.552451
20
7.610600
0
VERTEX
8
0
10
-3.540548
20
7.604234
0
VERTEX
8
0
10
-3.530234
20
7.595766
0
VERTEX
8
0
10
-3.521766
20
7.585452
0
VERTEX
8
0
10
-3.515400
20
7.573549
0
VERTEX
8
0
10
-3.511393
20
7.560313
0
VERTEX
8
0
10
-3.510000
20
7.546000
0
VERTEX
8
0
10
-3.510000
20
7.526000
0
VERTEX
8
0
10
-3.511393
20
7.511687
0
VERTEX
8
0
10
-3.515400
20
7.498451
0
VERTEX
8
0
10
-3.521766
20
7.486548
0
VERTEX
8
0
10
-3.530234
20
7.476234
0
VERTEX
8
0
10
-3.540548
20
7.467766
0
VERTEX
8
0
10
-3.552451
20
7.461400
0
VERTEX
8
0
10
-3.565687
20
7.457393
0
VERTEX
8
0
10
-3.580000
20
7.456000
0
VERTEX
8
0
10
-3.640000
20
7.456000
0
VERTEX
8
0
10
-3.654313
20
7.457393
0
VERTEX
8
0
10
-3.667549
20
7.461400
0
VERTEX
8
0
10
-3.679452
20
7.467766
0
VERTEX
8
0
10
-3.689766
20
7.476234
0
VERTEX
8
0
10
-3.698234
20
7.486548
0
VERTEX
8
0
10
-3.704600
20
7.498451
0
VERTEX
8
0
10
-3.708607
20
7.511687
0
VERTEX
8
0
10
-3.710000
20
7.526000
0
SEQEND
8
0
0
CIRCLE
8
0
10
-3.610000
20
7.536000
40
0.025400
0
POLYLINE
8
0
66
1
70
1
40
0
41
0
0
VERTEX
8
0
10
-3.710000
20
7.272000
0
VERTEX
8
0
10
-3.710000
20
7.292000
0
VERTEX
8
0
10
-3.708607
20
7.306313
0
VERTEX
8
0
10
-3.704600
20
7.319549
0
VERTEX
8
0
10
-3.698234
20
7.331452
0
VERTEX
8
0
10
-3.689766
20
7.341766
0
VERTEX
8
0
10
-3.679452
20
7.350234
0
VERTEX
8
0
10
-3.667549
20
7.356600
0
VERTEX
8
0
10
-3.654313
20
7.360607
0
VERTEX
8
0
10
-3.640000
20
7.362000
0
VERTEX
8
0
10
-3.580000
20
7.362000
0
VERTEX
8
0
10
-3.565687
20
7.360607
0
VERTEX
8
0
10
-3.552451
20
7.356600
0
VERTEX
8
0
10
-3.540548
20
7.350234
0
VERTEX
8
0
10
-3.530234
20
7.341766
0
VERTEX
8
0
10
-3.521766
20
7.331452
0
VERTEX
8
0
10
-3.515400
20
7.319549
0
VERTEX
8
0
10
-3.511393
20
7.306313
0
VERTEX
8
0
10
-3.510000
20
7.292000
0
VERTEX
8
0
10
-3.510000
20
7.272000
0
VERTEX
8
0
10
-3.511393
20
7.257687
0
VERTEX
8
0
10
-3.515400
20
7.244451
0
VERTEX
8
0
10
-3.521766
20
7.232548
0
VERTEX
8
0
10
-3.530234
20
7.222234
0
VERTEX
8
0
10
-3.540548
20
7.213766
0
VERTEX
8
0
10
-3.552451
20
7.207400
0
VERTEX
8
0
10
-3.565687
20
7.203393
0
VERTEX
8
0
10
-3.580000
20
7.202000
0
VERTEX
8
0
10
-3.640000
20
7.202000
0
VERTEX
8
0
10
-3.654313
20
7.203393
0
VERTEX
8
0
10
-3.667549
20
7.207400
0
VERTEX
8
0
10
-3.679452
20
7.213766
0
VERTEX
8
0
10
-3.689766
20
7.222234
0
VERTEX
8
0
10
-3.698234
20
7.232548
0
VERTEX
8
0
10
-3.704600
20
7.244451
0
VERTEX
8
0
10
-3.708607
20
7.257687
0
VERTEX
8
0
10
-3.710000
20
7.272000
0
SEQEND
8
0
0
CIRCLE
8
0
10
-3.610000
20
7.282000
40
0.025400
0
POLYLINE
8
0
66
1
70
1
40
0
41
0
0
VERTEX
8
0
10
-3.710000
20
7.018000
0
VERTEX
8
0
10
-3.710000
20
7.038000
0
VERTEX
8
0
10
-3.708607
20
7.052313
0
VERTEX
8
0
10
-3.704600
20
7.065549
0
VERTEX
8
0
10
-3.698234
20
7.077452
0
VERTEX
8
0
10
-3.689766
20
7.087766
0
VERTEX
8
0
10
-3.679452
20
7.096234
0
VERTEX
8
0
10
-3.667549
20
7.102600
0
VERTEX
8
0
10
-3.654313
20
7.106607
0
VERTEX
8
0
10
-3.640000
20
7.108000
0
VERTEX
8
0
10
-3.580000
20
7.108000
0
VERTEX
8
0
10
-3.565687
20
7.106607
0
VERTEX
8
0
10
-3.552451
20
7.102600
0
VERTEX
8
0
10
-3.540548
20
7.096234
0
VERTEX
8
0
10
-3.530234
20
7.087766
0
VERTEX
8
0
10
-3.521766
20
7.077452
0
VERTEX
8
0
10
-3.515400
20
7.065549
0
VERTEX
8
0
10
-3.511393
20
7.052313
0
VERTEX
8
0
10
-3.510000
20
7.038000
0
VERTEX
8
0
10
-3.510000
20
7.018000
0
VERTEX
8
0
10
-3.511393
20
7.003687
0
VERTEX
8
0
10
-3.515400
20
6.990451
0
VERTEX
8
0
10
-3.521766
20
6.978548
0
VERTEX
8
0
10
-3.530234
20
6.968234
0
VERTEX
8
0
10
-3.540548
20
6.959766
0
VERTEX
8
0
10
-3.552451
20
6.953400
0
VERTEX
8
0
10
-3.565687
20
6.949393
0
VERTEX
8
0
10
-3.580000
20
6.948000
0
VERTEX
8
0
10
-3.640000
20
6.948000
0
VERTEX
8
0
10
-3.654313
20
6.949393
0
VERTEX
8
0
10
-3.667549
20
6.953400
0
VERTEX
8
0
10
-3.679452
20
6.959766
0
VERTEX
8
0
10
-3.689766
20
6.968234
0
VERTEX
8
0
10
-3.698234
20
6.978548
0
VERTEX
8
0
10
-3.704600
20
6.990451
0
VERTEX
8
0
10
-3.708607
20
7.003687
0
VERTEX
8
0
10
-3.710000
20
7.018000
0
SEQEND
8
0
0
CIRCLE
8
0
10
-3.610000
20
7.028000
40
0.025400
0
POLYLINE
8
0
66
1
70
1
40
0
41
0
0
VERTEX
8
0
10
-3.710000
20
6.764000
0
VERTEX
8
0
10
-3.710000
20
6.784000
0
VERTEX
8
0
10
-3.708607
20
6.798313
0
VERTEX
8
0
10
-3.704600
20
6.811549
0
VERTEX
8
0
10
-3.698234
20
6.823452
0
VERTEX
8
0
10
-3.689766
20
6.833766
0
VERTEX
8
0
10
-3.679452
20
6.842234
0
VERTEX
8
0
10
-3.667549
20
6.848600
0
VERTEX
8
0
10
-3.654313
20
6.852607
0
VERTEX
8
0
10
-3.640000
20
6.854000
0
VERTEX
8
0
10
-3.580000
20
6.854000
0
VERTEX
8
0
10
-3.565687
20
6.852607
0
VERTEX
8
0
10
-3.552451
20
6.848600
0
VERTEX
8
0
10
-3.540548
20
6.842234
0
VERTEX
8
0
10
-3.530234
20
6.833766
0
VERTEX
8
0
10
-3.521766
20
6.823452
0
VERTEX
8
0
10
-3.515400
20
6.811549
0
VERTEX
8
0
10
-3.511393
20
6.798313
0
VERTEX
8
0
10
-3.510000
20
6.784000
0
VERTEX
8
0
10
-3.510000
20
6.764000
0
VERTEX
8
0
10
-3.511393
20
6.749687
0
VERTEX
8
0
10
-3.515400
20
6.736451
0
VERTEX
8
0
10
-3.521766
20
6.724548
0
VERTEX
8
0
10
-3.530234
20
6.714234
0
VERTEX
8
0
10
-3.540548
20
6.705766
0
VERTEX
8
0
10
-3.552451
20
6.699400
0
VERTEX
8
0
10
-3.565687
20
6.695393
0
VERTEX
8
0
10
-3.580000
20
6.694000
0
VERTEX
8
0
10
-3.640000
20
6.694000
0
VERTEX
8
0
10
-3.654313
20
6.695393
0
VERTEX
8
0
10
-3.667549
20
6.699400
0
VERTEX
8
0
10
-3.679452
20
6.705766
0
VERTEX
8
0
10
-3.689766
20
6.714234
0
VERTEX
8
0
10
-3.698234
20
6.724548
0
VERTEX
8
0
10
-3.704600
20
6.736451
0
VERTEX
8
0
10
-3.708607
20
6.749687
0
VERTEX
8
0
10
-3.710000
20
6.764000
0
SEQEND
8
0
0
CIRCLE
8
0
10
-3.610000
20
6.774000
40
0.025400
0
POLYLINE
8
0
66
1
70
1
40
0
41
0
0
VERTEX
8
0
10
-3.710000
20
6.510000
0
VERTEX
8
0
10
-3.710000
20
6.530000
0
VERTEX
8
0
10
-3.708607
20
6.544313
0
VERTEX
8
0
10
-3.704600
20
6.557549
0
VERTEX
8
0
10
-3.698234
20
6.569452
0
VERTEX
8
0
10
-3.689766
20
6.579766
0
VERTEX
8
0
10
-3.679452
20
6.588234
0
VERTEX
8
0
10
-3.667549
20
6.594600
0
VERTEX
8
0
10
-3.654313
20
6.598607
0
VERTEX
8
0
10
-3.640000
20
6.600000
0
VERTEX
8
0
10
-3.580000
20
6.600000
0
VERTEX
8
0
10
-3.565687
20
6.598607
0
VERTEX
8
0
10
-3.552451
20
6.594600
0
VERTEX
8
0
10
-3.540548
20
6.588234
0
VERTEX
8
0
10
-3.530234
20
6.579766
0
VERTEX
8
0
10
-3.521766
20
6.569452
0
VERTEX
8
0
10
-3.515400
20
6.557549
0
VERTEX
8
0
10
-3.511393
20
6.544313
0
VERTEX
8
0
10
-3.510000
20
6.530000
0
VERTEX
8
0
10
-3.510000
20
6.510000
0
VERTEX
8
0
10
-3.511393
20
6.495687
0
VERTEX
8
0
10
-3.515400
20
6.482451
0
VERTEX
8
0
10
-3.521766
20
6.470548
0
VERTEX
8
0
10
-3.530234
20
6.460234
0
VERTEX
8
0
10
-3.540548
20
6.451766
0
VERTEX
8
0
10
-3.552451
20
6.445400
0
VERTEX
8
0
10
-3.565687
20
6.441393
0
VERTEX
8
0
10
-3.580000
20
6.440000
0
VERTEX
8
0
10
-3.640000
20
6.440000
0
VERTEX
8
0
10
-3.654313
20
6.441393
0
VERTEX
8
0
10
-3.667549
20
6.445400
0
VERTEX
8
0
10
-3.679452
20
6.451766
0
VERTEX
8
0
10
-3.689766
20
6.460234
0
VERTEX
8
0
10
-3.698234
20
6.470548
0
VERTEX
8
0
10
-3.704600
20
6.482451
0
VERTEX
8
0
10
-3.708607
20
6.495687
0
VERTEX
8
0
10
-3.710000
20
6.510000
0
SEQEND
8
0
0
CIRCLE
8
0
10
-3.610000
20
6.520000
40
0.025400
0
POLYLINE
8
0
66
1
70
1
40
0
41
0
0
VERTEX
8
0
10
-3.710000
20
6.256000
0
VERTEX
8
0
10
-3.710000
20
6.276000
0
VERTEX
8
0
10
-3.708607
20
6.290313
0
VERTEX
8
0
10
-3.704600
20
6.303549
0
VERTEX
8
0
10
-3.698234
20
6.315452
0
VERTEX
8
0
10
-3.689766
20
6.325766
0
VERTEX
8
0
10
-3.679452
20
6.334234
0
VERTEX
8
0
10
-3.667549
20
6.340600
0
VERTEX
8
0
10
-3.654313
20
6.344607
0
VERTEX
8
0
10
-3.640000
20
6.346000
0
VERTEX
8
0
10
-3.580000
20
6.346000
0
VERTEX
8
0
10
-3.565687
20
6.344607
0
VERTEX
8
0
10
-3.552451
20
6.340600
0
VERTEX
8
0
10
-3.540548
20
6.334234
0
VERTEX
8
0
10
-3.530234
20
6.325766
0
VERTEX
8
0
10
-3.521766
20
6.315452
0
VERTEX
8
0
10
-3.515400
20
6.303549
0
VERTEX
8
0
10
-3.511393
20
6.290313
0
VERTEX
8
0
10
-3.510000
20
6.276000
0
VERTEX
8
0
10
-3.510000
20
6.256000
0
VERTEX
8
0
10
-3.511393
20
6.241687
0
VERTEX
8
0
10
-3.515400
20
6.228451
0
VERTEX
8
0
10
-3.521766
20
6.216548
0
VERTEX
8
0
10
-3.530234
20
6.206234
0
VERTEX
8
0
10
-3.540548
20
6.197766
0
VERTEX
8
0
10
-3.552451
20
6.191400
0
VERTEX
8
0
10
-3.565687
20
6.187393
0
VERTEX
8
0
10
-3.580000
20
6.186000
0
VERTEX
8
0
10
-3.640000
20
6.186000
0
VERTEX
8
0
10
-3.654313
20
6.187393
0
VERTEX
8
0
10
-3.667549
20
6.191400
0
VERTEX
8
0
10
-3.679452
20
6.197766
0
VERTEX
8
0
10
-3.689766
20
6.206234
0
VERTEX
8
0
10
-3.698234
20
6.216548
0
VERTEX
8
0
10
-3.704600
20
6.228451
0
VERTEX
8
0
10
-3.708607
20
6.241687
0
VERTEX
8
0
10
-3.710000
20
6.256000
0
SEQEND
8
0
0
CIRCLE
8
0
10
-3.610000
20
6.266000
40
0.025400
0
POLYLINE
8
0
66
1
70
1
40
0
41
0
0
VERTEX
8
0
10
-3.710000
20
5.856000
0
VERTEX
8
0
10
-3.710000
20
5.876000
0
VERTEX
8
0
10
-3.708607
20
5.890313
0
VERTEX
8
0
10
-3.704600
20
5.903549
0
VERTEX
8
0
10
-3.698234
20
5.915452
0
VERTEX
8
0
10
-3.689766
20
5.925766
0
VERTEX
8
0
10
-3.679452
20
5.934234
0
VERTEX
8
0
10
-3.667549
20
5.940600
0
VERTEX
8
0
10
-3.654313
20
5.944607
0
VERTEX
8
0
10
-3.640000
20
5.946000
0
VERTEX
8
0
10
-3.580000
20
5.946000
0
VERTEX
8
0
10
-3.565687
20
5.944607
0
VERTEX
8
0
10
-3.552451
20
5.940600
0
VERTEX
8
0
10
-3.540548
20
5.934234
0
VERTEX
8
0
10
-3.530234
20
5.925766
0
VERTEX
8
0
10
-3.521766
20
5.915452
0
VERTEX
8
0
10
-3.515400
20
5.903549
0
VERTEX
8
0
10
-3.511393
20
5.890313
0
VERTEX
8
0
10
-3.510000
20
5.876000
0
VERTEX
8
0
10
-3.510000
20
5.856000
0
VERTEX
8
0
10
-3.511393
20
5.841687
0
VERTEX
8
0
10
-3.515400
20
5.828451
0
VERTEX
8
0
10
-3.521766
20
5.816548
0
VERTEX
8
0
10
-3.530234
20
5.806234
0
VERTEX
8
0
10
-3.540548
20
5.797766
0
VERTEX
8
0
10
-3.552451
20
5.791400
0
VERTEX
8
0
10
-3.565687
20
5.787393
0
VERTEX
8
0
10
-3.580000
20
5.786000
0
VERTEX
8
0
10
-3.640000
20
5.786000
0
VERTEX
8
0
10
-3.654313
20
5.787393
0
VERTEX
8
0
10
-3.667549
20
5.791400
0
VERTEX
8
0
10
-3.679452
20
5.797766
0
VERTEX
8
0
10
-3.689766
20
5.806234
0
VERTEX
8
0
10
-3.698234
20
5.816548
0
VERTEX
8
0
10
-3.704600
20
5.828451
0
VERTEX
8
0
10
-3.708607
20
5.841687
0
VERTEX
8
0
10
-3.710000
20
5.856000
0
SEQEND
8
0
0
CIRCLE
8
0
10
-3.610000
20
5.866000
40
0.025400
0
POLYLINE
8
0
66
1
70
1
40
0
41
0
0
VERTEX
8
0
10
-3.710000
20
5.602000
0
VERTEX
8
0
10
-3.710000
20
5.622000
0
VERTEX
8
0
10
-3.708607
20
5.636313
0
VERTEX
8
0
10
-3.704600
20
5.649549
0
VERTEX
8
0
10
-3.698234
20
5.661452
0
VERTEX
8
0
10
-3.689766
20
5.671766
0
VERTEX
8
0
10
-3.679452
20
5.680234
0
VERTEX
8
0
10
-3.667549
20
5.686600
0
VERTEX
8
0
10
-3.654313
20
5.690607
0
VERTEX
8
0
10
-3.640000
20
5.692000
0
VERTEX
8
0
10
-3.580000
20
5.692000
0
VERTEX
8
0
10
-3.565687
20
5.690607
0
VERTEX
8
0
10
-3.552451
20
5.686600
0
VERTEX
8
0
10
-3.540548
20
5.680234
0
VERTEX
8
0
10
-3.530234
20
5.671766
0
VERTEX
8
0
10
-3.521766
20
5.661452
0
VERTEX
8
0
10
-3.515400
20
5.649549
0
VERTEX
8
0
10
-3.511393
20
5.636313
0
VERTEX
8
0
10
-3.510000
20
5.622000
0
VERTEX
8
0
10
-3.510000
20
5.602000
0
VERTEX
8
0
10
-3.511393
20
5.587687
0
VERTEX
8
0
10
-3.515400
20
5.574451
0
VERTEX
8
0
10
-3.521766
20
5.562548
0
VERTEX
8
0
10
-3.530234
20
5.552234
0
VERTEX
8
0
10
-3.540548
20
5.543766
0
VERTEX
8
0
10
-3.552451
20
5.537400
0
VERTEX
8
0
10
-3.565687
20
5.533393
0
VERTEX
8
0
10
-3.580000
20
5.532000
0
VERTEX
8
0
10
-3.640000
20
5.532000
0
VERTEX
8
0
10
-3.654313
20
5.533393
0
VERTEX
8
0
10
-3.667549
20
5.537400
0
VERTEX
8
0
10
-3.679452
20
5.543766
0
VERTEX
8
0
10
-3.689766
20
5.552234
0
VERTEX
8
0
10
-3.698234
20
5.562548
0
VERTEX
8
0
10
-3.704600
20
5.574451
0
VERTEX
8
0
10
-3.708607
20
5.587687
0
VERTEX
8
0
10
-3.710000
20
5.602000
0
SEQEND
8
0
0
CIRCLE
8
0
10
-3.610000
20
5.612000
40
0.025400
0
POLYLINE
8
0
66
1
70
1
40
0
41
0
0
VERTEX
8
0
10
-3.710000
20
5.348000
0
VERTEX
8
0
10
-3.710000
20
5.368000
0
VERTEX
8
0
10
-3.708607
20
5.382313
0
VERTEX
8
0
10
-3.704600
20
5.395549
0
VERTEX
8
0
10
-3.698234
20
5.407452
0
VERTEX
8
0
10
-3.689766
20
5.417766
0
VERTEX
8
0
10
-3.679452
20
5.426234
0
VERTEX
8
0
10
-3.667549
20
5.432600
0
VERTEX
8
0
10
-3.654313
20
5.436607
0
VERTEX
8
0
10
-3.640000
20
5.438000
0
VERTEX
8
0
10
-3.580000
20
5.438000
0
VERTEX
8
0
10
-3.565687
20
5.436607
0
VERTEX
8
0
10
-3.552451
20
5.432600
0
VERTEX
8
0
10
-3.540548
20
5.426234
0
VERTEX
8
0
10
-3.530234
20
5.417766
0
VERTEX
8
0
10
-3.521766
20
5.407452
0
VERTEX
8
0
10
-3.515400
20
5.395549
0
VERTEX
8
0
10
-3.511393
20
5.382313
0
VERTEX
8
0
10
-3.510000
20
5.368000
0
VERTEX
8
0
10
-3.510000
20
5.348000
0
VERTEX
8
0
10
-3.511393
20
5.333687
0
VERTEX
8
0
10
-3.515400
20
5.320451
0
VERTEX
8
0
10
-3.521766
20
5.308548
0
VERTEX
8
0
10
-3.530234
20
5.298234
0
VERTEX
8
0
10
-3.540548
20
5.289766
0
VERTEX
8
0
10
-3.552451
20
5.283400
0
VERTEX
8
0
10
-3.565687
20
5.279393
0
VERTEX
8
0
10
-3.580000
20
5.278000
0
VERTEX
8
0
10
-3.640000
20
5.278000
0
VERTEX
8
0
10
-3.654313
20
5.279393
0
VERTEX
8
0
10
-3.667549
20
5.283400
0
VERTEX
8
0
10
-3.679452
20
5.289766
0
VERTEX
8
0
10
-3.689766
20
5.298234
0
VERTEX
8
0
10
-3.698234
20
5.308548
0
VERTEX
8
0
10
-3.704600
20
5.320451
0
VERTEX
8
0
10
-3.708607
20
5.333687
0
VERTEX
8
0
10
-3.710000
20
5.348000
0
SEQEND
8
0
0
CIRCLE
8
0
10
-3.610000
20
5.358000
40
0.025400
0
POLYLINE
8
0
66
1
70
1
40
0
41
0
0
VERTEX
8
0
10
-3.710000
20
5.094000
0
VERTEX
8
0
10
-3.710000
20
5.114000
0
VERTEX
8
0
10
-3.708607
20
5.128313
0
VERTEX
8
0
10
-3.704600
20
5.141549
0
VERTEX
8
0
10
-3.698234
20
5.153452
0
VERTEX
8
0
10
-3.689766
20
5.163766
0
VERTEX
8
0
10
-3.679452
20
5.172234
0
VERTEX
8
0
10
-3.667549
20
5.178600
0
VERTEX
8
0
10
-3.654313
20
5.182607
0
VERTEX
8
0
10
-3.640000
20
5.184000
0
VERTEX
8
0
10
-3.580000
20
5.184000
0
VERTEX
8
0
10
-3.565687
20
5.182607
0
VERTEX
8
0
10
-3.552451
20
5.178600
0
VERTEX
8
0
10
-3.540548
20
5.172234
0
VERTEX
8
0
10
-3.530234
20
5.163766
0
VERTEX
8
0
10
-3.521766
20
5.153452
0
VERTEX
8
0
10
-3.515400
20
5.141549
0
VERTEX
8
0
10
-3.511393
20
5.128313
0
VERTEX
8
0
10
-3.510000
20
5.114000
0
VERTEX
8
0
10
-3.510000
20
5.094000
0
VERTEX
8
0
10
-3.511393
20
5.079687
0
VERTEX
8
0
10
-3.515400
20
5.066451
0
VERTEX
8
0
10
-3.521766
20
5.054548
0
VERTEX
8
0
10
-3.530234
20
5.044234
0
VERTEX
8
0
10
-3.540548
20
5.035766
0
VERTEX
8
0
10
-3.552451
20
5.029400
0
VERTEX
8
0
10
-3.565687
20
5.025393
0
VERTEX
8
0
10
-3.580000
20
5.024000
0
VERTEX
8
0
10
-3.640000
20
5.024000
0
VERTEX
8
0
10
-3.654313
20
5.025393
0
VERTEX
8
0
10
-3.667549
20
5.029400
0
VERTEX
8
0
10
-3.679452
20
5.035766
0
VERTEX
8
0
10
-3.689766
20
5.044234
0
VERTEX
8
0
10
-3.698234
20
5.054548
0
VERTEX
8
0
10
-3.704600
20
5.066451
0
VERTEX
8
0
10
-3.708607
20
5.079687
0
VERTEX
8
0
10
-3.710000
20
5.094000
0
SEQEND
8
0
0
CIRCLE
8
0
10
-3.610000
20
5.104000
40
0.025400
0
POLYLINE
8
0
66
1
70
1
40
0
41
0
0
VERTEX
8
0
10
-3.710000
20
4.840000
0
VERTEX
8
0
10
-3.710000
20
4.860000
0
VERTEX
8
0
10
-3.708607
20
4.874313
0
VERTEX
8
0
10
-3.704600
20
4.887549
0
VERTEX
8
0
10
-3.698234
20
4.899452
0
VERTEX
8
0
10
-3.689766
20
4.909766
0
VERTEX
8
0
10
-3.679452
20
4.918234
0
VERTEX
8
0
10
-3.667549
20
4.924600
0
VERTEX
8
0
10
-3.654313
20
4.928607
0
VERTEX
8
0
10
-3.640000
20
4.930000
0
VERTEX
8
0
10
-3.580000
20
4.930000
0
VERTEX
8
0
10
-3.565687
20
4.928607
0
VERTEX
8
0
10
-3.552451
20
4.924600
0
VERTEX
8
0
10
-3.540548
20
4.918234
0
VERTEX
8
0
10
-3.530234
20
4.909766
0
VERTEX
8
0
10
-3.521766
20
4.899452
0
VERTEX
8
0
10
-3.515400
20
4.887549
0
VERTEX
8
0
10
-3.511393
20
4.874313
0
VERTEX
8
0
10
-3.510000
20
4.860000
0
VERTEX
8
0
10
-3.510000
20
4.840000
0
VERTEX
8
0
10
-3.511393
20
4.825687
0
VERTEX
8
0
10
-3.515400
20
4.812451
0
VERTEX
8
0
10
-3.521766
20
4.800548
0
VERTEX
8
0
10
-3.530234
20
4.790234
0
VERTEX
8
0
10
-3.540548
20
4.781766
0
VERTEX
8
0
10
-3.552451
20
4.775400
0
VERTEX
8
0
10
-3.565687
20
4.771393
0
VERTEX
8
0
10
-3.580000
20
4.770000
0
VERTEX
8
0
10
-3.640000
20
4.770000
0
VERTEX
8
0
10
-3.654313
20
4.771393
0
VERTEX
8
0
10
-3.667549
20
4.775400
0
VERTEX
8
0
10
-3.679452
20
4.781766
0
VERTEX
8
0
10
-3.689766
20
4.790234
0
VERTEX
8
0
10
-3.698234
20
4.800548
0
VERTEX
8
0
10
-3.704600
20
4.812451
0
VERTEX
8
0
10
-3.708607
20
4.825687
0
VERTEX
8
0
10
-3.710000
20
4.840000
0
SEQEND
8
0
0
CIRCLE
8
0
10
-3.610000
20
4.850000
40
0.025400
0
POLYLINE
8
0
66
1
70
1
40
0
41
0
0
VERTEX
8
0
10
-3.710000
20
4.586000
0
VERTEX
8
0
10
-3.710000
20
4.606000
0
VERTEX
8
0
10
-3.708607
20
4.620313
0
VERTEX
8
0
10
-3.704600
20
4.633549
0
VERTEX
8
0
10
-3.698234
20
4.645452
0
VERTEX
8
0
10
-3.689766
20
4.655766
0
VERTEX
8
0
10
-3.679452
20
4.664234
0
VERTEX
8
0
10
-3.667549
20
4.670600
0
VERTEX
8
0
10
-3.654313
20
4.674607
0
VERTEX
8
0
10
-3.640000
20
4.676000
0
VERTEX
8
0
10
-3.580000
20
4.676000
0
VERTEX
8
0
10
-3.565687
20
4.674607
0
VERTEX
8
0
10
-3.552451
20
4.670600
0
VERTEX
8
0
10
-3.540548
20
4.664234
0
VERTEX
8
0
10
-3.530234
20
4.655766
0
VERTEX
8
0
10
-3.521766
20
4.645452
0
VERTEX
8
0
10
-3.515400
20
4.633549
0
VERTEX
8
0
10
-3.511393
20
4.620313
0
VERTEX
8
0
10
-3.510000
20
4.606000
0
VERTEX
8
0
10
-3.510000
20
4.586000
0
VERTEX
8
0
10
-3.511393
20
4.571687
0
VERTEX
8
0
10
-3.515400
20
4.558451
0
VERTEX
8
0
10
-3.521766
20
4.546548
0
VERTEX
8
0
10
-3.530234
20
4.536234
0
VERTEX
8
0
10
-3.540548
20
4.527766
0
VERTEX
8
0
10
-3.552451
20
4.521400
0
VERTEX
8
0
10
-3.565687
20
4.517393
0
VERTEX
8
0
10
-3.580000
20
4.516000
0
VERTEX
8
0
10
-3.640000
20
4.516000
0
VERTEX
8
0
10
-3.654313
20
4.517393
0
VERTEX
8
0
10
-3.667549
20
4.521400
0
VERTEX
8
0
10
-3.679452
20
4.527766
0
VERTEX
8
0
10
-3.689766
20
4.536234
0
VERTEX
8
0
10
-3.698234
20
4.546548
0
VERTEX
8
0
10
-3.704600
20
4.558451
0
VERTEX
8
0
10
-3.708607
20
4.571687
0
VERTEX
8
0
10
-3.710000
20
4.586000
0
SEQEND
8
0
0
CIRCLE
8
0
10
-3.610000
20
4.596000
40
0.025400
0
POLYLINE
8
0
66
1
70
1
40
0
41
0
0
VERTEX
8
0
10
-3.710000
20
4.332000
0
VERTEX
8
0
10
-3.710000
20
4.352000
0
VERTEX
8
0
10
-3.708607
20
4.366313
0
VERTEX
8
0
10
-3.704600
20
4.379549
0
VERTEX
8
0
10
-3.698234
20
4.391452
0
VERTEX
8
0
10
-3.689766
20
4.401766
0
VERTEX
8
0
10
-3.679452
20
4.410234
0
VERTEX
8
0
10
-3.667549
20
4.416600
0
VERTEX
8
0
10
-3.654313
20
4.420607
0
VERTEX
8
0
10
-3.640000
20
4.422000
0
VERTEX
8
0
10
-3.580000
20
4.422000
0
VERTEX
8
0
10
-3.565687
20
4.420607
0
VERTEX
8
0
10
-3.552451
20
4.416600
0
VERTEX
8
0
10
-3.540548
20
4.410234
0
VERTEX
8
0
10
-3.530234
20
4.401766
0
VERTEX
8
0
10
-3.521766
20
4.391452
0
VERTEX
8
0
10
-3.515400
20
4.379549
0
VERTEX
8
0
10
-3.511393
20
4.366313
0
VERTEX
8
0
10
-3.510000
20
4.352000
0
VERTEX
8
0
10
-3.510000
20
4.332000
0
VERTEX
8
0
10
-3.511393
20
4.317687
0
VERTEX
8
0
10
-3.515400
20
4.304451
0
VERTEX
8
0
10
-3.521766
20
4.292548
0
VERTEX
8
0
10
-3.530234
20
4.282234
0
VERTEX
8
0
10
-3.540548
20
4.273766
0
VERTEX
8
0
10
-3.552451
20
4.267400
0
VERTEX
8
0
10
-3.565687
20
4.263393
0
VERTEX
8
0
10
-3.580000
20
4.262000
0
VERTEX
8
0
10
-3.640000
20
4.262000
0
VERTEX
8
0
10
-3.654313
20
4.263393
0
VERTEX
8
0
10
-3.667549
20
4.267400
0
VERTEX
8
0
10
-3.679452
20
4.273766
0
VERTEX
8
0
10
-3.689766
20
4.282234
0
VERTEX
8
0
10
-3.698234
20
4.292548
0
VERTEX
8
0
10
-3.704600
20
4.304451
0
VERTEX
8
0
10
-3.708607
20
4.317687
0
VERTEX
8
0
10
-3.710000
20
4.332000
0
SEQEND
8
0
0
CIRCLE
8
0
10
-3.610000
20
4.342000
40
0.025400
0
POLYLINE
8
0
66
1
70
1
40
0
41
0
0
VERTEX
8
0
10
-3.710000
20
4.078000
0
VERTEX
8
0
10
-3.710000
20
4.098000
0
VERTEX
8
0
10
-3.708607
20
4.112313
0
VERTEX
8
0
10
-3.704600
20
4.125549
0
VERTEX
8
0
10
-3.698234
20
4.137452
0
VERTEX
8
0
10
-3.689766
20
4.147766
0
VERTEX
8
0
10
-3.679452
20
4.156234
0
VERTEX
8
0
10
-3.667549
20
4.162600
0
VERTEX
8
0
10
-3.654313
20
4.166607
0
VERTEX
8
0
10
-3.640000
20
4.168000
0
VERTEX
8
0
10
-3.580000
20
4.168000
0
VERTEX
8
0
10
-3.565687
20
4.166607
0
VERTEX
8
0
10
-3.552451
20
4.162600
0
VERTEX
8
0
10
-3.540548
20
4.156234
0
VERTEX
8
0
10
-3.530234
20
4.147766
0
VERTEX
8
0
10
-3.521766
20
4.137452
0
VERTEX
8
0
10
-3.515400
20
4.125549
0
VERTEX
8
0
10
-3.511393
20
4.112313
0
VERTEX
8
0
10
-3.510000
20
4.098000
0
VERTEX
8
0
10
-3.510000
20
4.078000
0
VERTEX
8
0
10
-3.511393
20
4.063687
0
VERTEX
8
0
10
-3.515400
20
4.050451
0
VERTEX
8
0
10
-3.521766
20
4.038548
0
VERTEX
8
0
10
-3.530234
20
4.028234
0
VERTEX
8
0
10
-3.540548
20
4.019766
0
VERTEX
8
0
10
-3.552451
20
4.013400
0
VERTEX
8
0
10
-3.565687
20
4.009393
0
VERTEX
8
0
10
-3.580000
20
4.008000
0
VERTEX
8
0
10
-3.640000
20
4.008000
0
VERTEX
8
0
10
-3.654313
20
4.009393
0
VERTEX
8
0
10
-3.667549
20
4.013400
0
VERTEX
8
0
10
-3.679452
20
4.019766
0
VERTEX
8
0
10
-3.689766
20
4.028234
0
VERTEX
8
0
10
-3.698234
20
4.038548
0
VERTEX
8
0
10
-3.704600
20
4.050451
0
VERTEX
8
0
10
-3.708607
20
4.063687
0
VERTEX
8
0
10
-3.710000
20
4.078000
0
SEQEND
8
0
0
CIRCLE
8
0
10
-3.610000
20
4.088000
40
0.025400
0
INSERT
8
0
2
EPAD
10
-4.700000
20
5.256000
41
0.304800
42
0.304800
0
CIRCLE
8
0
10
-4.700000
20
5.256000
40
0.076200
0
INSERT
8
0
2
EPAD
10
-4.700000
20
5.764000
41
0.304800
42
0.304800
0
CIRCLE
8
0
10
-4.700000
20
5.764000
40
0.076200
0
INSERT
8
0
2
EPAD
10
-4.700000
20
6.272000
41
0.304800
42
0.304800
0
CIRCLE
8
0
10
-4.700000
20
6.272000
40
0.076200
0
INSERT
8
0
2
EPAD
10
-4.700000
20
6.780000
41
0.304800
42
0.304800
0
CIRCLE
8
0
10
-4.700000
20
6.780000
40
0.076200
0
INSERT
8
0
2
EPAD
10
-4.700000
20
7.288000
41
0.304800
42
0.304800
0
CIRCLE
8
0
10
-4.700000
20
7.288000
40
0.076200
0
INSERT
8
0
2
EPAD
10
-4.710000
20
4.744000
41
0.304800
42
0.304800
0
CIRCLE
8
0
10
-4.710000
20
4.744000
40
0.076200
0
INSERT
8
0
2
EPAD
10
-4.710000
20
4.243620
41
0.304800
42
0.304800
0
CIRCLE
8
0
10
-4.710000
20
4.243620
40
0.076200
0
INSERT
8
0
2
EPAD
10
-4.710000
20
7.800000
41
0.304800
42
0.304800
0
CIRCLE
8
0
10
-4.710000
20
7.800000
40
0.076200
0
INSERT
8
0
2
EPAD
10
-4.710000
20
8.300380
41
0.304800
42
0.304800
0
CIRCLE
8
0
10
-4.710000
20
8.300380
40
0.076200
0
INSERT
8
0
2
EPAD
10
-4.710000
20
3.220000
41
0.304800
42
0.304800
0
CIRCLE
8
0
10
-4.710000
20
3.220000
40
0.076200
0
INSERT
8
0
2
EPAD
10
-4.710000
20
3.720380
41
0.304800
42
0.304800
0
CIRCLE
8
0
10
-4.710000
20
3.720380
40
0.076200
0
INSERT
8
0
2
EPAD
10
-3.326000
20
4.870000
41
0.177800
42
0.177800
0
CIRCLE
8
0
10
-3.326000
20
4.870000
40
0.063500
0
INSERT
8
0
2
EPAD
10
-2.310000
20
4.870000
41
0.177800
42
0.177800
0
CIRCLE
8
0
10
-2.310000
20
4.870000
40
0.063500
0
INSERT
8
0
2
RPAD
10
-1.770000
20
5.580000
41
0.203200
42
0.203200
50
0.000000
0
CIRCLE
8
0
10
-1.770000
20
5.580000
40
0.063500
0
INSERT
8
0
2
RPAD
10
-1.516000
20
5.580000
41
0.203200
42
0.203200
50
0.000000
0
CIRCLE
8
0
10
-1.516000
20
5.580000
40
0.063500
0
INSERT
8
0
2
RPAD
10
-1.262000
20
5.580000
41
0.203200
42
0.203200
50
0.000000
0
CIRCLE
8
0
10
-1.262000
20
5.580000
40
0.063500
0
INSERT
8
0
2
RPAD
10
-0.500000
20
5.580000
41
0.203200
42
0.203200
50
0.000000
0
CIRCLE
8
0
10
-0.500000
20
5.580000
40
0.063500
0
INSERT
8
0
2
RPAD
10
-0.246000
20
5.580000
41
0.203200
42
0.203200
50
0.000000
0
CIRCLE
8
0
10
-0.246000
20
5.580000
40
0.063500
0
INSERT
8
0
2
RPAD
10
-0.510000
20
7.380000
41
0.203200
42
0.203200
50
0.000000
0
CIRCLE
8
0
10
-0.510000
20
7.380000
40
0.063500
0
INSERT
8
0
2
RPAD
10
-0.256000
20
7.380000
41
0.203200
42
0.203200
50
0.000000
0
CIRCLE
8
0
10
-0.256000
20
7.380000
40
0.063500
0
INSERT
8
0
2
RPAD
10
-1.770000
20
7.380000
41
0.203200
42
0.203200
50
0.000000
0
CIRCLE
8
0
10
-1.770000
20
7.380000
40
0.063500
0
INSERT
8
0
2
RPAD
10
-1.516000
20
7.380000
41
0.203200
42
0.203200
50
0.000000
0
CIRCLE
8
0
10
-1.516000
20
7.380000
40
0.063500
0
INSERT
8
0
2
EPAD
10
2.110000
20
7.410000
41
0.304800
42
0.304800
0
CIRCLE
8
0
10
2.110000
20
7.410000
40
0.076200
0
INSERT
8
0
2
EPAD
10
2.110000
20
7.910380
41
0.304800
42
0.304800
0
CIRCLE
8
0
10
2.110000
20
7.910380
40
0.076200
0
INSERT
8
0
2
EPAD
10
2.110000
20
6.389620
41
0.304800
42
0.304800
0
CIRCLE
8
0
10
2.110000
20
6.389620
40
0.076200
0
INSERT
8
0
2
EPAD
10
2.110000
20
6.890000
41
0.304800
42
0.304800
0
CIRCLE
8
0
10
2.110000
20
6.890000
40
0.076200
0
INSERT
8
0
2
EPAD
10
-3.110000
20
6.770000
41
0.177800
42
0.177800
0
CIRCLE
8
0
10
-3.110000
20
6.770000
40
0.063500
0
INSERT
8
0
2
EPAD
10
-3.110000
20
7.786000
41
0.177800
42
0.177800
0
CIRCLE
8
0
10
-3.110000
20
7.786000
40
0.063500
0
INSERT
8
0
2
EPAD
10
-2.480000
20
7.006800
41
0.152400
42
0.152400
0
CIRCLE
8
0
10
-2.480000
20
7.006800
40
0.063500
0
INSERT
8
0
2
EPAD
10
-2.480000
20
7.210000
41
0.152400
42
0.152400
0
CIRCLE
8
0
10
-2.480000
20
7.210000
40
0.063500
0
INSERT
8
0
2
EPAD
10
-2.480000
20
7.413200
41
0.152400
42
0.152400
0
CIRCLE
8
0
10
-2.480000
20
7.413200
40
0.063500
0
INSERT
8
0
2
EPAD
10
2.110000
20
5.370000
41
0.304800
42
0.304800
0
CIRCLE
8
0
10
2.110000
20
5.370000
40
0.076200
0
INSERT
8
0
2
EPAD
10
2.110000
20
5.870380
41
0.304800
42
0.304800
0
CIRCLE
8
0
10
2.110000
20
5.870380
40
0.076200
0
POLYLINE
8
0
66
1
40
0.020320
41
0.020320
0
VERTEX
8
0
10
-2.140500
20
2.639000
0
VERTEX
8
0
10
-1.759500
20
2.639000
0
VERTEX
8
0
10
-1.759500
20
4.671000
0
VERTEX
8
0
10
-2.140500
20
4.671000
0
VERTEX
8
0
10
-2.140500
20
2.639000
0
SEQEND
8
0
0
TEXT
8
0
10
-1.612180
20
3.528000
40
0.121920
41
1.041667
50
90.000000
1
J1
0
POLYLINE
8
0
66
1
40
0.020320
41
0.020320
0
VERTEX
8
0
10
-0.356500
20
2.633000
0
VERTEX
8
0
10
0.024500
20
2.633000
0
VERTEX
8
0
10
0.024500
20
4.665000
0
VERTEX
8
0
10
-0.356500
20
4.665000
0
VERTEX
8
0
10
-0.356500
20
2.633000
0
SEQEND
8
0
0
TEXT
8
0
10
0.171820
20
3.522000
40
0.121920
41
1.041667
50
90.000000
1
J2
0
POLYLINE
8
0
66
1
40
0.020320
41
0.020320
0
VERTEX
8
0
10
1.500000
20
1.694000
0
VERTEX
8
0
10
1.500000
20
8.294000
0
SEQEND
8
0
0
POLYLINE
8
0
66
1
40
0.020320
41
0.020320
0
VERTEX
8
0
10
1.500000
20
1.694000
0
VERTEX
8
0
10
-3.860000
20
1.694000
0
SEQEND
8
0
0
POLYLINE
8
0
66
1
40
0.020320
41
0.020320
0
VERTEX
8
0
10
1.500000
20
8.294000
0
VERTEX
8
0
10
1.250000
20
8.294000
0
VERTEX
8
0
10
1.000000
20
8.594000
0
VERTEX
8
0
10
-2.300000
20
8.594000
0
SEQEND
8
0
0
POLYLINE
8
0
66
1
40
0.020320
41
0.020320
0
VERTEX
8
0
10
-3.860000
20
1.694000
0
VERTEX
8
0
10
-3.860000
20
8.144000
0
VERTEX
8
0
10
-3.710000
20
8.294000
0
VERTEX
8
0
10
-2.560000
20
8.294000
0
VERTEX
8
0
10
-2.300000
20
8.594000
0
SEQEND
8
0
0
POLYLINE
8
0
66
1
40
0.020320
41
0.020320
0
VERTEX
8
0
10
1.123000
20
4.623000
0
VERTEX
8
0
10
1.377000
20
4.623000
0
VERTEX
8
0
10
1.377000
20
6.401000
0
VERTEX
8
0
10
1.123000
20
6.401000
0
VERTEX
8
0
10
1.123000
20
4.623000
0
SEQEND
8
0
0
POLYLINE
8
0
66
1
40
0.020320
41
0.020320
0
VERTEX
8
0
10
1.123000
20
6.647000
0
VERTEX
8
0
10
1.377000
20
6.647000
0
VERTEX
8
0
10
1.377000
20
8.171000
0
VERTEX
8
0
10
1.123000
20
8.171000
0
VERTEX
8
0
10
1.123000
20
6.647000
0
SEQEND
8
0
0
POLYLINE
8
0
66
1
40
0.020320
41
0.020320
0
VERTEX
8
0
10
-3.737000
20
6.139000
0
VERTEX
8
0
10
-3.483000
20
6.139000
0
VERTEX
8
0
10
-3.483000
20
8.171000
0
VERTEX
8
0
10
-3.737000
20
8.171000
0
VERTEX
8
0
10
-3.737000
20
6.139000
0
SEQEND
8
0
0
POLYLINE
8
0
66
1
40
0.020320
41
0.020320
0
VERTEX
8
0
10
-3.737000
20
3.961000
0
VERTEX
8
0
10
-3.483000
20
3.961000
0
VERTEX
8
0
10
-3.483000
20
5.993000
0
VERTEX
8
0
10
-3.737000
20
5.993000
0
VERTEX
8
0
10
-3.737000
20
3.961000
0
SEQEND
8
0
0
TEXT
8
0
10
-3.885400
20
5.017000
40
0.121920
41
1.041667
50
90.000000
1
S1
0
POLYLINE
8
0
66
1
40
0.020320
41
0.020320
0
VERTEX
8
0
10
-5.208000
20
5.002000
0
VERTEX
8
0
10
-4.192000
20
5.002000
0
SEQEND
8
0
0
POLYLINE
8
0
66
1
40
0.020320
41
0.020320
0
VERTEX
8
0
10
-5.208000
20
7.542000
0
VERTEX
8
0
10
-4.192000
20
7.542000
0
SEQEND
8
0
0
POLYLINE
8
0
66
1
40
0.020320
41
0.020320
0
VERTEX
8
0
10
-5.208000
20
7.542000
0
VERTEX
8
0
10
-5.208000
20
5.002000
0
SEQEND
8
0
0
POLYLINE
8
0
66
1
40
0.020320
41
0.020320
0
VERTEX
8
0
10
-4.192000
20
5.002000
0
VERTEX
8
0
10
-4.192000
20
7.542000
0
SEQEND
8
0
0
TEXT
8
0
10
-5.233400
20
6.145000
40
0.121920
41
1.041667
50
90.000000
1
J9
0
POLYLINE
8
0
66
1
40
0.020320
41
0.020320
0
VERTEX
8
0
10
-5.091000
20
4.998000
0
VERTEX
8
0
10
-4.329000
20
4.998000
0
SEQEND
8
0
0
POLYLINE
8
0
66
1
40
0.020320
41
0.020320
0
VERTEX
8
0
10
-4.329000
20
3.982000
0
VERTEX
8
0
10
-5.091000
20
3.982000
0
SEQEND
8
0
0
POLYLINE
8
0
66
1
40
0.020320
41
0.020320
0
VERTEX
8
0
10
-5.091000
20
4.998000
0
VERTEX
8
0
10
-5.091000
20
3.982000
0
SEQEND
8
0
0
POLYLINE
8
0
66
1
40
0.020320
41
0.020320
0
VERTEX
8
0
10
-4.329000
20
4.998000
0
VERTEX
8
0
10
-4.329000
20
3.982000
0
SEQEND
8
0
0
TEXT
8
0
10
-4.181680
20
4.299500
40
0.121920
41
1.041667
50
90.000000
1
J10
0
POLYLINE
8
0
66
1
40
0.020320
41
0.020320
0
VERTEX
8
0
10
-4.329000
20
7.546000
0
VERTEX
8
0
10
-5.091000
20
7.546000
0
SEQEND
8
0
0
POLYLINE
8
0
66
1
40
0.020320
41
0.020320
0
VERTEX
8
0
10
-5.091000
20
8.562000
0
VERTEX
8
0
10
-4.329000
20
8.562000
0
SEQEND
8
0
0
POLYLINE
8
0
66
1
40
0.020320
41
0.020320
0
VERTEX
8
0
10
-4.329000
20
7.546000
0
VERTEX
8
0
10
-4.329000
20
8.562000
0
SEQEND
8
0
0
POLYLINE
8
0
66
1
40
0.020320
41
0.020320
0
VERTEX
8
0
10
-5.091000
20
7.546000
0
VERTEX
8
0
10
-5.091000
20
8.562000
0
SEQEND
8
0
0
TEXT
8
0
10
-5.116400
20
7.863500
40
0.121920
41
1.041667
50
90.000000
1
J11
0
POLYLINE
8
0
66
1
40
0.020320
41
0.020320
0
VERTEX
8
0
10
-4.329000
20
2.966000
0
VERTEX
8
0
10
-5.091000
20
2.966000
0
SEQEND
8
0
0
POLYLINE
8
0
66
1
40
0.020320
41
0.020320
0
VERTEX
8
0
10
-5.091000
20
3.982000
0
VERTEX
8
0
10
-4.329000
20
3.982000
0
SEQEND
8
0
0
POLYLINE
8
0
66
1
40
0.020320
41
0.020320
0
VERTEX
8
0
10
-4.329000
20
2.966000
0
VERTEX
8
0
10
-4.329000
20
3.982000
0
SEQEND
8
0
0
POLYLINE
8
0
66
1
40
0.020320
41
0.020320
0
VERTEX
8
0
10
-5.091000
20
2.966000
0
VERTEX
8
0
10
-5.091000
20
3.982000
0
SEQEND
8
0
0
TEXT
8
0
10
-5.116400
20
3.283500
40
0.121920
41
1.041667
50
90.000000
1
J12
0
POLYLINE
8
0
66
1
40
0.020320
41
0.020320
0
VERTEX
8
0
10
-3.199000
20
4.870000
0
VERTEX
8
0
10
-3.072000
20
4.870000
0
SEQEND
8
0
0
POLYLINE
8
0
66
1
40
0.020320
41
0.020320
0
VERTEX
8
0
10
-3.072000
20
4.806500
0
VERTEX
8
0
10
-2.564000
20
4.806500
0
VERTEX
8
0
10
-2.564000
20
4.933500
0
VERTEX
8
0
10
-3.072000
20
4.933500
0
VERTEX
8
0
10
-3.072000
20
4.806500
0
SEQEND
8
0
0
POLYLINE
8
0
66
1
40
0.020320
41
0.020320
0
VERTEX
8
0
10
-2.564000
20
4.870000
0
VERTEX
8
0
10
-2.437000
20
4.870000
0
SEQEND
8
0
0
TEXT
8
0
10
-2.885000
20
4.988900
40
0.121920
41
1.041667
1
R1
0
POLYLINE
8
0
66
1
40
0.020320
41
0.020320
0
VERTEX
8
0
10
-1.897000
20
5.453000
0
VERTEX
8
0
10
-1.135000
20
5.453000
0
VERTEX
8
0
10
-1.135000
20
5.707000
0
VERTEX
8
0
10
-1.897000
20
5.707000
0
VERTEX
8
0
10
-1.897000
20
5.453000
0
SEQEND
8
0
0
TEXT
8
0
10
-1.643000
20
5.732400
40
0.121920
41
1.041667
1
J6
0
POLYLINE
8
0
66
1
40
0.020320
41
0.020320
0
VERTEX
8
0
10
-0.627000
20
5.453000
0
VERTEX
8
0
10
-0.119000
20
5.453000
0
VERTEX
8
0
10
-0.119000
20
5.707000
0
VERTEX
8
0
10
-0.627000
20
5.707000
0
VERTEX
8
0
10
-0.627000
20
5.453000
0
SEQEND
8
0
0
TEXT
8
0
10
-0.510000
20
5.752400
40
0.121920
41
1.041667
1
J5
0
POLYLINE
8
0
66
1
40
0.020320
41
0.020320
0
VERTEX
8
0
10
-0.637000
20
7.253000
0
VERTEX
8
0
10
-0.129000
20
7.253000
0
VERTEX
8
0
10
-0.129000
20
7.507000
0
VERTEX
8
0
10
-0.637000
20
7.507000
0
VERTEX
8
0
10
-0.637000
20
7.253000
0
SEQEND
8
0
0
TEXT
8
0
10
-0.510000
20
7.532400
40
0.121920
41
1.041667
1
J4
0
POLYLINE
8
0
66
1
40
0.020320
41
0.020320
0
VERTEX
8
0
10
-1.897000
20
7.253000
0
VERTEX
8
0
10
-1.389000
20
7.253000
0
VERTEX
8
0
10
-1.389000
20
7.507000
0
VERTEX
8
0
10
-1.897000
20
7.507000
0
VERTEX
8
0
10
-1.897000
20
7.253000
0
SEQEND
8
0
0
TEXT
8
0
10
-1.770000
20
7.532400
40
0.121920
41
1.041667
1
J3
0
POLYLINE
8
0
66
1
40
0.020320
41
0.020320
0
VERTEX
8
0
10
2.491000
20
7.156000
0
VERTEX
8
0
10
1.729000
20
7.156000
0
SEQEND
8
0
0
POLYLINE
8
0
66
1
40
0.020320
41
0.020320
0
VERTEX
8
0
10
1.729000
20
8.172000
0
VERTEX
8
0
10
2.491000
20
8.172000
0
SEQEND
8
0
0
POLYLINE
8
0
66
1
40
0.020320
41
0.020320
0
VERTEX
8
0
10
2.491000
20
7.156000
0
VERTEX
8
0
10
2.491000
20
8.172000
0
SEQEND
8
0
0
POLYLINE
8
0
66
1
40
0.020320
41
0.020320
0
VERTEX
8
0
10
1.729000
20
7.156000
0
VERTEX
8
0
10
1.729000
20
8.172000
0
SEQEND
8
0
0
TEXT
8
0
10
1.703600
20
7.537000
40
0.121920
41
1.041667
50
90.000000
1
J7
0
POLYLINE
8
0
66
1
40
0.020320
41
0.020320
0
VERTEX
8
0
10
2.491000
20
6.135620
0
VERTEX
8
0
10
1.729000
20
6.135620
0
SEQEND
8
0
0
POLYLINE
8
0
66
1
40
0.020320
41
0.020320
0
VERTEX
8
0
10
1.729000
20
7.151620
0
VERTEX
8
0
10
2.491000
20
7.151620
0
SEQEND
8
0
0
POLYLINE
8
0
66
1
40
0.020320
41
0.020320
0
VERTEX
8
0
10
2.491000
20
6.135620
0
VERTEX
8
0
10
2.491000
20
7.151620
0
SEQEND
8
0
0
POLYLINE
8
0
66
1
40
0.020320
41
0.020320
0
VERTEX
8
0
10
1.729000
20
6.135620
0
VERTEX
8
0
10
1.729000
20
7.151620
0
SEQEND
8
0
0
TEXT
8
0
10
1.703600
20
6.516620
40
0.121920
41
1.041667
50
90.000000
1
J8
0
POLYLINE
8
0
66
1
40
0.020320
41
0.020320
0
VERTEX
8
0
10
-3.110000
20
6.897000
0
VERTEX
8
0
10
-3.110000
20
7.024000
0
SEQEND
8
0
0
POLYLINE
8
0
66
1
40
0.020320
41
0.020320
0
VERTEX
8
0
10
-3.173500
20
7.024000
0
VERTEX
8
0
10
-3.046500
20
7.024000
0
VERTEX
8
0
10
-3.046500
20
7.532000
0
VERTEX
8
0
10
-3.173500
20
7.532000
0
VERTEX
8
0
10
-3.173500
20
7.024000
0
SEQEND
8
0
0
POLYLINE
8
0
66
1
40
0.020320
41
0.020320
0
VERTEX
8
0
10
-3.110000
20
7.532000
0
VERTEX
8
0
10
-3.110000
20
7.659000
0
SEQEND
8
0
0
TEXT
8
0
10
-3.198900
20
7.151000
40
0.121920
41
1.041667
50
90.000000
1
R2
0
POLYLINE
8
0
66
1
40
0.020320
41
0.020320
0
VERTEX
8
0
10
-2.314900
20
6.956000
0
VERTEX
8
0
10
-2.314900
20
7.464000
0
SEQEND
8
0
0
POLYLINE
8
0
66
1
40
0.020320
41
0.020320
0
VERTEX
8
0
10
-2.480000
20
6.879800
0
VERTEX
8
0
10
-2.441702
20
6.884562
0
VERTEX
8
0
10
-2.402212
20
6.898850
0
VERTEX
8
0
10
-2.360342
20
6.922662
0
VERTEX
8
0
10
-2.314900
20
6.956000
0
SEQEND
8
0
0
POLYLINE
8
0
66
1
40
0.020320
41
0.020320
0
VERTEX
8
0
10
-2.480000
20
6.879800
0
VERTEX
8
0
10
-2.544918
20
6.882431
0
VERTEX
8
0
10
-2.604953
20
6.898912
0
VERTEX
8
0
10
-2.658942
20
6.927839
0
VERTEX
8
0
10
-2.705722
20
6.967807
0
VERTEX
8
0
10
-2.744131
20
7.017412
0
VERTEX
8
0
10
-2.773005
20
7.075249
0
VERTEX
8
0
10
-2.791182
20
7.139913
0
VERTEX
8
0
10
-2.797500
20
7.210000
0
SEQEND
8
0
0
POLYLINE
8
0
66
1
40
0.020320
41
0.020320
0
VERTEX
8
0
10
-2.480000
20
7.540200
0
VERTEX
8
0
10
-2.441702
20
7.535438
0
VERTEX
8
0
10
-2.402212
20
7.521150
0
VERTEX
8
0
10
-2.360342
20
7.497338
0
VERTEX
8
0
10
-2.314900
20
7.464000
0
SEQEND
8
0
0
POLYLINE
8
0
66
1
40
0.020320
41
0.020320
0
VERTEX
8
0
10
-2.480000
20
7.540200
0
VERTEX
8
0
10
-2.544918
20
7.537569
0
VERTEX
8
0
10
-2.604953
20
7.521088
0
VERTEX
8
0
10
-2.658942
20
7.492161
0
VERTEX
8
0
10
-2.705722
20
7.452193
0
VERTEX
8
0
10
-2.744131
20
7.402588
0
VERTEX
8
0
10
-2.773005
20
7.344751
0
VERTEX
8
0
10
-2.791182
20
7.280087
0
VERTEX
8
0
10
-2.797500
20
7.210000
0
SEQEND
8
0
0
TEXT
8
0
10
-2.822900
20
7.083000
40
0.121920
41
1.041667
50
90.000000
1
Q1
0
POLYLINE
8
0
66
1
40
0.020320
41
0.020320
0
VERTEX
8
0
10
2.491000
20
5.116000
0
VERTEX
8
0
10
1.729000
20
5.116000
0
SEQEND
8
0
0
POLYLINE
8
0
66
1
40
0.020320
41
0.020320
0
VERTEX
8
0
10
1.729000
20
6.132000
0
VERTEX
8
0
10
2.491000
20
6.132000
0
SEQEND
8
0
0
POLYLINE
8
0
66
1
40
0.020320
41
0.020320
0
VERTEX
8
0
10
2.491000
20
5.116000
0
VERTEX
8
0
10
2.491000
20
6.132000
0
SEQEND
8
0
0
POLYLINE
8
0
66
1
40
0.020320
41
0.020320
0
VERTEX
8
0
10
1.729000
20
5.116000
0
VERTEX
8
0
10
1.729000
20
6.132000
0
SEQEND
8
0
0
TEXT
8
0
10
1.703600
20
5.433500
40
0.121920
41
1.041667
50
90.000000
1
J13
0
ENDSEC
0
EOF

