G04 PROTEUS GERBER X2 FILE*
%TF.GenerationSoftware,Labcenter,Proteus,8.11-SP0-Build30052*%
%TF.CreationDate,2022-05-16T20:50:57+00:00*%
%TF.FileFunction,Legend,Top*%
%TF.FilePolarity,Positive*%
%TF.Part,Single*%
%TF.SameCoordinates,{860b8ca4-a46b-4a59-b09f-cc4400e6bc87}*%
%FSLAX45Y45*%
%MOMM*%
G01*
%TA.AperFunction,Material*%
%ADD20C,0.203200*%
%TD.AperFunction*%
D20*
X-2140500Y+2639000D02*
X-1759500Y+2639000D01*
X-1759500Y+4671000D01*
X-2140500Y+4671000D01*
X-2140500Y+2639000D01*
X-1657900Y+3528000D02*
X-1642660Y+3528000D01*
X-1627420Y+3543875D01*
X-1627420Y+3607375D01*
X-1642660Y+3623250D01*
X-1718860Y+3623250D01*
X-1688380Y+3686750D02*
X-1718860Y+3718500D01*
X-1627420Y+3718500D01*
X-356500Y+2633000D02*
X+24500Y+2633000D01*
X+24500Y+4665000D01*
X-356500Y+4665000D01*
X-356500Y+2633000D01*
X+126100Y+3522000D02*
X+141340Y+3522000D01*
X+156580Y+3537875D01*
X+156580Y+3601375D01*
X+141340Y+3617250D01*
X+65140Y+3617250D01*
X+80380Y+3664875D02*
X+65140Y+3680750D01*
X+65140Y+3728375D01*
X+80380Y+3744250D01*
X+95620Y+3744250D01*
X+110860Y+3728375D01*
X+110860Y+3680750D01*
X+126100Y+3664875D01*
X+156580Y+3664875D01*
X+156580Y+3744250D01*
X+1500000Y+1694000D02*
X+1500000Y+8294000D01*
X+1500000Y+1694000D02*
X-3860000Y+1694000D01*
X+1500000Y+8294000D02*
X+1250000Y+8294000D01*
X+1000000Y+8594000D01*
X-2300000Y+8594000D01*
X-3860000Y+1694000D02*
X-3860000Y+8144000D01*
X-3710000Y+8294000D01*
X-2560000Y+8294000D01*
X-2300000Y+8594000D01*
X+1123000Y+4623000D02*
X+1377000Y+4623000D01*
X+1377000Y+6401000D01*
X+1123000Y+6401000D01*
X+1123000Y+4623000D01*
X+1123000Y+6647000D02*
X+1377000Y+6647000D01*
X+1377000Y+8171000D01*
X+1123000Y+8171000D01*
X+1123000Y+6647000D01*
X-3737000Y+6139000D02*
X-3483000Y+6139000D01*
X-3483000Y+8171000D01*
X-3737000Y+8171000D01*
X-3737000Y+6139000D01*
X-3737000Y+3961000D02*
X-3483000Y+3961000D01*
X-3483000Y+5993000D01*
X-3737000Y+5993000D01*
X-3737000Y+3961000D01*
X-3915880Y+5017000D02*
X-3900640Y+5032875D01*
X-3900640Y+5096375D01*
X-3915880Y+5112250D01*
X-3931120Y+5112250D01*
X-3946360Y+5096375D01*
X-3946360Y+5032875D01*
X-3961600Y+5017000D01*
X-3976840Y+5017000D01*
X-3992080Y+5032875D01*
X-3992080Y+5096375D01*
X-3976840Y+5112250D01*
X-3961600Y+5175750D02*
X-3992080Y+5207500D01*
X-3900640Y+5207500D01*
X-5208000Y+5002000D02*
X-4192000Y+5002000D01*
X-5208000Y+7542000D02*
X-4192000Y+7542000D01*
X-5208000Y+7542000D02*
X-5208000Y+5002000D01*
X-4192000Y+5002000D02*
X-4192000Y+7542000D01*
X-5279120Y+6145000D02*
X-5263880Y+6145000D01*
X-5248640Y+6160875D01*
X-5248640Y+6224375D01*
X-5263880Y+6240250D01*
X-5340080Y+6240250D01*
X-5309600Y+6367250D02*
X-5294360Y+6351375D01*
X-5294360Y+6303750D01*
X-5309600Y+6287875D01*
X-5324840Y+6287875D01*
X-5340080Y+6303750D01*
X-5340080Y+6351375D01*
X-5324840Y+6367250D01*
X-5263880Y+6367250D01*
X-5248640Y+6351375D01*
X-5248640Y+6303750D01*
X-5091000Y+4998000D02*
X-4329000Y+4998000D01*
X-4329000Y+3982000D02*
X-5091000Y+3982000D01*
X-5091000Y+4998000D02*
X-5091000Y+3982000D01*
X-4329000Y+4998000D02*
X-4329000Y+3982000D01*
X-4227400Y+4299500D02*
X-4212160Y+4299500D01*
X-4196920Y+4315375D01*
X-4196920Y+4378875D01*
X-4212160Y+4394750D01*
X-4288360Y+4394750D01*
X-4257880Y+4458250D02*
X-4288360Y+4490000D01*
X-4196920Y+4490000D01*
X-4212160Y+4553500D02*
X-4273120Y+4553500D01*
X-4288360Y+4569375D01*
X-4288360Y+4632875D01*
X-4273120Y+4648750D01*
X-4212160Y+4648750D01*
X-4196920Y+4632875D01*
X-4196920Y+4569375D01*
X-4212160Y+4553500D01*
X-4196920Y+4553500D02*
X-4288360Y+4648750D01*
X-4329000Y+7546000D02*
X-5091000Y+7546000D01*
X-5091000Y+8562000D02*
X-4329000Y+8562000D01*
X-4329000Y+7546000D02*
X-4329000Y+8562000D01*
X-5091000Y+7546000D02*
X-5091000Y+8562000D01*
X-5162120Y+7863500D02*
X-5146880Y+7863500D01*
X-5131640Y+7879375D01*
X-5131640Y+7942875D01*
X-5146880Y+7958750D01*
X-5223080Y+7958750D01*
X-5192600Y+8022250D02*
X-5223080Y+8054000D01*
X-5131640Y+8054000D01*
X-5192600Y+8149250D02*
X-5223080Y+8181000D01*
X-5131640Y+8181000D01*
X-4329000Y+2966000D02*
X-5091000Y+2966000D01*
X-5091000Y+3982000D02*
X-4329000Y+3982000D01*
X-4329000Y+2966000D02*
X-4329000Y+3982000D01*
X-5091000Y+2966000D02*
X-5091000Y+3982000D01*
X-5162120Y+3283500D02*
X-5146880Y+3283500D01*
X-5131640Y+3299375D01*
X-5131640Y+3362875D01*
X-5146880Y+3378750D01*
X-5223080Y+3378750D01*
X-5192600Y+3442250D02*
X-5223080Y+3474000D01*
X-5131640Y+3474000D01*
X-5207840Y+3553375D02*
X-5223080Y+3569250D01*
X-5223080Y+3616875D01*
X-5207840Y+3632750D01*
X-5192600Y+3632750D01*
X-5177360Y+3616875D01*
X-5177360Y+3569250D01*
X-5162120Y+3553375D01*
X-5131640Y+3553375D01*
X-5131640Y+3632750D01*
X-3199000Y+4870000D02*
X-3072000Y+4870000D01*
X-3072000Y+4806500D02*
X-2564000Y+4806500D01*
X-2564000Y+4933500D01*
X-3072000Y+4933500D01*
X-3072000Y+4806500D01*
X-2564000Y+4870000D02*
X-2437000Y+4870000D01*
X-2885000Y+5004140D02*
X-2885000Y+5095580D01*
X-2805625Y+5095580D01*
X-2789750Y+5080340D01*
X-2789750Y+5065100D01*
X-2805625Y+5049860D01*
X-2885000Y+5049860D01*
X-2805625Y+5049860D02*
X-2789750Y+5034620D01*
X-2789750Y+5004140D01*
X-2726250Y+5065100D02*
X-2694500Y+5095580D01*
X-2694500Y+5004140D01*
X-1897000Y+5453000D02*
X-1135000Y+5453000D01*
X-1135000Y+5707000D01*
X-1897000Y+5707000D01*
X-1897000Y+5453000D01*
X-1643000Y+5778120D02*
X-1643000Y+5762880D01*
X-1627125Y+5747640D01*
X-1563625Y+5747640D01*
X-1547750Y+5762880D01*
X-1547750Y+5839080D01*
X-1420750Y+5823840D02*
X-1436625Y+5839080D01*
X-1484250Y+5839080D01*
X-1500125Y+5823840D01*
X-1500125Y+5762880D01*
X-1484250Y+5747640D01*
X-1436625Y+5747640D01*
X-1420750Y+5762880D01*
X-1420750Y+5778120D01*
X-1436625Y+5793360D01*
X-1500125Y+5793360D01*
X-627000Y+5453000D02*
X-119000Y+5453000D01*
X-119000Y+5707000D01*
X-627000Y+5707000D01*
X-627000Y+5453000D01*
X-510000Y+5798120D02*
X-510000Y+5782880D01*
X-494125Y+5767640D01*
X-430625Y+5767640D01*
X-414750Y+5782880D01*
X-414750Y+5859080D01*
X-287750Y+5859080D02*
X-367125Y+5859080D01*
X-367125Y+5828600D01*
X-303625Y+5828600D01*
X-287750Y+5813360D01*
X-287750Y+5782880D01*
X-303625Y+5767640D01*
X-351250Y+5767640D01*
X-367125Y+5782880D01*
X-637000Y+7253000D02*
X-129000Y+7253000D01*
X-129000Y+7507000D01*
X-637000Y+7507000D01*
X-637000Y+7253000D01*
X-510000Y+7578120D02*
X-510000Y+7562880D01*
X-494125Y+7547640D01*
X-430625Y+7547640D01*
X-414750Y+7562880D01*
X-414750Y+7639080D01*
X-287750Y+7578120D02*
X-383000Y+7578120D01*
X-319500Y+7639080D01*
X-319500Y+7547640D01*
X-1897000Y+7253000D02*
X-1389000Y+7253000D01*
X-1389000Y+7507000D01*
X-1897000Y+7507000D01*
X-1897000Y+7253000D01*
X-1770000Y+7578120D02*
X-1770000Y+7562880D01*
X-1754125Y+7547640D01*
X-1690625Y+7547640D01*
X-1674750Y+7562880D01*
X-1674750Y+7639080D01*
X-1627125Y+7623840D02*
X-1611250Y+7639080D01*
X-1563625Y+7639080D01*
X-1547750Y+7623840D01*
X-1547750Y+7608600D01*
X-1563625Y+7593360D01*
X-1547750Y+7578120D01*
X-1547750Y+7562880D01*
X-1563625Y+7547640D01*
X-1611250Y+7547640D01*
X-1627125Y+7562880D01*
X-1595375Y+7593360D02*
X-1563625Y+7593360D01*
X+2491000Y+7156000D02*
X+1729000Y+7156000D01*
X+1729000Y+8172000D02*
X+2491000Y+8172000D01*
X+2491000Y+7156000D02*
X+2491000Y+8172000D01*
X+1729000Y+7156000D02*
X+1729000Y+8172000D01*
X+1657880Y+7537000D02*
X+1673120Y+7537000D01*
X+1688360Y+7552875D01*
X+1688360Y+7616375D01*
X+1673120Y+7632250D01*
X+1596920Y+7632250D01*
X+1596920Y+7679875D02*
X+1596920Y+7759250D01*
X+1612160Y+7759250D01*
X+1688360Y+7679875D01*
X+2491000Y+6135620D02*
X+1729000Y+6135620D01*
X+1729000Y+7151620D02*
X+2491000Y+7151620D01*
X+2491000Y+6135620D02*
X+2491000Y+7151620D01*
X+1729000Y+6135620D02*
X+1729000Y+7151620D01*
X+1657880Y+6516620D02*
X+1673120Y+6516620D01*
X+1688360Y+6532495D01*
X+1688360Y+6595995D01*
X+1673120Y+6611870D01*
X+1596920Y+6611870D01*
X+1642640Y+6675370D02*
X+1627400Y+6659495D01*
X+1612160Y+6659495D01*
X+1596920Y+6675370D01*
X+1596920Y+6722995D01*
X+1612160Y+6738870D01*
X+1627400Y+6738870D01*
X+1642640Y+6722995D01*
X+1642640Y+6675370D01*
X+1657880Y+6659495D01*
X+1673120Y+6659495D01*
X+1688360Y+6675370D01*
X+1688360Y+6722995D01*
X+1673120Y+6738870D01*
X+1657880Y+6738870D01*
X+1642640Y+6722995D01*
X-3110000Y+6897000D02*
X-3110000Y+7024000D01*
X-3173500Y+7024000D02*
X-3046500Y+7024000D01*
X-3046500Y+7532000D01*
X-3173500Y+7532000D01*
X-3173500Y+7024000D01*
X-3110000Y+7532000D02*
X-3110000Y+7659000D01*
X-3214140Y+7151000D02*
X-3305580Y+7151000D01*
X-3305580Y+7230375D01*
X-3290340Y+7246250D01*
X-3275100Y+7246250D01*
X-3259860Y+7230375D01*
X-3259860Y+7151000D01*
X-3259860Y+7230375D02*
X-3244620Y+7246250D01*
X-3214140Y+7246250D01*
X-3290340Y+7293875D02*
X-3305580Y+7309750D01*
X-3305580Y+7357375D01*
X-3290340Y+7373250D01*
X-3275100Y+7373250D01*
X-3259860Y+7357375D01*
X-3259860Y+7309750D01*
X-3244620Y+7293875D01*
X-3214140Y+7293875D01*
X-3214140Y+7373250D01*
X-2314900Y+6956000D02*
X-2314900Y+7464000D01*
X-2480000Y+6879800D02*
X-2441702Y+6884562D01*
X-2402212Y+6898850D01*
X-2360342Y+6922662D01*
X-2314900Y+6956000D01*
X-2480000Y+6879800D02*
X-2544918Y+6882431D01*
X-2604953Y+6898912D01*
X-2658942Y+6927839D01*
X-2705722Y+6967807D01*
X-2744131Y+7017412D01*
X-2773005Y+7075249D01*
X-2791182Y+7139913D01*
X-2797500Y+7210000D01*
X-2480000Y+7540200D02*
X-2441702Y+7535438D01*
X-2402212Y+7521150D01*
X-2360342Y+7497338D01*
X-2314900Y+7464000D01*
X-2480000Y+7540200D02*
X-2544918Y+7537569D01*
X-2604953Y+7521088D01*
X-2658942Y+7492161D01*
X-2705722Y+7452193D01*
X-2744131Y+7402588D01*
X-2773005Y+7344751D01*
X-2791182Y+7280087D01*
X-2797500Y+7210000D01*
X-2899100Y+7083000D02*
X-2929580Y+7114750D01*
X-2929580Y+7146500D01*
X-2899100Y+7178250D01*
X-2868620Y+7178250D01*
X-2838140Y+7146500D01*
X-2838140Y+7114750D01*
X-2868620Y+7083000D01*
X-2899100Y+7083000D01*
X-2868620Y+7146500D02*
X-2838140Y+7178250D01*
X-2899100Y+7241750D02*
X-2929580Y+7273500D01*
X-2838140Y+7273500D01*
X+2491000Y+5116000D02*
X+1729000Y+5116000D01*
X+1729000Y+6132000D02*
X+2491000Y+6132000D01*
X+2491000Y+5116000D02*
X+2491000Y+6132000D01*
X+1729000Y+5116000D02*
X+1729000Y+6132000D01*
X+1657880Y+5433500D02*
X+1673120Y+5433500D01*
X+1688360Y+5449375D01*
X+1688360Y+5512875D01*
X+1673120Y+5528750D01*
X+1596920Y+5528750D01*
X+1627400Y+5592250D02*
X+1596920Y+5624000D01*
X+1688360Y+5624000D01*
X+1612160Y+5703375D02*
X+1596920Y+5719250D01*
X+1596920Y+5766875D01*
X+1612160Y+5782750D01*
X+1627400Y+5782750D01*
X+1642640Y+5766875D01*
X+1657880Y+5782750D01*
X+1673120Y+5782750D01*
X+1688360Y+5766875D01*
X+1688360Y+5719250D01*
X+1673120Y+5703375D01*
X+1642640Y+5735125D02*
X+1642640Y+5766875D01*
M02*
