G04 PROTEUS GERBER X2 FILE*
%TF.GenerationSoftware,Labcenter,Proteus,8.11-SP0-Build30052*%
%TF.CreationDate,2022-05-16T20:50:57+00:00*%
%TF.FileFunction,Copper,L1,Top*%
%TF.FilePolarity,Positive*%
%TF.Part,Single*%
%TF.SameCoordinates,{860b8ca4-a46b-4a59-b09f-cc4400e6bc87}*%
%FSLAX45Y45*%
%MOMM*%
G01*
%AMDIL000*
4,1,8,
-1.270000,0.457200,-0.965200,0.762000,0.965200,0.762000,1.270000,0.457200,1.270000,-0.457200,
0.965200,-0.762000,-0.965200,-0.762000,-1.270000,-0.457200,-1.270000,0.457200,
0*%
%TA.AperFunction,ComponentPad*%
%ADD10DIL000*%
%AMPPAD001*
4,1,36,
-1.000000,-0.100000,
-1.000000,0.100000,
-0.986070,0.243130,
-0.946000,0.375490,
-0.882340,0.494520,
-0.797660,0.597660,
-0.694520,0.682340,
-0.575490,0.746000,
-0.443130,0.786070,
-0.300000,0.800000,
0.300000,0.800000,
0.443130,0.786070,
0.575490,0.746000,
0.694520,0.682340,
0.797660,0.597660,
0.882340,0.494520,
0.946000,0.375490,
0.986070,0.243130,
1.000000,0.100000,
1.000000,-0.100000,
0.986070,-0.243130,
0.946000,-0.375490,
0.882340,-0.494520,
0.797660,-0.597660,
0.694520,-0.682340,
0.575490,-0.746000,
0.443130,-0.786070,
0.300000,-0.800000,
-0.300000,-0.800000,
-0.443130,-0.786070,
-0.575490,-0.746000,
-0.694520,-0.682340,
-0.797660,-0.597660,
-0.882340,-0.494520,
-0.946000,-0.375490,
-0.986070,-0.243130,
-1.000000,-0.100000,
0*%
%TA.AperFunction,ComponentPad*%
%ADD11PPAD001*%
%TA.AperFunction,ComponentPad*%
%ADD12C,3.048000*%
%TA.AperFunction,ComponentPad*%
%ADD13C,1.778000*%
%TA.AperFunction,ComponentPad*%
%ADD14R,2.032000X2.032000*%
%ADD15C,1.524000*%
%TD.AperFunction*%
D10*
X-1950000Y+4544000D03*
X-1950000Y+4290000D03*
X-1950000Y+4036000D03*
X-1950000Y+3782000D03*
X-1950000Y+3528000D03*
X-1950000Y+3274000D03*
X-1950000Y+3020000D03*
X-1950000Y+2766000D03*
X-166000Y+4538000D03*
X-166000Y+4284000D03*
X-166000Y+4030000D03*
X-166000Y+3776000D03*
X-166000Y+3522000D03*
X-166000Y+3268000D03*
X-166000Y+3014000D03*
X-166000Y+2760000D03*
D11*
X+1250000Y+4750000D03*
X+1250000Y+5004000D03*
X+1250000Y+5258000D03*
X+1250000Y+5512000D03*
X+1250000Y+5766000D03*
X+1250000Y+6020000D03*
X+1250000Y+6274000D03*
X+1250000Y+6774000D03*
X+1250000Y+7028000D03*
X+1250000Y+7282000D03*
X+1250000Y+7536000D03*
X+1250000Y+7790000D03*
X+1250000Y+8044000D03*
X-3610000Y+8044000D03*
X-3610000Y+7790000D03*
X-3610000Y+7536000D03*
X-3610000Y+7282000D03*
X-3610000Y+7028000D03*
X-3610000Y+6774000D03*
X-3610000Y+6520000D03*
X-3610000Y+6266000D03*
X-3610000Y+5866000D03*
X-3610000Y+5612000D03*
X-3610000Y+5358000D03*
X-3610000Y+5104000D03*
X-3610000Y+4850000D03*
X-3610000Y+4596000D03*
X-3610000Y+4342000D03*
X-3610000Y+4088000D03*
D12*
X-4700000Y+5256000D03*
X-4700000Y+5764000D03*
X-4700000Y+6272000D03*
X-4700000Y+6780000D03*
X-4700000Y+7288000D03*
X-4710000Y+4744000D03*
X-4710000Y+4243620D03*
X-4710000Y+7800000D03*
X-4710000Y+8300380D03*
X-4710000Y+3220000D03*
X-4710000Y+3720380D03*
D13*
X-3326000Y+4870000D03*
X-2310000Y+4870000D03*
D14*
X-1770000Y+5580000D03*
X-1516000Y+5580000D03*
X-1262000Y+5580000D03*
X-500000Y+5580000D03*
X-246000Y+5580000D03*
X-510000Y+7380000D03*
X-256000Y+7380000D03*
X-1770000Y+7380000D03*
X-1516000Y+7380000D03*
D12*
X+2110000Y+7410000D03*
X+2110000Y+7910380D03*
X+2110000Y+6389620D03*
X+2110000Y+6890000D03*
D13*
X-3110000Y+6770000D03*
X-3110000Y+7786000D03*
D15*
X-2480000Y+7006800D03*
X-2480000Y+7210000D03*
X-2480000Y+7413200D03*
D12*
X+2110000Y+5370000D03*
X+2110000Y+5870380D03*
M02*
